{
.appVersion = "1356";
classes = (
{
automatic = 1;

glyphs = (
{
glyphname = A;
layers = (
{
anchors = (
{
name = bottom;
position = "{256, 0}";
},
{
name = ogonek;
position = "{450, 0}";
},
{
name = top;
position = "{372, 730}";
}
);
layerId = "EDF5EB54-295C-4C90-9A2F-67CD82979CFF";
paths = (
{
closed = 1;
nodes = (
"76 0 LINE",
"165 210 LINE",
"415 210 LINE",
"438 0 LINE",
"488 0 LINE",
"403 730 LINE",
"341 730 LINE",
"24 0 LINE"
);
},
{
closed = 1;
nodes = (
"311 550 LINE SMOOTH",
"342 622 OFFCURVE",
"362 673 OFFCURVE",
"367 688 CURVE",
"368 673 OFFCURVE",
"370 622 OFFCURVE",
"378 550 CURVE SMOOTH",
"410 255 LINE",
"184 255 LINE"
);
}
);
width = 600;
},
{
anchors = (
{
name = bottom;
position = "{256, 0}";
},
{
name = ogonek;
position = "{430, 0}";
},
{
name = top;
position = "{372, 730}";
}
);
layerId = "9ADF6715-3D0F-493D-8567-18A6FBCFC567";
paths = (
{
closed = 1;
nodes = (
"138 0 LINE",
"199 165 LINE",
"373 165 LINE",
"382 0 LINE",
"531 0 LINE",
"466 730 LINE",
"276 730 LINE",
"-19 0 LINE"
);
},
{
closed = 1;
nodes = (
"308 462 LINE SMOOTH",
"326 512 OFFCURVE",
"343 567 OFFCURVE",
"352 595 CURVE",
"353 567 OFFCURVE",
"357 512 OFFCURVE",
"359 461 CURVE SMOOTH",
"366 285 LINE",
"243 285 LINE"
);
}
);
width = 600;
},
{
anchors = (
{
name = bottom;
position = "{256, 0}";
},
{
name = ogonek;
position = "{455, 0}";
},
{
name = top;
position = "{372, 730}";
}
);
layerId = "CCC0BD40-BA8C-414E-B576-CF0B94E6C996";
paths = (
{
closed = 1;
nodes = (
"101 0 LINE",
"180 194 LINE",
"401 194 LINE",
"418 0 LINE",
"506 0 LINE",
"433 730 LINE",
"312 730 LINE",
"6 0 LINE"
);
},
{
closed = 1;
nodes = (
"302 496 LINE SMOOTH",
"336 580 OFFCURVE",
"357 640 OFFCURVE",
"363 658 CURVE",
"363 640 OFFCURVE",
"365 580 OFFCURVE",
"373 495 CURVE SMOOTH",
"394 270 LINE",
"210 270 LINE"
);
}
);
width = 600;
}
);
unicode = 0041;
},
{
glyphname = Aogonek;
layers = (
{
components = (
{
name = A;
}
);
layerId = "EDF5EB54-295C-4C90-9A2F-67CD82979CFF";
paths = (
{
closed = 1;
nodes = (
"497 -195 LINE",
"504 -153 LINE",
"440 -153 LINE SMOOTH",
"408 -153 OFFCURVE",
"392 -134 OFFCURVE",
"397 -103 CURVE SMOOTH",
"401 -75 OFFCURVE",
"430 -36 OFFCURVE",
"474 0 CURVE SMOOTH",
"487 10 LINE",
"450 10 LINE",
"393 -27 OFFCURVE",
"354 -74 OFFCURVE",
"348 -115 CURVE SMOOTH",
"340 -165 OFFCURVE",
"369 -195 OFFCURVE",
"424 -195 CURVE"
);
}
);
width = 600;
},
{
components = (
{
name = A;
}
);
layerId = "CCC0BD40-BA8C-414E-B576-CF0B94E6C996";
paths = (
{
closed = 1;
nodes = (
"509 -203 LINE",
"518 -143 LINE",
"458 -143 LINE SMOOTH",
"424 -143 OFFCURVE",
"407 -122 OFFCURVE",
"411 -93 CURVE SMOOTH",
"416 -65 OFFCURVE",
"439 -36 OFFCURVE",
"490 1 CURVE",
"503 10 LINE",
"428 10 LINE",
"358 -34 OFFCURVE",
"330 -72 OFFCURVE",
"324 -110 CURVE SMOOTH",
"315 -164 OFFCURVE",
"357 -203 OFFCURVE",
"431 -203 CURVE SMOOTH"
);
}
);
width = 600;
},
{
components = (
{
name = A;
}
);
layerId = "9ADF6715-3D0F-493D-8567-18A6FBCFC567";
paths = (
{
closed = 1;
nodes = (
"492 -225 LINE",
"509 -120 LINE",
"440 -120 LINE SMOOTH",
"411 -120 OFFCURVE",
"397 -103 OFFCURVE",
"400 -83 CURVE SMOOTH",
"403 -66 OFFCURVE",
"421 -42 OFFCURVE",
"451 -18 CURVE SMOOTH",
"488 11 LINE",
"402 11 LINE",
"329 -19 OFFCURVE",
"278 -68 OFFCURVE",
"271 -115 CURVE SMOOTH",
"260 -180 OFFCURVE",
"303 -225 OFFCURVE",
"384 -225 CURVE SMOOTH"
);
}
);
width = 600;
}
);
unicode = 0104;
},
{
glyphname = AE;
layers = (
{
anchors = (
{
name = bottom;
position = "{256, 0}";
},
{
name = top;
position = "{372, 730}";
}
);
layerId = "9ADF6715-3D0F-493D-8567-18A6FBCFC567";
paths = (
{
closed = 1;
nodes = (
"99 0 LINE",
"151 165 LINE",
"273 165 LINE",
"247 0 LINE",
"536 0 LINE",
"556 126 LINE",
"392 126 LINE",
"420 305 LINE",
"559 305 LINE",
"580 436 LINE",
"441 436 LINE",
"468 605 LINE",
"632 605 LINE",
"652 730 LINE",
"209 730 LINE",
"-44 0 LINE"
);
},
{
closed = 1;
nodes = (
"294 605 LINE",
"343 605 LINE",
"290 270 LINE",
"185 270 LINE"
);
}
);
width = 600;
},
{
anchors = (
{
name = bottom;
position = "{256, 0}";
},
{
name = top;
position = "{372, 730}";
}
);
layerId = "CCC0BD40-BA8C-414E-B576-CF0B94E6C996";
paths = (
{
closed = 1;
nodes = (
"77 0 LINE",
"149 203 LINE",
"290 203 LINE",
"258 0 LINE",
"526 0 LINE",
"539 82 LINE",
"357 82 LINE",
"398 338 LINE",
"555 338 LINE",
"568 420 LINE",
"411 420 LINE",
"447 648 LINE",
"629 648 LINE",
"642 730 LINE",
"247 730 LINE",
"-14 0 LINE"
);
},
{
closed = 1;
nodes = (
"305 648 LINE",
"361 648 LINE",
"302 278 LINE",
"175 278 LINE"
);
}
);
width = 600;
},
{
anchors = (
{
name = bottom;
position = "{256, 0}";
},
{
name = top;
position = "{372, 730}";
}
);
layerId = "EDF5EB54-295C-4C90-9A2F-67CD82979CFF";
paths = (
{
closed = 1;
nodes = (
"40 0 LINE",
"130 215 LINE",
"300 215 LINE",
"266 0 LINE",
"525 0 LINE",
"532 45 LINE",
"323 45 LINE",
"373 357 LINE",
"546 357 LINE",
"553 402 LINE",
"380 402 LINE",
"424 685 LINE",
"633 685 LINE",
"641 730 LINE",
"294 730 LINE",
"-10 0 LINE"
);
},
{
closed = 1;
nodes = (
"323 685 LINE",
"374 685 LINE",
"307 260 LINE",
"150 260 LINE"
);
}
);
width = 600;
}
);
unicode = 00C6;
},
{
glyphname = B;
layers = (
{
anchors = (
{
name = top;
position = "{372, 730}";
}
);
layerId = "9ADF6715-3D0F-493D-8567-18A6FBCFC567";
paths = (
{
closed = 1;
nodes = (
"266 0 LINE SMOOTH",
"419 0 OFFCURVE",
"529 83 OFFCURVE",
"549 211 CURVE SMOOTH",
"567 323 OFFCURVE",
"493 381 OFFCURVE",
"396 380 CURVE",
"397 383 LINE",
"485 383 OFFCURVE",
"571 446 OFFCURVE",
"586 543 CURVE SMOOTH",
"604 657 OFFCURVE",
"521 730 OFFCURVE",
"373 730 CURVE SMOOTH",
"138 730 LINE",
"22 0 LINE"
);
},
{
closed = 1;
nodes = (
"217 318 LINE",
"310 318 LINE SMOOTH",
"375 318 OFFCURVE",
"409 280 OFFCURVE",
"400 219 CURVE SMOOTH",
"390 158 OFFCURVE",
"344 121 OFFCURVE",
"279 121 CURVE SMOOTH",
"186 121 LINE"
);
},
{
closed = 1;
nodes = (
"263 609 LINE",
"351 609 LINE SMOOTH",
"409 609 OFFCURVE",
"440 577 OFFCURVE",
"432 523 CURVE SMOOTH",
"423 469 OFFCURVE",
"382 436 OFFCURVE",
"324 436 CURVE SMOOTH",
"236 436 LINE"
);
}
);
width = 600;
},
{
anchors = (
{
name = top;
position = "{372, 730}";
}
);
layerId = "CCC0BD40-BA8C-414E-B576-CF0B94E6C996";
paths = (
{
closed = 1;
nodes = (
"271 0 LINE SMOOTH",
"404 0 OFFCURVE",
"498 78 OFFCURVE",
"518 203 CURVE SMOOTH",
"537 320 OFFCURVE",
"474 395 OFFCURVE",
"358 393 CURVE",
"356 378 LINE",
"463 376 OFFCURVE",
"539 440 OFFCURVE",
"555 541 CURVE SMOOTH",
"573 659 OFFCURVE",
"505 730 OFFCURVE",
"372 730 CURVE SMOOTH",
"165 730 LINE",
"49 0 LINE"
);
},
{
closed = 1;
nodes = (
"191 341 LINE",
"315 341 LINE SMOOTH",
"399 341 OFFCURVE",
"442 286 OFFCURVE",
"430 206 CURVE SMOOTH",
"417 129 OFFCURVE",
"358 81 OFFCURVE",
"274 81 CURVE SMOOTH",
"150 81 LINE"
);
},
{
closed = 1;
nodes = (
"240 649 LINE",
"359 649 LINE SMOOTH",
"436 649 OFFCURVE",
"476 605 OFFCURVE",
"465 534 CURVE SMOOTH",
"453 463 OFFCURVE",
"398 419 OFFCURVE",
"321 419 CURVE SMOOTH",
"203 419 LINE"
);
}
);
width = 600;
},
{
anchors = (
{
name = top;
position = "{372, 730}";
}
);
layerId = "EDF5EB54-295C-4C90-9A2F-67CD82979CFF";
paths = (
{
closed = 1;
nodes = (
"257 0 LINE SMOOTH",
"389 0 OFFCURVE",
"484 78 OFFCURVE",
"504 200 CURVE SMOOTH",
"521 310 OFFCURVE",
"464 380 OFFCURVE",
"356 380 CURVE",
"355 370 LINE",
"452 370 OFFCURVE",
"524 439 OFFCURVE",
"540 542 CURVE SMOOTH",
"558 656 OFFCURVE",
"491 730 OFFCURVE",
"370 730 CURVE SMOOTH",
"182 730 LINE",
"66 0 LINE"
);
},
{
closed = 1;
nodes = (
"172 353 LINE",
"313 353 LINE SMOOTH",
"415 353 OFFCURVE",
"469 294 OFFCURVE",
"454 199 CURVE SMOOTH",
"438 104 OFFCURVE",
"366 46 OFFCURVE",
"264 46 CURVE SMOOTH",
"123 46 LINE"
);
},
{
closed = 1;
nodes = (
"224 684 LINE",
"362 684 LINE SMOOTH",
"455 684 OFFCURVE",
"504 630 OFFCURVE",
"490 541 CURVE SMOOTH",
"476 452 OFFCURVE",
"411 398 OFFCURVE",
"317 398 CURVE SMOOTH",
"179 398 LINE"
);
}
);
width = 600;
}
);
unicode = 0042;
},
{
glyphname = C;
layers = (
{
anchors = (
{
name = bottom;
position = "{261, 0}";
},
{
name = top;
position = "{377, 730}";
}
);
layerId = "9ADF6715-3D0F-493D-8567-18A6FBCFC567";
paths = (
{
closed = 1;
nodes = (
"405 -10 OFFCURVE",
"516 77 OFFCURVE",
"537 210 CURVE",
"387 210 LINE",
"378 152 OFFCURVE",
"339 120 OFFCURVE",
"279 120 CURVE SMOOTH",
"219 120 OFFCURVE",
"190 152 OFFCURVE",
"199 210 CURVE SMOOTH",
"248 520 LINE SMOOTH",
"258 578 OFFCURVE",
"297 610 OFFCURVE",
"357 610 CURVE SMOOTH",
"417 610 OFFCURVE",
"446 578 OFFCURVE",
"436 520 CURVE",
"586 520 LINE",
"607 653 OFFCURVE",
"524 740 OFFCURVE",
"377 740 CURVE SMOOTH",
"230 740 OFFCURVE",
"119 653 OFFCURVE",
"98 520 CURVE SMOOTH",
"49 210 LINE SMOOTH",
"28 78 OFFCURVE",
"111 -10 OFFCURVE",
"258 -10 CURVE SMOOTH"
);
}
);
width = 600;
},
{
anchors = (
{
name = bottom;
position = "{261, 0}";
},
{
name = top;
position = "{377, 730}";
}
);
layerId = "EDF5EB54-295C-4C90-9A2F-67CD82979CFF";
paths = (
{
closed = 1;
nodes = (
"384 -10 OFFCURVE",
"477 72 OFFCURVE",
"498 200 CURVE",
"448 200 LINE",
"432 98 OFFCURVE",
"364 35 OFFCURVE",
"268 35 CURVE SMOOTH",
"174 35 OFFCURVE",
"126 94 OFFCURVE",
"141 190 CURVE SMOOTH",
"197 540 LINE SMOOTH",
"212 636 OFFCURVE",
"279 695 OFFCURVE",
"372 695 CURVE SMOOTH",
"467 695 OFFCURVE",
"516 632 OFFCURVE",
"500 530 CURVE",
"550 530 LINE",
"570 658 OFFCURVE",
"503 740 OFFCURVE",
"379 740 CURVE SMOOTH",
"257 740 OFFCURVE",
"166 662 OFFCURVE",
"147 540 CURVE SMOOTH",
"91 190 LINE SMOOTH",
"72 69 OFFCURVE",
"138 -10 OFFCURVE",
"260 -10 CURVE SMOOTH"
);
}
);
width = 600;
},
{
anchors = (
{
name = bottom;
position = "{261, 0}";
},
{
name = top;
position = "{377, 730}";
}
);
layerId = "CCC0BD40-BA8C-414E-B576-CF0B94E6C996";
paths = (
{
closed = 1;
nodes = (
"389 -10 OFFCURVE",
"485 71 OFFCURVE",
"506 200 CURVE",
"416 200 LINE",
"403 117 OFFCURVE",
"349 71 OFFCURVE",
"271 71 CURVE SMOOTH",
"192 71 OFFCURVE",
"153 117 OFFCURVE",
"166 200 CURVE SMOOTH",
"218 531 LINE SMOOTH",
"231 613 OFFCURVE",
"285 659 OFFCURVE",
"364 659 CURVE SMOOTH",
"442 659 OFFCURVE",
"481 613 OFFCURVE",
"468 530 CURVE",
"558 530 LINE",
"578 659 OFFCURVE",
"508 740 OFFCURVE",
"377 740 CURVE SMOOTH",
"244 740 OFFCURVE",
"149 661 OFFCURVE",
"128 530 CURVE SMOOTH",
"76 200 LINE SMOOTH",
"55 69 OFFCURVE",
"125 -10 OFFCURVE",
"258 -10 CURVE SMOOTH"
);
}
);
width = 600;
}
);
unicode = 0043;
},
{
glyphname = Ccedilla;
layers = (
{
components = (
{
name = C;
}
);
layerId = "EDF5EB54-295C-4C90-9A2F-67CD82979CFF";
paths = (
{
closed = 1;
nodes = (
"245 -195 LINE SMOOTH",
"305 -195 OFFCURVE",
"350 -161 OFFCURVE",
"357 -118 CURVE SMOOTH",
"366 -61 OFFCURVE",
"307 -37 OFFCURVE",
"260 -34 CURVE",
"293 26 LINE",
"251 26 LINE",
"202 -64 LINE",
"273 -64 OFFCURVE",
"316 -86 OFFCURVE",
"311 -118 CURVE SMOOTH",
"308 -140 OFFCURVE",
"283 -160 OFFCURVE",
"251 -160 CURVE SMOOTH",
"171 -160 LINE",
"165 -195 LINE"
);
}
);
width = 600;
},
{
components = (
{
name = C;
}
);
layerId = "CCC0BD40-BA8C-414E-B576-CF0B94E6C996";
paths = (
{
closed = 1;
nodes = (
"219 -203 LINE SMOOTH",
"291 -203 OFFCURVE",
"345 -166 OFFCURVE",
"352 -120 CURVE SMOOTH",
"360 -68 OFFCURVE",
"297 -41 OFFCURVE",
"245 -35 CURVE",
"276 26 LINE",
"219 26 LINE",
"169 -69 LINE",
"236 -69 OFFCURVE",
"271 -89 OFFCURVE",
"267 -112 CURVE SMOOTH",
"264 -130 OFFCURVE",
"242 -148 OFFCURVE",
"213 -148 CURVE SMOOTH",
"143 -148 LINE",
"134 -203 LINE"
);
}
);
width = 600;
},
{
components = (
{
name = C;
}
);
layerId = "9ADF6715-3D0F-493D-8567-18A6FBCFC567";
paths = (
{
closed = 1;
nodes = (
"230 -225 LINE SMOOTH",
"314 -225 OFFCURVE",
"377 -182 OFFCURVE",
"385 -133 CURVE SMOOTH",
"395 -72 OFFCURVE",
"318 -43 OFFCURVE",
"258 -39 CURVE",
"286 16 LINE",
"213 16 LINE",
"164 -69 LINE",
"237 -69 OFFCURVE",
"277 -88 OFFCURVE",
"272 -119 CURVE SMOOTH",
"270 -135 OFFCURVE",
"244 -155 OFFCURVE",
"211 -155 CURVE SMOOTH",
"131 -155 LINE",
"120 -225 LINE"
);
}
);
width = 600;
}
);
unicode = 00C7;
},
{
glyphname = D;
layers = (
{
anchors = (
{
name = top;
position = "{372, 730}";
}
);
layerId = "9ADF6715-3D0F-493D-8567-18A6FBCFC567";
paths = (
{
closed = 1;
nodes = (
"256 0 LINE SMOOTH",
"407 0 OFFCURVE",
"523 94 OFFCURVE",
"545 235 CURVE SMOOTH",
"587 496 LINE SMOOTH",
"609 637 OFFCURVE",
"523 730 OFFCURVE",
"372 730 CURVE SMOOTH",
"135 730 LINE",
"19 0 LINE"
);
},
{
closed = 1;
nodes = (
"262 590 LINE",
"349 590 LINE SMOOTH",
"410 590 OFFCURVE",
"445 552 OFFCURVE",
"437 496 CURVE SMOOTH",
"395 235 LINE SMOOTH",
"386 178 OFFCURVE",
"339 140 OFFCURVE",
"278 140 CURVE SMOOTH",
"191 140 LINE"
);
}
);
width = 600;
},
{
anchors = (
{
name = top;
position = "{372, 730}";
}
);
layerId = "CCC0BD40-BA8C-414E-B576-CF0B94E6C996";
paths = (
{
closed = 1;
nodes = (
"237 0 LINE SMOOTH",
"378 0 OFFCURVE",
"482 86 OFFCURVE",
"503 220 CURVE SMOOTH",
"549 511 LINE SMOOTH",
"570 644 OFFCURVE",
"494 730 OFFCURVE",
"353 730 CURVE SMOOTH",
"164 730 LINE",
"48 0 LINE"
);
},
{
closed = 1;
nodes = (
"241 650 LINE",
"340 650 LINE SMOOTH",
"428 650 OFFCURVE",
"473 598 OFFCURVE",
"459 511 CURVE SMOOTH",
"413 220 LINE SMOOTH",
"399 132 OFFCURVE",
"338 80 OFFCURVE",
"250 80 CURVE SMOOTH",
"151 80 LINE"
);
}
);
width = 600;
},
{
anchors = (
{
name = top;
position = "{372, 730}";
}
);
layerId = "EDF5EB54-295C-4C90-9A2F-67CD82979CFF";
paths = (
{
closed = 1;
nodes = (
"226 0 LINE SMOOTH",
"361 0 OFFCURVE",
"465 88 OFFCURVE",
"486 220 CURVE SMOOTH",
"532 510 LINE SMOOTH",
"553 642 OFFCURVE",
"477 730 OFFCURVE",
"342 730 CURVE SMOOTH",
"182 730 LINE",
"66 0 LINE"
);
},
{
closed = 1;
nodes = (
"224 684 LINE",
"334 684 LINE SMOOTH",
"438 684 OFFCURVE",
"498 614 OFFCURVE",
"482 510 CURVE SMOOTH",
"436 220 LINE SMOOTH",
"419 115 OFFCURVE",
"338 46 OFFCURVE",
"233 46 CURVE SMOOTH",
"123 46 LINE"
);
}
);
width = 600;
}
);
unicode = 0044;
},
{
glyphname = Eth;
layers = (
{
components = (
{
name = D;
}
);
layerId = "9ADF6715-3D0F-493D-8567-18A6FBCFC567";
paths = (
{
closed = 1;
nodes = (
"290 325 LINE",
"290 420 LINE",
"10 420 LINE",
"10 325 LINE"
);
}
);
width = 600;
},
{
components = (
{
name = D;
}
);
layerId = "CCC0BD40-BA8C-414E-B576-CF0B94E6C996";
paths = (
{
closed = 1;
nodes = (
"290 335 LINE",
"290 410 LINE",
"10 410 LINE",
"10 335 LINE"
);
}
);
width = 600;
},
{
components = (
{
name = D;
}
);
layerId = "EDF5EB54-295C-4C90-9A2F-67CD82979CFF";
paths = (
{
closed = 1;
nodes = (
"290 351 LINE",
"290 395 LINE",
"10 395 LINE",
"10 351 LINE"
);
}
);
width = 600;
}
);
unicode = 00D0;
},
{
glyphname = Dcroat;
layers = (
{
components = (
{
name = D;
}
);
layerId = "EDF5EB54-295C-4C90-9A2F-67CD82979CFF";
paths = (
{
closed = 1;
nodes = (
"290 351 LINE",
"297 395 LINE",
"17 395 LINE",
"10 351 LINE"
);
}
);
width = 600;
},
{
components = (
{
name = D;
}
);
layerId = "CCC0BD40-BA8C-414E-B576-CF0B94E6C996";
paths = (
{
closed = 1;
nodes = (
"290 335 LINE",
"302 410 LINE",
"22 410 LINE",
"10 335 LINE"
);
}
);
width = 600;
},
{
components = (
{
name = D;
}
);
layerId = "9ADF6715-3D0F-493D-8567-18A6FBCFC567";
paths = (
{
closed = 1;
nodes = (
"290 325 LINE",
"305 420 LINE",
"25 420 LINE",
"10 325 LINE"
);
}
);
width = 600;
}
);
unicode = 0110;
},
{
glyphname = E;
layers = (
{
anchors = (
{
name = bottom;
position = "{320, 0}";
},
{
name = ogonek;
position = "{380, 0}";
},
{
name = top;
position = "{392, 730}";
},
{
name = topleft;
position = "{92, 730}";
}
);
layerId = "9ADF6715-3D0F-493D-8567-18A6FBCFC567";
paths = (
{
closed = 1;
nodes = (
"486 0 LINE",
"506 128 LINE",
"203 128 LINE",
"232 310 LINE",
"500 310 LINE",
"520 438 LINE",
"252 438 LINE",
"278 602 LINE",
"581 602 LINE",
"602 730 LINE",
"152 730 LINE",
"36 0 LINE"
);
}
);
width = 600;
},
{
anchors = (
{
name = bottom;
position = "{320, 0}";
},
{
name = ogonek;
position = "{390, 0}";
},
{
name = top;
position = "{392, 730}";
},
{
name = topleft;
position = "{92, 730}";
}
);
layerId = "CCC0BD40-BA8C-414E-B576-CF0B94E6C996";
paths = (
{
closed = 1;
nodes = (
"476 0 LINE",
"489 82 LINE",
"158 82 LINE",
"199 341 LINE",
"495 341 LINE",
"508 422 LINE",
"212 422 LINE",
"248 648 LINE",
"579 648 LINE",
"592 730 LINE",
"172 730 LINE",
"56 0 LINE"
);
}
);
width = 600;
},
{
anchors = (
{
name = bottom;
position = "{320, 0}";
},
{
name = ogonek;
position = "{400, 0}";
},
{
name = top;
position = "{392, 730}";
},
{
name = topleft;
position = "{92, 730}";
}
);
layerId = "EDF5EB54-295C-4C90-9A2F-67CD82979CFF";
paths = (
{
closed = 1;
nodes = (
"466 0 LINE",
"473 46 LINE",
"133 46 LINE",
"183 358 LINE",
"488 358 LINE",
"495 403 LINE",
"190 403 LINE",
"234 684 LINE",
"574 684 LINE",
"582 730 LINE",
"192 730 LINE",
"76 0 LINE"
);
}
);
width = 600;
}
);
unicode = 0045;
},
{
glyphname = Eogonek;
layers = (
{
components = (
{
alignment = -1;
name = E;
}
);
layerId = "9ADF6715-3D0F-493D-8567-18A6FBCFC567";
paths = (
{
closed = 1;
nodes = (
"454 -225 LINE",
"471 -120 LINE",
"402 -120 LINE SMOOTH",
"373 -120 OFFCURVE",
"359 -103 OFFCURVE",
"362 -83 CURVE SMOOTH",
"365 -66 OFFCURVE",
"383 -42 OFFCURVE",
"413 -18 CURVE SMOOTH",
"450 11 LINE",
"364 11 LINE",
"291 -19 OFFCURVE",
"240 -68 OFFCURVE",
"233 -115 CURVE SMOOTH",
"222 -180 OFFCURVE",
"265 -225 OFFCURVE",
"346 -225 CURVE SMOOTH"
);
}
);
width = 600;
},
{
components = (
{
alignment = -1;
name = E;
}
);
layerId = "CCC0BD40-BA8C-414E-B576-CF0B94E6C996";
paths = (
{
closed = 1;
nodes = (
"449 -203 LINE",
"458 -143 LINE",
"398 -143 LINE SMOOTH",
"364 -143 OFFCURVE",
"347 -122 OFFCURVE",
"351 -93 CURVE SMOOTH",
"356 -65 OFFCURVE",
"379 -36 OFFCURVE",
"430 1 CURVE",
"443 10 LINE",
"368 10 LINE",
"298 -34 OFFCURVE",
"270 -72 OFFCURVE",
"264 -110 CURVE SMOOTH",
"255 -164 OFFCURVE",
"297 -203 OFFCURVE",
"371 -203 CURVE SMOOTH"
);
}
);
width = 600;
},
{
components = (
{
alignment = -1;
name = E;
}
);
layerId = "EDF5EB54-295C-4C90-9A2F-67CD82979CFF";
paths = (
{
closed = 1;
nodes = (
"440 -195 LINE",
"447 -153 LINE",
"383 -153 LINE SMOOTH",
"351 -153 OFFCURVE",
"335 -134 OFFCURVE",
"340 -103 CURVE SMOOTH",
"344 -75 OFFCURVE",
"373 -36 OFFCURVE",
"417 0 CURVE SMOOTH",
"430 10 LINE",
"393 10 LINE",
"336 -27 OFFCURVE",
"297 -74 OFFCURVE",
"291 -115 CURVE SMOOTH",
"283 -165 OFFCURVE",
"312 -195 OFFCURVE",
"367 -195 CURVE"
);
}
);
width = 600;
}
);
unicode = 0118;
},
{
glyphname = Eopen;
layers = (
{
layerId = "EDF5EB54-295C-4C90-9A2F-67CD82979CFF";
paths = (
{
closed = 1;
nodes = (
"398 -10 OFFCURVE",
"504 73 OFFCURVE",
"523 193 CURVE",
"473 193 LINE",
"458 99 OFFCURVE",
"376 35 OFFCURVE",
"272 35 CURVE SMOOTH",
"168 35 OFFCURVE",
"106 99 OFFCURVE",
"121 193 CURVE SMOOTH",
"136 288 OFFCURVE",
"218 353 OFFCURVE",
"322 353 CURVE SMOOTH",
"397 353 LINE",
"404 398 LINE",
"334 398 LINE SMOOTH",
"237 398 OFFCURVE",
"181 459 OFFCURVE",
"195 547 CURVE SMOOTH",
"209 635 OFFCURVE",
"284 696 OFFCURVE",
"381 696 CURVE SMOOTH",
"478 696 OFFCURVE",
"535 635 OFFCURVE",
"521 547 CURVE",
"571 547 LINE",
"589 661 OFFCURVE",
"514 740 OFFCURVE",
"388 740 CURVE SMOOTH",
"262 740 OFFCURVE",
"163 661 OFFCURVE",
"145 547 CURVE SMOOTH",
"128 442 OFFCURVE",
"185 370 OFFCURVE",
"285 370 CURVE",
"286 380 LINE",
"176 380 OFFCURVE",
"88 305 OFFCURVE",
"71 196 CURVE SMOOTH",
"52 74 OFFCURVE",
"130 -10 OFFCURVE",
"264 -10 CURVE SMOOTH"
);
}
);
width = 600;
},
{
layerId = "CCC0BD40-BA8C-414E-B576-CF0B94E6C996";
paths = (
{
closed = 1;
nodes = (
"406 -10 OFFCURVE",
"513 71 OFFCURVE",
"534 192 CURVE",
"444 192 LINE",
"431 119 OFFCURVE",
"365 70 OFFCURVE",
"280 70 CURVE SMOOTH",
"190 70 OFFCURVE",
"139 124 OFFCURVE",
"151 205 CURVE SMOOTH",
"164 286 OFFCURVE",
"233 340 OFFCURVE",
"323 340 CURVE SMOOTH",
"414 340 LINE",
"427 420 LINE",
"337 420 LINE SMOOTH",
"256 420 OFFCURVE",
"209 468 OFFCURVE",
"221 540 CURVE SMOOTH",
"232 612 OFFCURVE",
"294 660 OFFCURVE",
"375 660 CURVE SMOOTH",
"457 660 OFFCURVE",
"503 610 OFFCURVE",
"491 535 CURVE",
"581 535 LINE",
"600 658 OFFCURVE",
"522 740 OFFCURVE",
"384 740 CURVE SMOOTH",
"250 740 OFFCURVE",
"150 663 OFFCURVE",
"131 546 CURVE SMOOTH",
"115 444 OFFCURVE",
"173 380 OFFCURVE",
"281 382 CURVE",
"282 392 LINE",
"165 394 OFFCURVE",
"79 321 OFFCURVE",
"60 205 CURVE SMOOTH",
"40 76 OFFCURVE",
"122 -10 OFFCURVE",
"267 -10 CURVE SMOOTH"
);
}
);
width = 600;
},
{
layerId = "9ADF6715-3D0F-493D-8567-18A6FBCFC567";
paths = (
{
closed = 1;
nodes = (
"411 -10 OFFCURVE",
"530 76 OFFCURVE",
"554 205 CURVE",
"404 205 LINE",
"392 154 OFFCURVE",
"345 120 OFFCURVE",
"284 120 CURVE SMOOTH",
"218 120 OFFCURVE",
"180 159 OFFCURVE",
"190 218 CURVE SMOOTH",
"199 278 OFFCURVE",
"249 317 OFFCURVE",
"316 317 CURVE SMOOTH",
"417 317 LINE",
"436 437 LINE",
"333 437 LINE SMOOTH",
"273 437 OFFCURVE",
"240 471 OFFCURVE",
"248 523 CURVE SMOOTH",
"256 575 OFFCURVE",
"301 610 OFFCURVE",
"361 610 CURVE SMOOTH",
"421 610 OFFCURVE",
"455 575 OFFCURVE",
"447 523 CURVE",
"597 523 LINE",
"618 654 OFFCURVE",
"528 740 OFFCURVE",
"373 740 CURVE SMOOTH",
"226 740 OFFCURVE",
"117 660 OFFCURVE",
"98 540 CURVE SMOOTH",
"82 444 OFFCURVE",
"131 383 OFFCURVE",
"222 383 CURVE",
"223 390 LINE",
"126 392 OFFCURVE",
"53 325 OFFCURVE",
"36 217 CURVE SMOOTH",
"15 80 OFFCURVE",
"104 -10 OFFCURVE",
"260 -10 CURVE SMOOTH"
);
}
);
width = 600;
}
);
unicode = 0190;
},
{
glyphname = F;
layers = (
{
anchors = (
{
name = top;
position = "{372, 730}";
}
);
layerId = "9ADF6715-3D0F-493D-8567-18A6FBCFC567";
paths = (
{
closed = 1;
nodes = (
"176 0 LINE",
"222 288 LINE",
"516 288 LINE",
"538 428 LINE",
"242 428 LINE",
"267 590 LINE",
"589 590 LINE",
"612 730 LINE",
"142 730 LINE",
"26 0 LINE"
);
}
);
width = 600;
},
{
anchors = (
{
name = top;
position = "{372, 730}";
}
);
layerId = "CCC0BD40-BA8C-414E-B576-CF0B94E6C996";
paths = (
{
closed = 1;
nodes = (
"141 0 LINE",
"192 324 LINE",
"506 324 LINE",
"519 406 LINE",
"203 406 LINE",
"242 648 LINE",
"584 648 LINE",
"597 730 LINE",
"167 730 LINE",
"51 0 LINE"
);
}
);
width = 600;
},
{
anchors = (
{
name = top;
position = "{372, 730}";
}
);
layerId = "EDF5EB54-295C-4C90-9A2F-67CD82979CFF";
paths = (
{
closed = 1;
nodes = (
"121 0 LINE",
"176 346 LINE",
"501 346 LINE",
"508 392 LINE",
"183 392 LINE",
"229 684 LINE",
"589 684 LINE",
"597 730 LINE",
"187 730 LINE",
"71 0 LINE"
);
}
);
width = 600;
}
);
unicode = 0046;
},
{
glyphname = G;
layers = (
{
anchors = (
{
name = bottom;
position = "{260, 0}";
},
{
name = top;
position = "{372, 730}";
}
);
layerId = "9ADF6715-3D0F-493D-8567-18A6FBCFC567";
paths = (
{
closed = 1;
nodes = (
"405 -10 OFFCURVE",
"516 77 OFFCURVE",
"537 210 CURVE SMOOTH",
"567 400 LINE",
"309 400 LINE",
"289 273 LINE",
"397 273 LINE",
"387 210 LINE SMOOTH",
"378 152 OFFCURVE",
"339 120 OFFCURVE",
"279 120 CURVE SMOOTH",
"219 120 OFFCURVE",
"190 152 OFFCURVE",
"199 210 CURVE SMOOTH",
"248 520 LINE SMOOTH",
"258 578 OFFCURVE",
"297 610 OFFCURVE",
"357 610 CURVE SMOOTH",
"417 610 OFFCURVE",
"446 578 OFFCURVE",
"436 520 CURVE",
"586 520 LINE",
"607 653 OFFCURVE",
"524 740 OFFCURVE",
"377 740 CURVE SMOOTH",
"230 740 OFFCURVE",
"119 653 OFFCURVE",
"98 520 CURVE SMOOTH",
"49 210 LINE SMOOTH",
"28 78 OFFCURVE",
"111 -10 OFFCURVE",
"258 -10 CURVE SMOOTH"
);
}
);
width = 600;
},
{
anchors = (
{
name = bottom;
position = "{260, 0}";
},
{
name = top;
position = "{372, 730}";
}
);
layerId = "CCC0BD40-BA8C-414E-B576-CF0B94E6C996";
paths = (
{
closed = 1;
nodes = (
"389 -10 OFFCURVE",
"486 71 OFFCURVE",
"506 200 CURVE SMOOTH",
"533 372 LINE",
"295 372 LINE",
"282 290 LINE",
"430 290 LINE",
"416 200 LINE SMOOTH",
"403 117 OFFCURVE",
"349 70 OFFCURVE",
"271 70 CURVE SMOOTH",
"192 70 OFFCURVE",
"153 117 OFFCURVE",
"166 200 CURVE SMOOTH",
"218 531 LINE SMOOTH",
"231 613 OFFCURVE",
"285 659 OFFCURVE",
"364 659 CURVE SMOOTH",
"442 659 OFFCURVE",
"481 613 OFFCURVE",
"468 530 CURVE",
"558 530 LINE",
"578 659 OFFCURVE",
"508 740 OFFCURVE",
"377 740 CURVE SMOOTH",
"244 740 OFFCURVE",
"149 661 OFFCURVE",
"128 530 CURVE SMOOTH",
"76 200 LINE SMOOTH",
"55 69 OFFCURVE",
"125 -10 OFFCURVE",
"258 -10 CURVE SMOOTH"
);
}
);
width = 600;
},
{
anchors = (
{
name = bottom;
position = "{262, 0}";
},
{
name = top;
position = "{378, 730}";
}
);
layerId = "EDF5EB54-295C-4C90-9A2F-67CD82979CFF";
paths = (
{
closed = 1;
nodes = (
"384 -10 OFFCURVE",
"477 72 OFFCURVE",
"498 200 CURVE SMOOTH",
"522 356 LINE",
"299 356 LINE",
"292 310 LINE",
"465 310 LINE",
"448 200 LINE SMOOTH",
"432 98 OFFCURVE",
"364 35 OFFCURVE",
"268 35 CURVE SMOOTH",
"174 35 OFFCURVE",
"126 94 OFFCURVE",
"141 190 CURVE SMOOTH",
"197 540 LINE SMOOTH",
"212 636 OFFCURVE",
"279 695 OFFCURVE",
"372 695 CURVE SMOOTH",
"467 695 OFFCURVE",
"516 632 OFFCURVE",
"500 530 CURVE",
"550 530 LINE",
"570 658 OFFCURVE",
"503 740 OFFCURVE",
"379 740 CURVE SMOOTH",
"257 740 OFFCURVE",
"166 662 OFFCURVE",
"147 540 CURVE SMOOTH",
"91 190 LINE SMOOTH",
"72 69 OFFCURVE",
"138 -10 OFFCURVE",
"260 -10 CURVE SMOOTH"
);
}
);
width = 600;
}
);
unicode = 0047;
},
{
glyphname = H;
layers = (
{
anchors = (
{
name = top;
position = "{372, 730}";
}
);
layerId = "9ADF6715-3D0F-493D-8567-18A6FBCFC567";
paths = (
{
closed = 1;
nodes = (
"172 0 LINE",
"221 310 LINE",
"389 310 LINE",
"340 0 LINE",
"490 0 LINE",
"606 730 LINE",
"456 730 LINE",
"411 450 LINE",
"243 450 LINE",
"288 730 LINE",
"138 730 LINE",
"22 0 LINE"
);
}
);
width = 600;
},
{
anchors = (
{
name = top;
position = "{372, 730}";
}
);
layerId = "CCC0BD40-BA8C-414E-B576-CF0B94E6C996";
paths = (
{
closed = 1;
nodes = (
"139 0 LINE",
"192 336 LINE",
"426 336 LINE",
"373 0 LINE",
"463 0 LINE",
"579 730 LINE",
"489 730 LINE",
"439 418 LINE",
"205 418 LINE",
"255 730 LINE",
"165 730 LINE",
"49 0 LINE"
);
}
);
width = 600;
},
{
anchors = (
{
name = top;
position = "{372, 730}";
}
);
layerId = "EDF5EB54-295C-4C90-9A2F-67CD82979CFF";
paths = (
{
closed = 1;
nodes = (
"116 0 LINE",
"172 356 LINE",
"452 356 LINE",
"396 0 LINE",
"446 0 LINE",
"562 730 LINE",
"512 730 LINE",
"460 402 LINE",
"180 402 LINE",
"232 730 LINE",
"182 730 LINE",
"66 0 LINE"
);
}
);
width = 600;
}
);
unicode = 0048;
},
{
glyphname = Hbar;
layers = (
{
components = (
{
alignment = -1;
name = H;
}
);
layerId = "9ADF6715-3D0F-493D-8567-18A6FBCFC567";
paths = (
{
closed = 1;
nodes = (
"630 525 LINE",
"645 620 LINE",
"65 620 LINE",
"50 525 LINE"
);
}
);
width = 600;
},
{
components = (
{
alignment = -1;
name = H;
}
);
layerId = "CCC0BD40-BA8C-414E-B576-CF0B94E6C996";
paths = (
{
closed = 1;
nodes = (
"629 525 LINE",
"641 600 LINE",
"62 600 LINE",
"50 525 LINE"
);
}
);
width = 600;
},
{
components = (
{
alignment = -1;
name = H;
}
);
layerId = "EDF5EB54-295C-4C90-9A2F-67CD82979CFF";
paths = (
{
closed = 1;
nodes = (
"632 540 LINE",
"639 584 LINE",
"59 584 LINE",
"52 540 LINE"
);
}
);
width = 600;
}
);
unicode = 0126;
},
{
glyphname = I;
layers = (
{
anchors = (
{
name = bottom;
position = "{256, 0}";
},
{
name = ogonek;
position = "{280, 0}";
},
{
name = top;
position = "{372, 730}";
},
{
name = topleft;
position = "{92, 730}";
}
);
layerId = "9ADF6715-3D0F-493D-8567-18A6FBCFC567";
paths = (
{
closed = 1;
nodes = (
"476 0 LINE",
"497 130 LINE",
"352 130 LINE",
"426 600 LINE",
"571 600 LINE",
"592 730 LINE",
"152 730 LINE",
"131 600 LINE",
"276 600 LINE",
"202 130 LINE",
"57 130 LINE",
"36 0 LINE"
);
}
);
width = 600;
},
{
anchors = (
{
name = bottom;
position = "{256, 0}";
},
{
name = ogonek;
position = "{280, 0}";
},
{
name = top;
position = "{372, 730}";
},
{
name = topleft;
position = "{92, 730}";
}
);
layerId = "CCC0BD40-BA8C-414E-B576-CF0B94E6C996";
paths = (
{
closed = 1;
nodes = (
"451 0 LINE",
"464 82 LINE",
"315 82 LINE",
"405 648 LINE",
"554 648 LINE",
"567 730 LINE",
"177 730 LINE",
"164 648 LINE",
"313 648 LINE",
"223 82 LINE",
"74 82 LINE",
"61 0 LINE"
);
}
);
width = 600;
},
{
anchors = (
{
name = bottom;
position = "{256, 0}";
},
{
name = ogonek;
position = "{280, 0}";
},
{
name = top;
position = "{372, 730}";
},
{
name = topleft;
position = "{92, 730}";
}
);
layerId = "EDF5EB54-295C-4C90-9A2F-67CD82979CFF";
paths = (
{
closed = 1;
nodes = (
"436 0 LINE",
"443 46 LINE",
"289 46 LINE",
"390 684 LINE",
"544 684 LINE",
"552 730 LINE",
"192 730 LINE",
"184 684 LINE",
"340 684 LINE",
"239 46 LINE",
"83 46 LINE",
"76 0 LINE"
);
}
);
width = 600;
}
);
unicode = 0049;
},
{
glyphname = Iogonek;
layers = (
{
components = (
{
name = I;
}
);
layerId = "EDF5EB54-295C-4C90-9A2F-67CD82979CFF";
paths = (
{
closed = 1;
nodes = (
"299 -195 LINE",
"305 -153 LINE",
"241 -153 LINE SMOOTH",
"209 -153 OFFCURVE",
"193 -134 OFFCURVE",
"198 -103 CURVE SMOOTH",
"203 -75 OFFCURVE",
"232 -36 OFFCURVE",
"275 0 CURVE SMOOTH",
"288 10 LINE",
"251 10 LINE",
"194 -27 OFFCURVE",
"156 -74 OFFCURVE",
"149 -115 CURVE SMOOTH",
"141 -165 OFFCURVE",
"171 -195 OFFCURVE",
"226 -195 CURVE"
);
}
);
width = 600;
},
{
components = (
{
name = I;
}
);
layerId = "CCC0BD40-BA8C-414E-B576-CF0B94E6C996";
paths = (
{
closed = 1;
nodes = (
"309 -203 LINE",
"318 -143 LINE",
"258 -143 LINE SMOOTH",
"224 -143 OFFCURVE",
"207 -122 OFFCURVE",
"211 -93 CURVE SMOOTH",
"216 -65 OFFCURVE",
"239 -36 OFFCURVE",
"290 1 CURVE",
"303 10 LINE",
"228 10 LINE",
"158 -34 OFFCURVE",
"130 -72 OFFCURVE",
"124 -110 CURVE SMOOTH",
"115 -164 OFFCURVE",
"157 -203 OFFCURVE",
"231 -203 CURVE SMOOTH"
);
}
);
width = 600;
},
{
components = (
{
name = I;
}
);
layerId = "9ADF6715-3D0F-493D-8567-18A6FBCFC567";
paths = (
{
closed = 1;
nodes = (
"324 -225 LINE",
"341 -120 LINE",
"272 -120 LINE SMOOTH",
"243 -120 OFFCURVE",
"229 -103 OFFCURVE",
"232 -83 CURVE SMOOTH",
"235 -66 OFFCURVE",
"253 -42 OFFCURVE",
"283 -18 CURVE SMOOTH",
"320 11 LINE",
"234 11 LINE",
"161 -19 OFFCURVE",
"110 -68 OFFCURVE",
"103 -115 CURVE SMOOTH",
"92 -180 OFFCURVE",
"135 -225 OFFCURVE",
"216 -225 CURVE SMOOTH"
);
}
);
width = 600;
}
);
unicode = 012E;
},
{
glyphname = J;
layers = (
{
anchors = (
{
name = top;
position = "{504, 730}";
}
);
layerId = "9ADF6715-3D0F-493D-8567-18A6FBCFC567";
paths = (
{
closed = 1;
nodes = (
"383 -10 OFFCURVE",
"487 73 OFFCURVE",
"511 219 CURVE SMOOTH",
"592 730 LINE",
"237 730 LINE",
"215 595 LINE",
"420 595 LINE",
"361 219 LINE SMOOTH",
"351 158 OFFCURVE",
"306 120 OFFCURVE",
"245 120 CURVE SMOOTH",
"183 120 OFFCURVE",
"151 159 OFFCURVE",
"161 221 CURVE",
"11 221 LINE",
"-11 79 OFFCURVE",
"70 -10 OFFCURVE",
"224 -10 CURVE SMOOTH"
);
}
);
width = 600;
},
{
anchors = (
{
name = top;
position = "{432, 730}";
}
);
layerId = "CCC0BD40-BA8C-414E-B576-CF0B94E6C996";
paths = (
{
closed = 1;
nodes = (
"368 -10 OFFCURVE",
"462 70 OFFCURVE",
"484 210 CURVE SMOOTH",
"567 730 LINE",
"272 730 LINE",
"259 648 LINE",
"464 648 LINE",
"394 210 LINE SMOOTH",
"380 121 OFFCURVE",
"322 70 OFFCURVE",
"237 70 CURVE SMOOTH",
"152 70 OFFCURVE",
"110 121 OFFCURVE",
"124 210 CURVE",
"34 210 LINE",
"13 74 OFFCURVE",
"84 -10 OFFCURVE",
"224 -10 CURVE SMOOTH"
);
}
);
width = 600;
},
{
anchors = (
{
name = top;
position = "{504, 730}";
}
);
layerId = "EDF5EB54-295C-4C90-9A2F-67CD82979CFF";
paths = (
{
closed = 1;
nodes = (
"359 -10 OFFCURVE",
"446 66 OFFCURVE",
"468 199 CURVE SMOOTH",
"552 730 LINE",
"275 730 LINE",
"267 683 LINE",
"494 683 LINE",
"418 199 LINE SMOOTH",
"402 98 OFFCURVE",
"333 35 OFFCURVE",
"237 35 CURVE SMOOTH",
"141 35 OFFCURVE",
"91 97 OFFCURVE",
"108 200 CURVE",
"58 200 LINE",
"37 69 OFFCURVE",
"101 -10 OFFCURVE",
"229 -10 CURVE SMOOTH"
);
}
);
width = 600;
}
);
unicode = 004A;
},
{
glyphname = K;
layers = (
{
anchors = (
{
name = bottom;
position = "{256, 0}";
},
{
name = top;
position = "{372, 730}";
}
);
layerId = "9ADF6715-3D0F-493D-8567-18A6FBCFC567";
paths = (
{
closed = 1;
nodes = (
"171 0 LINE",
"220 309 LINE",
"296 309 LINE",
"372 0 LINE",
"531 0 LINE",
"429 372 LINE",
"641 730 LINE",
"478 730 LINE",
"310 447 LINE",
"242 447 LINE",
"287 730 LINE",
"137 730 LINE",
"21 0 LINE"
);
}
);
width = 600;
},
{
anchors = (
{
name = bottom;
position = "{256, 0}";
},
{
name = top;
position = "{372, 730}";
}
);
layerId = "CCC0BD40-BA8C-414E-B576-CF0B94E6C996";
paths = (
{
closed = 1;
nodes = (
"138 0 LINE",
"192 338 LINE",
"300 338 LINE",
"416 0 LINE",
"516 0 LINE",
"385 376 LINE",
"622 730 LINE",
"522 730 LINE",
"310 417 LINE",
"204 417 LINE",
"254 730 LINE",
"164 730 LINE",
"48 0 LINE"
);
}
);
width = 600;
},
{
anchors = (
{
name = bottom;
position = "{256, 0}";
},
{
name = top;
position = "{372, 730}";
}
);
layerId = "EDF5EB54-295C-4C90-9A2F-67CD82979CFF";
paths = (
{
closed = 1;
nodes = (
"116 0 LINE",
"172 356 LINE",
"327 356 LINE",
"440 0 LINE",
"496 0 LINE",
"375 377 LINE",
"602 730 LINE",
"544 730 LINE",
"332 401 LINE",
"180 401 LINE",
"232 730 LINE",
"182 730 LINE",
"66 0 LINE"
);
}
);
width = 600;
}
);
unicode = 004B;
},
{
glyphname = L;
layers = (
{
anchors = (
{
name = bottom;
position = "{296, 0}";
},
{
name = top;
position = "{262, 730}";
}
);
layerId = "9ADF6715-3D0F-493D-8567-18A6FBCFC567";
paths = (
{
closed = 1;
nodes = (
"516 0 LINE",
"538 140 LINE",
"243 140 LINE",
"337 730 LINE",
"187 730 LINE",
"71 0 LINE"
);
}
);
width = 600;
},
{
anchors = (
{
name = bottom;
position = "{296, 0}";
},
{
name = top;
position = "{253, 730}";
}
);
layerId = "CCC0BD40-BA8C-414E-B576-CF0B94E6C996";
paths = (
{
closed = 1;
nodes = (
"511 0 LINE",
"524 82 LINE",
"194 82 LINE",
"297 730 LINE",
"207 730 LINE",
"91 0 LINE"
);
}
);
width = 600;
},
{
anchors = (
{
name = bottom;
position = "{296, 0}";
},
{
name = top;
position = "{238, 730}";
}
);
layerId = "EDF5EB54-295C-4C90-9A2F-67CD82979CFF";
paths = (
{
closed = 1;
nodes = (
"501 0 LINE",
"508 46 LINE",
"153 46 LINE",
"262 730 LINE",
"212 730 LINE",
"96 0 LINE"
);
}
);
width = 600;
}
);
unicode = 004C;
},
{
glyphname = Lslash;
layers = (
{
components = (
{
alignment = -1;
name = L;
transform = "{1, 0, 0, 1, 10, 0}";
}
);
layerId = "9ADF6715-3D0F-493D-8567-18A6FBCFC567";
paths = (
{
closed = 1;
nodes = (
"423 420 LINE",
"445 565 LINE",
"35 370 LINE",
"12 225 LINE"
);
}
);
width = 600;
},
{
components = (
{
alignment = -1;
name = L;
}
);
layerId = "CCC0BD40-BA8C-414E-B576-CF0B94E6C996";
paths = (
{
closed = 1;
nodes = (
"422 480 LINE",
"435 564 LINE",
"25 310 LINE",
"12 226 LINE"
);
}
);
width = 600;
},
{
components = (
{
alignment = -1;
name = L;
transform = "{1, 0, 0, 1, 10, 0}";
}
);
layerId = "EDF5EB54-295C-4C90-9A2F-67CD82979CFF";
paths = (
{
closed = 1;
nodes = (
"424 495 LINE",
"433 552 LINE",
"23 295 LINE",
"14 238 LINE"
);
}
);
width = 600;
}
);
unicode = 0141;
},
{
glyphname = M;
layers = (
{
anchors = (
{
name = bottom;
position = "{256, 0}";
},
{
name = top;
position = "{372, 730}";
}
);
layerId = "CCC0BD40-BA8C-414E-B576-CF0B94E6C996";
paths = (
{
closed = 1;
nodes = (
"120 0 LINE",
"162 265 LINE SMOOTH",
"183 396 OFFCURVE",
"195 582 OFFCURVE",
"199 685 CURVE",
"261 320 LINE",
"356 320 LINE",
"531 685 LINE",
"502 578 OFFCURVE",
"454 389 OFFCURVE",
"434 265 CURVE SMOOTH",
"392 0 LINE",
"480 0 LINE",
"596 730 LINE",
"476 730 LINE",
"366 495 LINE SMOOTH",
"346 451 OFFCURVE",
"327 405 OFFCURVE",
"318 382 CURVE",
"315 405 OFFCURVE",
"309 451 OFFCURVE",
"302 494 CURVE SMOOTH",
"264 730 LINE",
"148 730 LINE",
"32 0 LINE"
);
}
);
width = 600;
},
{
anchors = (
{
name = bottom;
position = "{256, 0}";
},
{
name = top;
position = "{372, 730}";
}
);
layerId = "EDF5EB54-295C-4C90-9A2F-67CD82979CFF";
paths = (
{
closed = 1;
nodes = (
"97 0 LINE",
"167 440 LINE SMOOTH",
"183 542 OFFCURVE",
"197 651 OFFCURVE",
"203 705 CURVE",
"281 325 LINE",
"334 325 LINE",
"532 705 LINE",
"521 651 OFFCURVE",
"501 542 OFFCURVE",
"485 440 CURVE SMOOTH",
"415 0 LINE",
"464 0 LINE",
"580 730 LINE",
"504 730 LINE",
"358 450 LINE SMOOTH",
"343 420 OFFCURVE",
"322 381 OFFCURVE",
"312 359 CURVE",
"308 381 OFFCURVE",
"301 421 OFFCURVE",
"294 450 CURVE SMOOTH",
"237 730 LINE",
"164 730 LINE",
"48 0 LINE"
);
}
);
width = 600;
},
{
anchors = (
{
name = bottom;
position = "{256, 0}";
},
{
name = top;
position = "{372, 730}";
}
);
layerId = "9ADF6715-3D0F-493D-8567-18A6FBCFC567";
paths = (
{
closed = 1;
nodes = (
"135 0 LINE",
"167 200 LINE SMOOTH",
"191 353 OFFCURVE",
"204 541 OFFCURVE",
"206 640 CURVE",
"242 310 LINE",
"369 310 LINE",
"505 640 LINE",
"477 537 OFFCURVE",
"432 346 OFFCURVE",
"409 200 CURVE SMOOTH",
"377 0 LINE",
"514 0 LINE",
"630 730 LINE",
"458 730 LINE",
"355 500 LINE SMOOTH",
"334 452 OFFCURVE",
"321 414 OFFCURVE",
"317 399 CURVE",
"318 414 OFFCURVE",
"317 452 OFFCURVE",
"310 500 CURVE SMOOTH",
"280 730 LINE",
"114 730 LINE",
"-2 0 LINE"
);
}
);
width = 600;
}
);
unicode = 004D;
},
{
glyphname = N;
layers = (
{
anchors = (
{
name = bottom;
position = "{256, 0}";
},
{
name = top;
position = "{372, 730}";
}
);
layerId = "9ADF6715-3D0F-493D-8567-18A6FBCFC567";
paths = (
{
closed = 1;
nodes = (
"148 0 LINE",
"199 320 LINE SMOOTH",
"210 389 OFFCURVE",
"219 501 OFFCURVE",
"223 565 CURVE",
"323 0 LINE",
"496 0 LINE",
"612 730 LINE",
"480 730 LINE",
"432 430 LINE SMOOTH",
"421 361 OFFCURVE",
"411 238 OFFCURVE",
"406 165 CURVE",
"305 730 LINE",
"132 730 LINE",
"16 0 LINE"
);
}
);
width = 600;
},
{
anchors = (
{
name = bottom;
position = "{256, 0}";
},
{
name = top;
position = "{372, 730}";
}
);
layerId = "CCC0BD40-BA8C-414E-B576-CF0B94E6C996";
paths = (
{
closed = 1;
nodes = (
"133 0 LINE",
"198 410 LINE SMOOTH",
"210 483 OFFCURVE",
"219 576 OFFCURVE",
"223 625 CURVE",
"347 0 LINE",
"466 0 LINE",
"582 730 LINE",
"495 730 LINE",
"430 320 LINE SMOOTH",
"418 247 OFFCURVE",
"409 154 OFFCURVE",
"406 105 CURVE",
"281 730 LINE",
"162 730 LINE",
"46 0 LINE"
);
}
);
width = 600;
},
{
anchors = (
{
name = bottom;
position = "{256, 0}";
},
{
name = top;
position = "{372, 730}";
}
);
layerId = "EDF5EB54-295C-4C90-9A2F-67CD82979CFF";
paths = (
{
closed = 1;
nodes = (
"114 0 LINE",
"203 560 LINE SMOOTH",
"211 611 OFFCURVE",
"217 656 OFFCURVE",
"219 675 CURVE",
"378 0 LINE",
"446 0 LINE",
"562 730 LINE",
"514 730 LINE",
"425 170 LINE SMOOTH",
"423 155 OFFCURVE",
"415 95 OFFCURVE",
"411 55 CURVE",
"249 730 LINE",
"182 730 LINE",
"66 0 LINE"
);
}
);
width = 600;
}
);
unicode = 004E;
},
{
glyphname = Eng;
layers = (
{
layerId = "9ADF6715-3D0F-493D-8567-18A6FBCFC567";
paths = (
{
closed = 1;
nodes = (
"227 -180 LINE SMOOTH",
"368 -180 OFFCURVE",
"481 -96 OFFCURVE",
"500 25 CURVE SMOOTH",
"612 730 LINE",
"480 730 LINE",
"447 526 LINE SMOOTH",
"436 457 OFFCURVE",
"427 330 OFFCURVE",
"422 257 CURVE",
"302 730 LINE",
"132 730 LINE",
"16 0 LINE",
"148 0 LINE",
"199 320 LINE SMOOTH",
"210 389 OFFCURVE",
"219 501 OFFCURVE",
"223 565 CURVE",
"352 41 LINE",
"345 -7 OFFCURVE",
"311 -35 OFFCURVE",
"260 -35 CURVE SMOOTH",
"200 -35 LINE",
"177 -180 LINE"
);
}
);
width = 600;
},
{
layerId = "CCC0BD40-BA8C-414E-B576-CF0B94E6C996";
paths = (
{
closed = 1;
nodes = (
"232 -180 LINE SMOOTH",
"356 -180 OFFCURVE",
"449 -103 OFFCURVE",
"468 15 CURVE SMOOTH",
"582 730 LINE",
"495 730 LINE",
"442 397 LINE SMOOTH",
"430 324 OFFCURVE",
"422 229 OFFCURVE",
"418 179 CURVE",
"280 730 LINE",
"162 730 LINE",
"46 0 LINE",
"133 0 LINE",
"198 410 LINE SMOOTH",
"210 483 OFFCURVE",
"219 576 OFFCURVE",
"223 625 CURVE",
"378 15 LINE",
"367 -55 OFFCURVE",
"316 -98 OFFCURVE",
"245 -98 CURVE SMOOTH",
"180 -98 LINE",
"167 -180 LINE"
);
}
);
width = 600;
},
{
layerId = "EDF5EB54-295C-4C90-9A2F-67CD82979CFF";
paths = (
{
closed = 1;
nodes = (
"234 -180 LINE SMOOTH",
"352 -180 OFFCURVE",
"429 -115 OFFCURVE",
"447 0 CURVE SMOOTH",
"563 730 LINE",
"515 730 LINE",
"434 219 LINE SMOOTH",
"426 168 OFFCURVE",
"420 118 OFFCURVE",
"418 94 CURVE",
"249 730 LINE",
"181 730 LINE",
"65 0 LINE",
"113 0 LINE",
"202 560 LINE SMOOTH",
"210 611 OFFCURVE",
"216 656 OFFCURVE",
"218 675 CURVE",
"397 0 LINE",
"383 -88 OFFCURVE",
"330 -135 OFFCURVE",
"242 -135 CURVE SMOOTH",
"162 -135 LINE",
"154 -180 LINE"
);
}
);
width = 600;
}
);
unicode = 014A;
},
{
glyphname = O;
layers = (
{
anchors = (
{
name = bottom;
position = "{256, 0}";
},
{
name = center;
position = "{314, 365}";
},
{
name = horn;
position = "{387, 700}";
},
{
name = ogonek;
position = "{305, 0}";
},
{
name = top;
position = "{372, 730}";
},
{
name = topleft;
position = "{92, 730}";
},
{
name = topright;
position = "{652, 730}";
}
);
layerId = "EDF5EB54-295C-4C90-9A2F-67CD82979CFF";
paths = (
{
closed = 1;
nodes = (
"373 -10 OFFCURVE",
"462 68 OFFCURVE",
"481 190 CURVE SMOOTH",
"537 540 LINE SMOOTH",
"556 661 OFFCURVE",
"491 740 OFFCURVE",
"373 740 CURVE SMOOTH",
"255 740 OFFCURVE",
"166 661 OFFCURVE",
"147 540 CURVE SMOOTH",
"91 190 LINE SMOOTH",
"72 68 OFFCURVE",
"136 -10 OFFCURVE",
"254 -10 CURVE SMOOTH"
);
},
{
closed = 1;
nodes = (
"169 34 OFFCURVE",
"125 91 OFFCURVE",
"141 190 CURVE SMOOTH",
"197 540 LINE SMOOTH",
"212 638 OFFCURVE",
"275 696 OFFCURVE",
"366 696 CURVE SMOOTH",
"457 696 OFFCURVE",
"502 638 OFFCURVE",
"487 540 CURVE SMOOTH",
"431 190 LINE SMOOTH",
"415 91 OFFCURVE",
"353 34 OFFCURVE",
"261 34 CURVE SMOOTH"
);
}
);
width = 600;
},
{
anchors = (
{
name = bottom;
position = "{256, 0}";
},
{
name = center;
position = "{314, 365}";
},
{
name = horn;
position = "{387, 700}";
},
{
name = ogonek;
position = "{305, 0}";
},
{
name = top;
position = "{372, 730}";
},
{
name = topleft;
position = "{92, 730}";
},
{
name = topright;
position = "{652, 730}";
}
);
layerId = "CCC0BD40-BA8C-414E-B576-CF0B94E6C996";
paths = (
{
closed = 1;
nodes = (
"385 -10 OFFCURVE",
"479 69 OFFCURVE",
"500 200 CURVE SMOOTH",
"552 531 LINE SMOOTH",
"572 661 OFFCURVE",
"504 740 OFFCURVE",
"373 740 CURVE SMOOTH",
"242 740 OFFCURVE",
"149 661 OFFCURVE",
"128 530 CURVE SMOOTH",
"76 200 LINE SMOOTH",
"55 69 OFFCURVE",
"123 -10 OFFCURVE",
"254 -10 CURVE SMOOTH"
);
},
{
closed = 1;
nodes = (
"189 71 OFFCURVE",
"153 117 OFFCURVE",
"166 200 CURVE SMOOTH",
"218 530 LINE SMOOTH",
"231 613 OFFCURVE",
"282 659 OFFCURVE",
"360 659 CURVE SMOOTH",
"438 659 OFFCURVE",
"475 613 OFFCURVE",
"462 530 CURVE SMOOTH",
"410 200 LINE SMOOTH",
"397 117 OFFCURVE",
"345 71 OFFCURVE",
"267 71 CURVE SMOOTH"
);
}
);
width = 600;
},
{
anchors = (
{
name = bottom;
position = "{256, 0}";
},
{
name = center;
position = "{314, 365}";
},
{
name = horn;
position = "{387, 700}";
},
{
name = ogonek;
position = "{305, 0}";
},
{
name = top;
position = "{372, 730}";
},
{
name = topleft;
position = "{92, 730}";
},
{
name = topright;
position = "{652, 730}";
}
);
layerId = "9ADF6715-3D0F-493D-8567-18A6FBCFC567";
paths = (
{
closed = 1;
nodes = (
"401 -10 OFFCURVE",
"508 78 OFFCURVE",
"529 210 CURVE SMOOTH",
"578 520 LINE SMOOTH",
"599 652 OFFCURVE",
"520 740 OFFCURVE",
"373 740 CURVE SMOOTH",
"226 740 OFFCURVE",
"119 652 OFFCURVE",
"98 520 CURVE SMOOTH",
"49 210 LINE SMOOTH",
"28 78 OFFCURVE",
"107 -10 OFFCURVE",
"254 -10 CURVE SMOOTH"
);
},
{
closed = 1;
nodes = (
"215 120 OFFCURVE",
"190 152 OFFCURVE",
"199 210 CURVE SMOOTH",
"248 520 LINE SMOOTH",
"257 578 OFFCURVE",
"292 610 OFFCURVE",
"353 610 CURVE SMOOTH",
"414 610 OFFCURVE",
"437 578 OFFCURVE",
"428 520 CURVE SMOOTH",
"379 210 LINE SMOOTH",
"370 152 OFFCURVE",
"335 120 OFFCURVE",
"275 120 CURVE SMOOTH"
);
}
);
width = 600;
}
);
unicode = 004F;
},
{
glyphname = Ohorn;
layers = (
{
anchors = (
{
name = top;
position = "{362, 730}";
}
);
components = (
{
name = O;
}
);
layerId = "9ADF6715-3D0F-493D-8567-18A6FBCFC567";
paths = (
{
closed = 1;
nodes = (
"492 600 LINE SMOOTH",
"579 600 OFFCURVE",
"646 654 OFFCURVE",
"658 735 CURVE SMOOTH",
"670 810 LINE",
"550 810 LINE",
"538 735 LINE SMOOTH",
"535 713 OFFCURVE",
"520 700 OFFCURVE",
"498 700 CURVE SMOOTH",
"448 700 LINE",
"432 600 LINE"
);
}
);
width = 600;
},
{
anchors = (
{
name = top;
position = "{362, 730}";
}
);
components = (
{
name = O;
}
);
layerId = "CCC0BD40-BA8C-414E-B576-CF0B94E6C996";
paths = (
{
closed = 1;
nodes = (
"482 635 LINE SMOOTH",
"546 635 OFFCURVE",
"592 672 OFFCURVE",
"602 730 CURVE SMOOTH",
"614 810 LINE",
"539 810 LINE",
"527 735 LINE SMOOTH",
"524 714 OFFCURVE",
"508 700 OFFCURVE",
"487 700 CURVE SMOOTH",
"467 700 LINE",
"457 635 LINE"
);
}
);
width = 600;
},
{
anchors = (
{
name = top;
position = "{390, 730}";
}
);
components = (
{
name = O;
}
);
layerId = "EDF5EB54-295C-4C90-9A2F-67CD82979CFF";
paths = (
{
closed = 1;
nodes = (
"499 665 LINE SMOOTH",
"550 665 OFFCURVE",
"589 699 OFFCURVE",
"597 750 CURVE SMOOTH",
"607 810 LINE",
"567 810 LINE",
"557 750 LINE SMOOTH",
"552 720 OFFCURVE",
"532 700 OFFCURVE",
"505 700 CURVE SMOOTH",
"464 700 LINE",
"458 665 LINE"
);
}
);
width = 600;
}
);
unicode = 01A0;
},
{
glyphname = Oogonek;
layers = (
{
anchors = (
{
name = horn;
position = "{387, 700}";
},
{
name = top;
position = "{372, 730}";
}
);
layerId = "9ADF6715-3D0F-493D-8567-18A6FBCFC567";
paths = (
{
closed = 1;
nodes = (
"383 -225 LINE",
"400 -120 LINE",
"331 -120 LINE SMOOTH",
"302 -120 OFFCURVE",
"288 -103 OFFCURVE",
"291 -82 CURVE SMOOTH",
"294 -65 OFFCURVE",
"310 -38 OFFCURVE",
"340 -17 CURVE SMOOTH",
"394 21 LINE",
"464 58 OFFCURVE",
"517 127 OFFCURVE",
"530 210 CURVE SMOOTH",
"579 520 LINE SMOOTH",
"600 652 OFFCURVE",
"521 740 OFFCURVE",
"374 740 CURVE SMOOTH",
"227 740 OFFCURVE",
"120 652 OFFCURVE",
"99 520 CURVE SMOOTH",
"50 210 LINE SMOOTH",
"29 78 OFFCURVE",
"108 -10 OFFCURVE",
"255 -10 CURVE SMOOTH",
"288 -10 OFFCURVE",
"307 11 OFFCURVE",
"308 21 CURVE",
"236 -9 OFFCURVE",
"169 -68 OFFCURVE",
"162 -115 CURVE SMOOTH",
"151 -180 OFFCURVE",
"194 -225 OFFCURVE",
"275 -225 CURVE SMOOTH"
);
},
{
closed = 1;
nodes = (
"216 120 OFFCURVE",
"191 152 OFFCURVE",
"200 210 CURVE SMOOTH",
"249 520 LINE SMOOTH",
"259 578 OFFCURVE",
"293 610 OFFCURVE",
"354 610 CURVE SMOOTH",
"415 610 OFFCURVE",
"439 578 OFFCURVE",
"429 520 CURVE SMOOTH",
"380 210 LINE SMOOTH",
"371 152 OFFCURVE",
"336 120 OFFCURVE",
"276 120 CURVE SMOOTH"
);
}
);
width = 600;
},
{
anchors = (
{
name = horn;
position = "{387, 700}";
},
{
name = top;
position = "{372, 730}";
}
);
layerId = "EDF5EB54-295C-4C90-9A2F-67CD82979CFF";
paths = (
{
closed = 1;
nodes = (
"367 -195 LINE",
"374 -153 LINE",
"310 -153 LINE SMOOTH",
"278 -153 OFFCURVE",
"262 -134 OFFCURVE",
"267 -103 CURVE SMOOTH",
"271 -75 OFFCURVE",
"300 -33 OFFCURVE",
"344 2 CURVE SMOOTH",
"355 10 LINE",
"422 45 OFFCURVE",
"468 105 OFFCURVE",
"481 190 CURVE SMOOTH",
"537 540 LINE SMOOTH",
"556 661 OFFCURVE",
"491 740 OFFCURVE",
"373 740 CURVE SMOOTH",
"255 740 OFFCURVE",
"166 661 OFFCURVE",
"147 540 CURVE SMOOTH",
"91 190 LINE SMOOTH",
"72 68 OFFCURVE",
"136 -10 OFFCURVE",
"254 -10 CURVE SMOOTH",
"265 -10 OFFCURVE",
"284 -9 OFFCURVE",
"295 -6 CURVE",
"252 -39 OFFCURVE",
"223 -80 OFFCURVE",
"218 -115 CURVE SMOOTH",
"210 -165 OFFCURVE",
"239 -195 OFFCURVE",
"294 -195 CURVE SMOOTH"
);
},
{
closed = 1;
nodes = (
"169 34 OFFCURVE",
"125 91 OFFCURVE",
"141 190 CURVE SMOOTH",
"197 540 LINE SMOOTH",
"212 638 OFFCURVE",
"275 696 OFFCURVE",
"366 696 CURVE SMOOTH",
"457 696 OFFCURVE",
"502 638 OFFCURVE",
"487 540 CURVE SMOOTH",
"431 190 LINE SMOOTH",
"415 91 OFFCURVE",
"353 34 OFFCURVE",
"261 34 CURVE SMOOTH"
);
}
);
width = 600;
},
{
anchors = (
{
name = horn;
position = "{387, 700}";
},
{
name = top;
position = "{372, 730}";
}
);
layerId = "CCC0BD40-BA8C-414E-B576-CF0B94E6C996";
paths = (
{
closed = 1;
nodes = (
"381 -203 LINE",
"390 -143 LINE",
"330 -143 LINE SMOOTH",
"296 -143 OFFCURVE",
"279 -122 OFFCURVE",
"283 -93 CURVE SMOOTH",
"288 -65 OFFCURVE",
"307 -36 OFFCURVE",
"357 1 CURVE SMOOTH",
"390 25 LINE",
"448 60 OFFCURVE",
"487 121 OFFCURVE",
"500 200 CURVE SMOOTH",
"552 531 LINE SMOOTH",
"573 661 OFFCURVE",
"504 740 OFFCURVE",
"373 740 CURVE SMOOTH",
"242 740 OFFCURVE",
"149 661 OFFCURVE",
"128 530 CURVE SMOOTH",
"76 200 LINE SMOOTH",
"55 69 OFFCURVE",
"123 -10 OFFCURVE",
"254 -10 CURVE SMOOTH",
"258 -10 OFFCURVE",
"263 -10 OFFCURVE",
"267 -10 CURVE",
"226 -45 OFFCURVE",
"200 -82 OFFCURVE",
"196 -110 CURVE SMOOTH",
"187 -164 OFFCURVE",
"229 -203 OFFCURVE",
"303 -203 CURVE SMOOTH"
);
},
{
closed = 1;
nodes = (
"189 71 OFFCURVE",
"153 117 OFFCURVE",
"166 200 CURVE SMOOTH",
"218 530 LINE SMOOTH",
"231 613 OFFCURVE",
"282 659 OFFCURVE",
"360 659 CURVE SMOOTH",
"438 659 OFFCURVE",
"475 613 OFFCURVE",
"462 530 CURVE SMOOTH",
"410 200 LINE SMOOTH",
"397 117 OFFCURVE",
"345 71 OFFCURVE",
"267 71 CURVE SMOOTH"
);
}
);
width = 600;
}
);
unicode = 01EA;
},
{
glyphname = Oslash;
layers = (
{
anchors = (
{
name = bottom;
position = "{256, 0}";
},
{
name = horn;
position = "{392, 730}";
},
{
name = top;
position = "{372, 730}";
}
);
layerId = "9ADF6715-3D0F-493D-8567-18A6FBCFC567";
paths = (
{
closed = 1;
nodes = (
"83 -40 LINE",
"660 750 LINE",
"542 750 LINE",
"-35 -40 LINE"
);
},
{
closed = 1;
nodes = (
"401 -10 OFFCURVE",
"508 78 OFFCURVE",
"529 210 CURVE SMOOTH",
"578 520 LINE SMOOTH",
"599 652 OFFCURVE",
"520 740 OFFCURVE",
"373 740 CURVE SMOOTH",
"226 740 OFFCURVE",
"119 652 OFFCURVE",
"98 520 CURVE SMOOTH",
"49 210 LINE SMOOTH",
"28 78 OFFCURVE",
"107 -10 OFFCURVE",
"254 -10 CURVE SMOOTH"
);
},
{
closed = 1;
nodes = (
"214 120 OFFCURVE",
"185 152 OFFCURVE",
"194 210 CURVE SMOOTH",
"243 520 LINE SMOOTH",
"253 578 OFFCURVE",
"292 610 OFFCURVE",
"353 610 CURVE SMOOTH",
"414 610 OFFCURVE",
"443 578 OFFCURVE",
"433 520 CURVE SMOOTH",
"384 210 LINE SMOOTH",
"375 152 OFFCURVE",
"336 120 OFFCURVE",
"275 120 CURVE SMOOTH"
);
}
);
width = 600;
},
{
anchors = (
{
name = bottom;
position = "{256, 0}";
},
{
name = horn;
position = "{392, 730}";
},
{
name = top;
position = "{372, 730}";
}
);
layerId = "CCC0BD40-BA8C-414E-B576-CF0B94E6C996";
paths = (
{
closed = 1;
nodes = (
"71 -40 LINE",
"640 750 LINE",
"554 750 LINE",
"-15 -40 LINE"
);
},
{
closed = 1;
nodes = (
"385 -10 OFFCURVE",
"479 69 OFFCURVE",
"500 200 CURVE SMOOTH",
"552 531 LINE SMOOTH",
"572 661 OFFCURVE",
"504 740 OFFCURVE",
"373 740 CURVE SMOOTH",
"242 740 OFFCURVE",
"149 661 OFFCURVE",
"128 530 CURVE SMOOTH",
"76 200 LINE SMOOTH",
"55 69 OFFCURVE",
"123 -10 OFFCURVE",
"254 -10 CURVE SMOOTH"
);
},
{
closed = 1;
nodes = (
"189 71 OFFCURVE",
"153 117 OFFCURVE",
"166 200 CURVE SMOOTH",
"218 530 LINE SMOOTH",
"231 613 OFFCURVE",
"282 659 OFFCURVE",
"360 659 CURVE SMOOTH",
"438 659 OFFCURVE",
"475 613 OFFCURVE",
"462 530 CURVE SMOOTH",
"410 200 LINE SMOOTH",
"397 117 OFFCURVE",
"345 71 OFFCURVE",
"267 71 CURVE SMOOTH"
);
}
);
width = 600;
},
{
anchors = (
{
name = bottom;
position = "{256, 0}";
},
{
name = horn;
position = "{392, 730}";
},
{
name = top;
position = "{372, 730}";
}
);
layerId = "EDF5EB54-295C-4C90-9A2F-67CD82979CFF";
paths = (
{
closed = 1;
nodes = (
"50 -40 LINE",
"625 750 LINE",
"575 750 LINE",
"0 -40 LINE"
);
},
{
closed = 1;
nodes = (
"373 -10 OFFCURVE",
"461 68 OFFCURVE",
"481 190 CURVE SMOOTH",
"537 540 LINE SMOOTH",
"556 661 OFFCURVE",
"491 740 OFFCURVE",
"373 740 CURVE SMOOTH",
"255 740 OFFCURVE",
"166 661 OFFCURVE",
"147 540 CURVE SMOOTH",
"91 190 LINE SMOOTH",
"71 68 OFFCURVE",
"136 -10 OFFCURVE",
"254 -10 CURVE SMOOTH"
);
},
{
closed = 1;
nodes = (
"169 34 OFFCURVE",
"125 91 OFFCURVE",
"141 190 CURVE SMOOTH",
"197 540 LINE SMOOTH",
"213 638 OFFCURVE",
"275 696 OFFCURVE",
"366 696 CURVE SMOOTH",
"457 696 OFFCURVE",
"503 638 OFFCURVE",
"487 540 CURVE SMOOTH",
"431 190 LINE SMOOTH",
"415 91 OFFCURVE",
"353 34 OFFCURVE",
"261 34 CURVE SMOOTH"
);
}
);
width = 600;
}
);
unicode = 00D8;
},
{
glyphname = OE;
layers = (
{
layerId = "9ADF6715-3D0F-493D-8567-18A6FBCFC567";
paths = (
{
closed = 1;
nodes = (
"202 -4 OFFCURVE",
"243 47 OFFCURVE",
"255 86 CURVE",
"260 86 LINE",
"246 0 LINE",
"536 0 LINE",
"556 126 LINE",
"395 126 LINE",
"424 311 LINE",
"560 311 LINE",
"580 437 LINE",
"444 437 LINE",
"471 605 LINE",
"632 605 LINE",
"652 730 LINE",
"362 730 LINE",
"349 650 LINE",
"344 650 LINE",
"345 689 OFFCURVE",
"320 740 OFFCURVE",
"248 740 CURVE SMOOTH",
"157 740 OFFCURVE",
"91 666 OFFCURVE",
"72 541 CURVE SMOOTH",
"17 195 LINE SMOOTH",
"-3 70 OFFCURVE",
"39 -4 OFFCURVE",
"130 -4 CURVE SMOOTH"
);
},
{
closed = 1;
nodes = (
"167 121 OFFCURVE",
"150 149 OFFCURVE",
"157 195 CURVE SMOOTH",
"212 541 LINE SMOOTH",
"219 587 OFFCURVE",
"245 615 OFFCURVE",
"280 615 CURVE SMOOTH",
"316 615 OFFCURVE",
"333 588 OFFCURVE",
"326 541 CURVE SMOOTH",
"271 195 LINE SMOOTH",
"263 148 OFFCURVE",
"238 121 OFFCURVE",
"202 121 CURVE SMOOTH"
);
}
);
width = 600;
},
{
layerId = "CCC0BD40-BA8C-414E-B576-CF0B94E6C996";
paths = (
{
closed = 1;
nodes = (
"218 -10 OFFCURVE",
"261 41 OFFCURVE",
"274 80 CURVE",
"279 80 LINE",
"266 0 LINE",
"531 0 LINE",
"544 82 LINE",
"367 82 LINE",
"407 336 LINE",
"559 336 LINE",
"572 418 LINE",
"420 418 LINE",
"457 648 LINE",
"634 648 LINE",
"647 730 LINE",
"382 730 LINE",
"369 650 LINE",
"364 650 LINE",
"364 689 OFFCURVE",
"337 740 OFFCURVE",
"268 740 CURVE SMOOTH",
"172 740 OFFCURVE",
"102 667 OFFCURVE",
"83 550 CURVE SMOOTH",
"25 180 LINE SMOOTH",
"6 63 OFFCURVE",
"53 -10 OFFCURVE",
"149 -10 CURVE SMOOTH"
);
},
{
closed = 1;
nodes = (
"131 70 OFFCURVE",
"104 112 OFFCURVE",
"115 180 CURVE SMOOTH",
"173 550 LINE SMOOTH",
"184 618 OFFCURVE",
"225 660 OFFCURVE",
"281 660 CURVE SMOOTH",
"337 660 OFFCURVE",
"364 618 OFFCURVE",
"353 550 CURVE SMOOTH",
"295 180 LINE SMOOTH",
"284 112 OFFCURVE",
"243 70 OFFCURVE",
"187 70 CURVE SMOOTH"
);
}
);
width = 600;
},
{
layerId = "EDF5EB54-295C-4C90-9A2F-67CD82979CFF";
paths = (
{
closed = 1;
nodes = (
"219 -10 OFFCURVE",
"267 41 OFFCURVE",
"284 80 CURVE",
"289 80 LINE",
"276 0 LINE",
"525 0 LINE",
"533 50 LINE",
"339 50 LINE",
"387 352 LINE",
"545 352 LINE",
"553 402 LINE",
"395 402 LINE",
"439 680 LINE",
"633 680 LINE",
"641 730 LINE",
"392 730 LINE",
"379 650 LINE",
"374 650 LINE",
"370 689 OFFCURVE",
"338 740 OFFCURVE",
"269 740 CURVE SMOOTH",
"178 740 OFFCURVE",
"101 664 OFFCURVE",
"84 557 CURVE SMOOTH",
"23 173 LINE SMOOTH",
"6 66 OFFCURVE",
"59 -10 OFFCURVE",
"150 -10 CURVE SMOOTH"
);
},
{
closed = 1;
nodes = (
"102 40 OFFCURVE",
"66 94 OFFCURVE",
"78 173 CURVE SMOOTH",
"139 557 LINE SMOOTH",
"152 636 OFFCURVE",
"205 690 OFFCURVE",
"272 690 CURVE SMOOTH",
"338 690 OFFCURVE",
"377 638 OFFCURVE",
"364 557 CURVE SMOOTH",
"303 173 LINE SMOOTH",
"291 92 OFFCURVE",
"235 40 OFFCURVE",
"169 40 CURVE SMOOTH"
);
}
);
width = 600;
}
);
unicode = 0152;
},
{
glyphname = P;
layers = (
{
anchors = (
{
name = top;
position = "{372, 730}";
}
);
layerId = "9ADF6715-3D0F-493D-8567-18A6FBCFC567";
paths = (
{
closed = 1;
nodes = (
"172 0 LINE",
"214 266 LINE",
"313 266 LINE SMOOTH",
"466 266 OFFCURVE",
"583 359 OFFCURVE",
"605 498 CURVE SMOOTH",
"627 638 OFFCURVE",
"541 730 OFFCURVE",
"387 730 CURVE SMOOTH",
"138 730 LINE",
"22 0 LINE"
);
},
{
closed = 1;
nodes = (
"266 595 LINE",
"365 595 LINE SMOOTH",
"429 595 OFFCURVE",
"464 557 OFFCURVE",
"455 498 CURVE SMOOTH",
"446 439 OFFCURVE",
"399 401 OFFCURVE",
"335 401 CURVE SMOOTH",
"236 401 LINE"
);
}
);
width = 600;
},
{
anchors = (
{
name = top;
position = "{372, 730}";
}
);
layerId = "CCC0BD40-BA8C-414E-B576-CF0B94E6C996";
paths = (
{
closed = 1;
nodes = (
"138 0 LINE",
"186 300 LINE",
"331 300 LINE SMOOTH",
"467 300 OFFCURVE",
"567 384 OFFCURVE",
"588 515 CURVE SMOOTH",
"608 646 OFFCURVE",
"535 730 OFFCURVE",
"399 730 CURVE SMOOTH",
"164 730 LINE",
"48 0 LINE"
);
},
{
closed = 1;
nodes = (
"241 649 LINE",
"386 649 LINE SMOOTH",
"465 649 OFFCURVE",
"508 597 OFFCURVE",
"495 515 CURVE SMOOTH",
"482 433 OFFCURVE",
"422 381 OFFCURVE",
"343 381 CURVE SMOOTH",
"198 381 LINE"
);
}
);
width = 600;
},
{
anchors = (
{
name = top;
position = "{372, 730}";
}
);
layerId = "EDF5EB54-295C-4C90-9A2F-67CD82979CFF";
paths = (
{
closed = 1;
nodes = (
"116 0 LINE",
"167 324 LINE",
"332 324 LINE SMOOTH",
"459 324 OFFCURVE",
"555 404 OFFCURVE",
"574 527 CURVE SMOOTH",
"594 650 OFFCURVE",
"525 730 OFFCURVE",
"397 730 CURVE SMOOTH",
"182 730 LINE",
"66 0 LINE"
);
},
{
closed = 1;
nodes = (
"224 684 LINE",
"389 684 LINE SMOOTH",
"487 684 OFFCURVE",
"540 624 OFFCURVE",
"524 527 CURVE SMOOTH",
"509 431 OFFCURVE",
"437 370 OFFCURVE",
"340 370 CURVE SMOOTH",
"175 370 LINE"
);
}
);
width = 600;
}
);
unicode = 0050;
},
{
glyphname = Thorn;
layers = (
{
layerId = "9ADF6715-3D0F-493D-8567-18A6FBCFC567";
paths = (
{
closed = 1;
nodes = (
"176 0 LINE",
"202 165 LINE",
"322 165 LINE SMOOTH",
"465 165 OFFCURVE",
"565 246 OFFCURVE",
"586 380 CURVE SMOOTH",
"608 515 OFFCURVE",
"534 595 OFFCURVE",
"390 595 CURVE SMOOTH",
"270 595 LINE",
"292 730 LINE",
"142 730 LINE",
"26 0 LINE"
);
},
{
closed = 1;
nodes = (
"250 470 LINE",
"345 470 LINE SMOOTH",
"413 470 OFFCURVE",
"445 438 OFFCURVE",
"436 380 CURVE SMOOTH",
"427 322 OFFCURVE",
"385 290 OFFCURVE",
"317 290 CURVE SMOOTH",
"222 290 LINE"
);
}
);
width = 600;
},
{
layerId = "CCC0BD40-BA8C-414E-B576-CF0B94E6C996";
paths = (
{
closed = 1;
nodes = (
"136 0 LINE",
"165 180 LINE",
"318 180 LINE SMOOTH",
"450 180 OFFCURVE",
"547 258 OFFCURVE",
"566 380 CURVE SMOOTH",
"585 500 OFFCURVE",
"512 580 OFFCURVE",
"381 580 CURVE SMOOTH",
"228 580 LINE",
"252 730 LINE",
"162 730 LINE",
"46 0 LINE"
);
},
{
closed = 1;
nodes = (
"215 500 LINE",
"368 500 LINE SMOOTH",
"444 500 OFFCURVE",
"485 454 OFFCURVE",
"473 380 CURVE SMOOTH",
"461 306 OFFCURVE",
"407 260 OFFCURVE",
"330 260 CURVE SMOOTH",
"177 260 LINE"
);
}
);
width = 600;
},
{
layerId = "EDF5EB54-295C-4C90-9A2F-67CD82979CFF";
paths = (
{
closed = 1;
nodes = (
"111 0 LINE",
"142 195 LINE",
"320 195 LINE SMOOTH",
"441 195 OFFCURVE",
"528 266 OFFCURVE",
"546 380 CURVE SMOOTH",
"564 494 OFFCURVE",
"499 565 OFFCURVE",
"378 565 CURVE SMOOTH",
"200 565 LINE",
"227 730 LINE",
"177 730 LINE",
"61 0 LINE"
);
},
{
closed = 1;
nodes = (
"193 520 LINE",
"371 520 LINE SMOOTH",
"462 520 OFFCURVE",
"510 467 OFFCURVE",
"496 380 CURVE SMOOTH",
"483 294 OFFCURVE",
"418 241 OFFCURVE",
"327 241 CURVE SMOOTH",
"149 241 LINE"
);
}
);
width = 600;
}
);
unicode = 00DE;
},
{
glyphname = Q;
layers = (
{
anchors = (
{
name = top;
position = "{372, 730}";
}
);
layerId = "9ADF6715-3D0F-493D-8567-18A6FBCFC567";
paths = (
{
closed = 1;
nodes = (
"479 -180 LINE",
"362 77 LINE",
"345 3 LINE",
"447 29 OFFCURVE",
"513 106 OFFCURVE",
"529 210 CURVE SMOOTH",
"578 520 LINE SMOOTH",
"599 652 OFFCURVE",
"517 740 OFFCURVE",
"373 740 CURVE SMOOTH",
"228 740 OFFCURVE",
"119 653 OFFCURVE",
"98 520 CURVE SMOOTH",
"49 210 LINE SMOOTH",
"28 79 OFFCURVE",
"110 -10 OFFCURVE",
"254 -10 CURVE SMOOTH",
"260 -10 OFFCURVE",
"269 -9 OFFCURVE",
"274 -9 CURVE",
"250 4 LINE",
"332 -180 LINE"
);
},
{
closed = 1;
nodes = (
"213 121 OFFCURVE",
"190 153 OFFCURVE",
"199 210 CURVE SMOOTH",
"248 520 LINE SMOOTH",
"257 578 OFFCURVE",
"295 610 OFFCURVE",
"353 610 CURVE SMOOTH",
"411 610 OFFCURVE",
"437 578 OFFCURVE",
"428 520 CURVE SMOOTH",
"379 210 LINE SMOOTH",
"370 153 OFFCURVE",
"337 121 OFFCURVE",
"275 121 CURVE SMOOTH"
);
}
);
width = 600;
},
{
anchors = (
{
name = top;
position = "{372, 730}";
}
);
layerId = "CCC0BD40-BA8C-414E-B576-CF0B94E6C996";
paths = (
{
closed = 1;
nodes = (
"450 -180 LINE",
"348 50 LINE",
"342 4 LINE",
"430 31 OFFCURVE",
"492 105 OFFCURVE",
"508 205 CURVE SMOOTH",
"559 525 LINE SMOOTH",
"580 656 OFFCURVE",
"508 740 OFFCURVE",
"373 740 CURVE SMOOTH",
"238 740 OFFCURVE",
"140 656 OFFCURVE",
"119 525 CURVE SMOOTH",
"68 205 LINE SMOOTH",
"47 74 OFFCURVE",
"119 -10 OFFCURVE",
"254 -10 CURVE SMOOTH",
"264 -10 OFFCURVE",
"275 -9 OFFCURVE",
"286 -7 CURVE",
"274 -3 LINE",
"352 -180 LINE"
);
},
{
closed = 1;
nodes = (
"188 70 OFFCURVE",
"145 123 OFFCURVE",
"158 205 CURVE SMOOTH",
"209 525 LINE SMOOTH",
"222 607 OFFCURVE",
"282 660 OFFCURVE",
"361 660 CURVE SMOOTH",
"440 660 OFFCURVE",
"482 607 OFFCURVE",
"469 525 CURVE SMOOTH",
"418 205 LINE SMOOTH",
"405 123 OFFCURVE",
"346 70 OFFCURVE",
"267 70 CURVE SMOOTH"
);
}
);
width = 600;
},
{
anchors = (
{
name = top;
position = "{372, 730}";
}
);
layerId = "EDF5EB54-295C-4C90-9A2F-67CD82979CFF";
paths = (
{
closed = 1;
nodes = (
"433 -180 LINE",
"340 31 LINE",
"339 5 LINE",
"415 31 OFFCURVE",
"467 101 OFFCURVE",
"481 190 CURVE SMOOTH",
"537 540 LINE SMOOTH",
"556 656 OFFCURVE",
"493 740 OFFCURVE",
"374 740 CURVE SMOOTH",
"254 740 OFFCURVE",
"167 662 OFFCURVE",
"147 540 CURVE SMOOTH",
"91 190 LINE SMOOTH",
"72 69 OFFCURVE",
"136 -10 OFFCURVE",
"255 -10 CURVE SMOOTH",
"275 -10 OFFCURVE",
"298 -7 OFFCURVE",
"309 -5 CURVE",
"301 0 LINE",
"382 -180 LINE"
);
},
{
closed = 1;
nodes = (
"171 35 OFFCURVE",
"125 92 OFFCURVE",
"141 190 CURVE SMOOTH",
"197 540 LINE SMOOTH",
"213 638 OFFCURVE",
"275 695 OFFCURVE",
"367 695 CURVE SMOOTH",
"457 695 OFFCURVE",
"503 637 OFFCURVE",
"487 540 CURVE SMOOTH",
"431 190 LINE SMOOTH",
"415 92 OFFCURVE",
"354 35 OFFCURVE",
"263 35 CURVE SMOOTH"
);
}
);
width = 600;
}
);
unicode = 0051;
},
{
glyphname = R;
layers = (
{
anchors = (
{
name = bottom;
position = "{256, 0}";
},
{
name = top;
position = "{372, 730}";
}
);
layerId = "9ADF6715-3D0F-493D-8567-18A6FBCFC567";
paths = (
{
closed = 1;
nodes = (
"170 0 LINE",
"214 276 LINE",
"284 276 LINE",
"366 0 LINE",
"521 0 LINE",
"404 361 LINE",
"385 287 LINE",
"490 306 OFFCURVE",
"574 396 OFFCURVE",
"591 508 CURVE SMOOTH",
"613 644 OFFCURVE",
"527 730 OFFCURVE",
"372 730 CURVE SMOOTH",
"137 730 LINE",
"21 0 LINE"
);
},
{
closed = 1;
nodes = (
"265 600 LINE",
"351 600 LINE SMOOTH",
"417 600 OFFCURVE",
"450 563 OFFCURVE",
"440 501 CURVE SMOOTH",
"431 441 OFFCURVE",
"386 406 OFFCURVE",
"320 406 CURVE SMOOTH",
"234 406 LINE"
);
}
);
width = 600;
},
{
anchors = (
{
name = bottom;
position = "{256, 0}";
},
{
name = top;
position = "{372, 730}";
}
);
layerId = "CCC0BD40-BA8C-414E-B576-CF0B94E6C996";
paths = (
{
closed = 1;
nodes = (
"138 0 LINE",
"187 310 LINE",
"304 310 LINE",
"399 0 LINE",
"501 0 LINE",
"383 359 LINE",
"372 314 LINE",
"478 333 OFFCURVE",
"557 411 OFFCURVE",
"573 520 CURVE SMOOTH",
"593 645 OFFCURVE",
"520 730 OFFCURVE",
"390 730 CURVE SMOOTH",
"164 730 LINE",
"48 0 LINE"
);
},
{
closed = 1;
nodes = (
"241 649 LINE",
"377 649 LINE SMOOTH",
"451 649 OFFCURVE",
"493 598 OFFCURVE",
"480 520 CURVE SMOOTH",
"468 442 OFFCURVE",
"411 391 OFFCURVE",
"336 391 CURVE SMOOTH",
"200 391 LINE"
);
}
);
width = 600;
},
{
anchors = (
{
name = bottom;
position = "{256, 0}";
},
{
name = top;
position = "{372, 730}";
}
);
layerId = "EDF5EB54-295C-4C90-9A2F-67CD82979CFF";
paths = (
{
closed = 1;
nodes = (
"116 0 LINE",
"168 330 LINE",
"314 330 LINE",
"428 0 LINE",
"482 0 LINE",
"356 353 LINE",
"352 330 LINE",
"464 340 OFFCURVE",
"547 417 OFFCURVE",
"565 528 CURVE SMOOTH",
"584 652 OFFCURVE",
"516 730 OFFCURVE",
"387 730 CURVE SMOOTH",
"182 730 LINE",
"66 0 LINE"
);
},
{
closed = 1;
nodes = (
"224 684 LINE",
"379 684 LINE SMOOTH",
"476 684 OFFCURVE",
"530 624 OFFCURVE",
"515 530 CURVE SMOOTH",
"500 436 OFFCURVE",
"427 375 OFFCURVE",
"330 375 CURVE SMOOTH",
"175 375 LINE"
);
}
);
width = 600;
}
);
unicode = 0052;
},
{
glyphname = S;
layers = (
{
anchors = (
{
name = bottom;
position = "{256, 0}";
},
{
name = top;
position = "{372, 730}";
}
);
layerId = "9ADF6715-3D0F-493D-8567-18A6FBCFC567";
paths = (
{
closed = 1;
nodes = (
"409 -10 OFFCURVE",
"520 74 OFFCURVE",
"542 206 CURVE SMOOTH",
"559 319 OFFCURVE",
"500 398 OFFCURVE",
"377 428 CURVE SMOOTH",
"302 446 LINE SMOOTH",
"259 456 OFFCURVE",
"240 489 OFFCURVE",
"248 535 CURVE SMOOTH",
"255 583 OFFCURVE",
"291 610 OFFCURVE",
"349 610 CURVE SMOOTH",
"410 610 OFFCURVE",
"439 581 OFFCURVE",
"432 535 CURVE",
"582 535 LINE",
"602 660 OFFCURVE",
"520 740 OFFCURVE",
"371 740 CURVE SMOOTH",
"223 740 OFFCURVE",
"117 657 OFFCURVE",
"97 529 CURVE SMOOTH",
"80 418 OFFCURVE",
"140 335 OFFCURVE",
"260 306 CURVE SMOOTH",
"331 289 LINE SMOOTH",
"376 278 OFFCURVE",
"397 244 OFFCURVE",
"391 199 CURVE SMOOTH",
"383 149 OFFCURVE",
"341 120 OFFCURVE",
"278 120 CURVE SMOOTH",
"213 120 OFFCURVE",
"177 151 OFFCURVE",
"185 200 CURVE",
"35 200 LINE",
"14 72 OFFCURVE",
"100 -10 OFFCURVE",
"254 -10 CURVE SMOOTH"
);
}
);
width = 600;
},
{
anchors = (
{
name = bottom;
position = "{256, 0}";
},
{
name = top;
position = "{372, 730}";
}
);
layerId = "CCC0BD40-BA8C-414E-B576-CF0B94E6C996";
paths = (
{
closed = 1;
nodes = (
"392 -10 OFFCURVE",
"495 70 OFFCURVE",
"514 190 CURVE SMOOTH",
"529 287 OFFCURVE",
"484 363 OFFCURVE",
"392 394 CURVE SMOOTH",
"297 426 LINE SMOOTH",
"242 444 OFFCURVE",
"216 492 OFFCURVE",
"226 554 CURVE SMOOTH",
"236 620 OFFCURVE",
"288 660 OFFCURVE",
"366 660 CURVE SMOOTH",
"445 660 OFFCURVE",
"483 617 OFFCURVE",
"471 545 CURVE",
"561 545 LINE",
"578 663 OFFCURVE",
"507 741 OFFCURVE",
"379 741 CURVE SMOOTH",
"249 741 OFFCURVE",
"153 663 OFFCURVE",
"134 546 CURVE SMOOTH",
"120 450 OFFCURVE",
"167 375 OFFCURVE",
"260 345 CURVE SMOOTH",
"354 314 LINE SMOOTH",
"407 297 OFFCURVE",
"433 250 OFFCURVE",
"424 188 CURVE SMOOTH",
"412 115 OFFCURVE",
"355 71 OFFCURVE",
"271 71 CURVE SMOOTH",
"181 71 OFFCURVE",
"136 116 OFFCURVE",
"148 190 CURVE",
"58 190 LINE",
"40 66 OFFCURVE",
"115 -10 OFFCURVE",
"258 -10 CURVE SMOOTH"
);
}
);
width = 600;
},
{
anchors = (
{
name = bottom;
position = "{256, 0}";
},
{
name = top;
position = "{372, 730}";
}
);
layerId = "EDF5EB54-295C-4C90-9A2F-67CD82979CFF";
paths = (
{
closed = 1;
nodes = (
"388 -10 OFFCURVE",
"481 64 OFFCURVE",
"500 180 CURVE SMOOTH",
"515 273 OFFCURVE",
"465 355 OFFCURVE",
"371 384 CURVE SMOOTH",
"290 409 LINE SMOOTH",
"223 430 OFFCURVE",
"189 488 OFFCURVE",
"200 563 CURVE SMOOTH",
"212 645 OFFCURVE",
"278 695 OFFCURVE",
"371 695 CURVE SMOOTH",
"462 695 OFFCURVE",
"512 637 OFFCURVE",
"498 548 CURVE",
"548 548 LINE",
"566 666 OFFCURVE",
"501 740 OFFCURVE",
"379 740 CURVE SMOOTH",
"256 740 OFFCURVE",
"167 670 OFFCURVE",
"150 559 CURVE SMOOTH",
"135 466 OFFCURVE",
"180 392 OFFCURVE",
"271 364 CURVE SMOOTH",
"352 339 LINE SMOOTH",
"427 316 OFFCURVE",
"461 258 OFFCURVE",
"449 177 CURVE SMOOTH",
"435 88 OFFCURVE",
"367 35 OFFCURVE",
"267 35 CURVE SMOOTH",
"164 35 OFFCURVE",
"106 94 OFFCURVE",
"120 185 CURVE",
"70 185 LINE",
"51 66 OFFCURVE",
"124 -10 OFFCURVE",
"259 -10 CURVE SMOOTH"
);
}
);
width = 600;
}
);
unicode = 0053;
},
{
glyphname = Scedilla;
layers = (
{
anchors = (
{
name = _bottom;
position = "{256, 0}";
}
);
components = (
{
alignment = -1;
name = S;
}
);
layerId = "9ADF6715-3D0F-493D-8567-18A6FBCFC567";
paths = (
{
closed = 1;
nodes = (
"225 -225 LINE SMOOTH",
"309 -225 OFFCURVE",
"372 -182 OFFCURVE",
"380 -133 CURVE SMOOTH",
"390 -72 OFFCURVE",
"313 -43 OFFCURVE",
"253 -39 CURVE",
"281 16 LINE",
"208 16 LINE",
"159 -69 LINE",
"232 -69 OFFCURVE",
"272 -88 OFFCURVE",
"267 -119 CURVE SMOOTH",
"265 -135 OFFCURVE",
"239 -155 OFFCURVE",
"206 -155 CURVE SMOOTH",
"126 -155 LINE",
"115 -225 LINE"
);
}
);
width = 600;
},
{
anchors = (
{
name = _bottom;
position = "{256, 0}";
}
);
components = (
{
alignment = -1;
name = S;
}
);
layerId = "CCC0BD40-BA8C-414E-B576-CF0B94E6C996";
paths = (
{
closed = 1;
nodes = (
"214 -203 LINE SMOOTH",
"286 -203 OFFCURVE",
"340 -166 OFFCURVE",
"347 -120 CURVE SMOOTH",
"355 -68 OFFCURVE",
"292 -41 OFFCURVE",
"240 -35 CURVE",
"271 26 LINE",
"214 26 LINE",
"164 -69 LINE",
"231 -69 OFFCURVE",
"266 -89 OFFCURVE",
"262 -112 CURVE SMOOTH",
"259 -130 OFFCURVE",
"237 -148 OFFCURVE",
"208 -148 CURVE SMOOTH",
"138 -148 LINE",
"129 -203 LINE"
);
}
);
width = 600;
},
{
anchors = (
{
name = _bottom;
position = "{256, 0}";
}
);
components = (
{
alignment = -1;
name = S;
}
);
layerId = "EDF5EB54-295C-4C90-9A2F-67CD82979CFF";
paths = (
{
closed = 1;
nodes = (
"240 -195 LINE SMOOTH",
"300 -195 OFFCURVE",
"346 -161 OFFCURVE",
"352 -118 CURVE SMOOTH",
"361 -61 OFFCURVE",
"302 -37 OFFCURVE",
"256 -34 CURVE",
"288 26 LINE",
"246 26 LINE",
"197 -64 LINE",
"268 -64 OFFCURVE",
"311 -86 OFFCURVE",
"306 -118 CURVE SMOOTH",
"303 -140 OFFCURVE",
"278 -160 OFFCURVE",
"246 -160 CURVE SMOOTH",
"166 -160 LINE",
"160 -195 LINE"
);
}
);
width = 600;
}
);
unicode = 015E;
},
{
glyphname = Germandbls;
layers = (
{
layerId = "EDF5EB54-295C-4C90-9A2F-67CD82979CFF";
paths = (
{
closed = 1;
nodes = (
"116 0 LINE",
"202 543 LINE SMOOTH",
"216 629 OFFCURVE",
"281 685 OFFCURVE",
"369 685 CURVE SMOOTH",
"528 685 LINE",
"291 411 LINE",
"284 368 LINE",
"324 368 LINE SMOOTH",
"421 368 OFFCURVE",
"474 305 OFFCURVE",
"459 208 CURVE SMOOTH",
"443 109 OFFCURVE",
"370 45 OFFCURVE",
"273 45 CURVE SMOOTH",
"211 45 LINE",
"204 0 LINE",
"266 0 LINE SMOOTH",
"394 0 OFFCURVE",
"489 82 OFFCURVE",
"509 210 CURVE SMOOTH",
"528 330 OFFCURVE",
"458 407 OFFCURVE",
"330 407 CURVE",
"331 396 LINE",
"581 684 LINE",
"589 730 LINE",
"377 730 LINE SMOOTH",
"259 730 OFFCURVE",
"170 657 OFFCURVE",
"152 543 CURVE SMOOTH",
"66 0 LINE"
);
}
);
width = 600;
},
{
layerId = "9ADF6715-3D0F-493D-8567-18A6FBCFC567";
paths = (
{
closed = 1;
nodes = (
"151 0 LINE",
"232 511 LINE SMOOTH",
"241 568 OFFCURVE",
"286 605 OFFCURVE",
"347 605 CURVE SMOOTH",
"460 605 LINE",
"284 438 LINE",
"267 328 LINE",
"314 328 LINE SMOOTH",
"377 328 OFFCURVE",
"409 287 OFFCURVE",
"400 227 CURVE SMOOTH",
"390 167 OFFCURVE",
"346 125 OFFCURVE",
"282 125 CURVE SMOOTH",
"235 125 LINE",
"215 0 LINE",
"267 0 LINE SMOOTH",
"418 0 OFFCURVE",
"528 84 OFFCURVE",
"549 215 CURVE SMOOTH",
"569 344 OFFCURVE",
"495 427 OFFCURVE",
"359 425 CURVE",
"364 370 LINE",
"595 589 LINE",
"618 730 LINE",
"368 730 LINE SMOOTH",
"225 730 OFFCURVE",
"118 644 OFFCURVE",
"97 511 CURVE SMOOTH",
"16 0 LINE"
);
}
);
width = 600;
},
{
layerId = "CCC0BD40-BA8C-414E-B576-CF0B94E6C996";
paths = (
{
closed = 1;
nodes = (
"138 0 LINE",
"221 524 LINE SMOOTH",
"233 601 OFFCURVE",
"287 648 OFFCURVE",
"361 648 CURVE SMOOTH",
"489 648 LINE",
"293 423 LINE",
"281 345 LINE",
"326 345 LINE SMOOTH",
"406 345 OFFCURVE",
"448 295 OFFCURVE",
"435 215 CURVE SMOOTH",
"422 133 OFFCURVE",
"364 82 OFFCURVE",
"284 82 CURVE SMOOTH",
"227 82 LINE",
"214 0 LINE",
"281 0 LINE SMOOTH",
"410 0 OFFCURVE",
"510 86 OFFCURVE",
"530 215 CURVE SMOOTH",
"550 342 OFFCURVE",
"487 425 OFFCURVE",
"373 423 CURVE",
"369 396 LINE",
"587 642 LINE",
"601 730 LINE",
"374 730 LINE SMOOTH",
"248 730 OFFCURVE",
"151 648 OFFCURVE",
"131 524 CURVE SMOOTH",
"48 0 LINE"
);
}
);
width = 600;
}
);
unicode = 1E9E;
},
{
glyphname = Schwa;
layers = (
{
layerId = "9ADF6715-3D0F-493D-8567-18A6FBCFC567";
paths = (
{
closed = 1;
nodes = (
"402 -10 OFFCURVE",
"508 78 OFFCURVE",
"529 210 CURVE SMOOTH",
"578 520 LINE SMOOTH",
"599 653 OFFCURVE",
"521 740 OFFCURVE",
"374 740 CURVE SMOOTH",
"228 740 OFFCURVE",
"122 654 OFFCURVE",
"100 520 CURVE",
"250 520 LINE",
"260 578 OFFCURVE",
"294 610 OFFCURVE",
"354 610 CURVE SMOOTH",
"414 610 OFFCURVE",
"438 578 OFFCURVE",
"428 520 CURVE",
"412 416 LINE",
"82 416 LINE",
"49 210 LINE SMOOTH",
"28 78 OFFCURVE",
"109 -10 OFFCURVE",
"255 -10 CURVE SMOOTH"
);
},
{
closed = 1;
nodes = (
"212 105 OFFCURVE",
"188 138 OFFCURVE",
"199 210 CURVE SMOOTH",
"216 316 LINE",
"204 306 LINE",
"394 306 LINE",
"379 210 LINE SMOOTH",
"368 142 OFFCURVE",
"340 105 OFFCURVE",
"274 105 CURVE SMOOTH"
);
}
);
width = 600;
},
{
layerId = "CCC0BD40-BA8C-414E-B576-CF0B94E6C996";
paths = (
{
closed = 1;
nodes = (
"384 -10 OFFCURVE",
"478 73 OFFCURVE",
"498 200 CURVE SMOOTH",
"550 530 LINE SMOOTH",
"571 661 OFFCURVE",
"506 740 OFFCURVE",
"373 740 CURVE SMOOTH",
"242 740 OFFCURVE",
"150 659 OFFCURVE",
"130 530 CURVE",
"220 530 LINE",
"233 613 OFFCURVE",
"283 660 OFFCURVE",
"361 660 CURVE SMOOTH",
"440 660 OFFCURVE",
"473 613 OFFCURVE",
"460 531 CURVE SMOOTH",
"439 400 LINE",
"109 400 LINE",
"78 200 LINE SMOOTH",
"58 73 OFFCURVE",
"124 -10 OFFCURVE",
"254 -10 CURVE SMOOTH"
);
},
{
closed = 1;
nodes = (
"184 65 OFFCURVE",
"154 113 OFFCURVE",
"168 200 CURVE SMOOTH",
"190 338 LINE",
"181 330 LINE",
"428 330 LINE",
"408 200 LINE SMOOTH",
"394 113 OFFCURVE",
"348 65 OFFCURVE",
"266 65 CURVE SMOOTH"
);
}
);
width = 600;
},
{
layerId = "EDF5EB54-295C-4C90-9A2F-67CD82979CFF";
paths = (
{
closed = 1;
nodes = (
"375 -10 OFFCURVE",
"462 69 OFFCURVE",
"481 190 CURVE SMOOTH",
"537 540 LINE SMOOTH",
"556 662 OFFCURVE",
"494 740 OFFCURVE",
"372 740 CURVE SMOOTH",
"248 740 OFFCURVE",
"165 658 OFFCURVE",
"145 530 CURVE",
"195 530 LINE",
"211 632 OFFCURVE",
"270 695 OFFCURVE",
"365 695 CURVE SMOOTH",
"458 695 OFFCURVE",
"502 636 OFFCURVE",
"487 540 CURVE SMOOTH",
"461 378 LINE",
"121 378 LINE",
"91 190 LINE SMOOTH",
"72 69 OFFCURVE",
"132 -10 OFFCURVE",
"253 -10 CURVE SMOOTH"
);
},
{
closed = 1;
nodes = (
"168 34 OFFCURVE",
"126 94 OFFCURVE",
"141 190 CURVE SMOOTH",
"165 344 LINE",
"153 335 LINE",
"454 335 LINE",
"431 190 LINE SMOOTH",
"416 93 OFFCURVE",
"354 34 OFFCURVE",
"260 34 CURVE SMOOTH"
);
}
);
width = 600;
}
);
unicode = 018F;
},
{
glyphname = T;
layers = (
{
anchors = (
{
name = bottom;
position = "{256, 0}";
},
{
name = top;
position = "{372, 730}";
}
);
layerId = "9ADF6715-3D0F-493D-8567-18A6FBCFC567";
paths = (
{
closed = 1;
nodes = (
"331 0 LINE",
"424 590 LINE",
"609 590 LINE",
"632 730 LINE",
"112 730 LINE",
"89 590 LINE",
"274 590 LINE",
"181 0 LINE"
);
}
);
width = 600;
},
{
anchors = (
{
name = bottom;
position = "{256, 0}";
},
{
name = top;
position = "{372, 730}";
}
);
layerId = "CCC0BD40-BA8C-414E-B576-CF0B94E6C996";
paths = (
{
closed = 1;
nodes = (
"301 0 LINE",
"404 648 LINE",
"604 648 LINE",
"617 730 LINE",
"127 730 LINE",
"114 648 LINE",
"314 648 LINE",
"211 0 LINE"
);
}
);
width = 600;
},
{
anchors = (
{
name = bottom;
position = "{256, 0}";
},
{
name = top;
position = "{372, 730}";
}
);
layerId = "EDF5EB54-295C-4C90-9A2F-67CD82979CFF";
paths = (
{
closed = 1;
nodes = (
"282 0 LINE",
"390 684 LINE",
"604 684 LINE",
"612 730 LINE",
"132 730 LINE",
"124 684 LINE",
"340 684 LINE",
"232 0 LINE"
);
}
);
width = 600;
}
);
unicode = 0054;
},
{
glyphname = Tbar;
layers = (
{
components = (
{
alignment = -1;
name = T;
}
);
layerId = "9ADF6715-3D0F-493D-8567-18A6FBCFC567";
paths = (
{
closed = 1;
nodes = (
"500 275 LINE",
"518 390 LINE",
"118 390 LINE",
"100 275 LINE"
);
}
);
width = 600;
},
{
components = (
{
alignment = -1;
name = T;
}
);
layerId = "CCC0BD40-BA8C-414E-B576-CF0B94E6C996";
paths = (
{
closed = 1;
nodes = (
"493 295 LINE",
"505 370 LINE",
"125 370 LINE",
"113 295 LINE"
);
}
);
width = 600;
},
{
components = (
{
name = T;
}
);
layerId = "EDF5EB54-295C-4C90-9A2F-67CD82979CFF";
paths = (
{
closed = 1;
nodes = (
"486 310 LINE",
"493 355 LINE",
"133 355 LINE",
"126 310 LINE"
);
}
);
width = 600;
}
);
unicode = 0166;
},
{
glyphname = Tcedilla;
layers = (
{
components = (
{
alignment = -1;
name = T;
}
);
layerId = "9ADF6715-3D0F-493D-8567-18A6FBCFC567";
paths = (
{
closed = 1;
nodes = (
"284 -225 LINE SMOOTH",
"368 -225 OFFCURVE",
"431 -182 OFFCURVE",
"439 -133 CURVE SMOOTH",
"449 -72 OFFCURVE",
"372 -43 OFFCURVE",
"312 -39 CURVE",
"331 0 LINE",
"267 16 LINE",
"218 -69 LINE",
"291 -69 OFFCURVE",
"331 -88 OFFCURVE",
"326 -119 CURVE SMOOTH",
"324 -135 OFFCURVE",
"298 -155 OFFCURVE",
"265 -155 CURVE SMOOTH",
"185 -155 LINE",
"174 -225 LINE"
);
}
);
width = 600;
},
{
components = (
{
alignment = -1;
name = T;
}
);
layerId = "CCC0BD40-BA8C-414E-B576-CF0B94E6C996";
paths = (
{
closed = 1;
nodes = (
"257 -203 LINE SMOOTH",
"329 -203 OFFCURVE",
"383 -166 OFFCURVE",
"390 -120 CURVE SMOOTH",
"398 -68 OFFCURVE",
"335 -41 OFFCURVE",
"283 -35 CURVE",
"301 0 LINE",
"257 26 LINE",
"207 -69 LINE",
"274 -69 OFFCURVE",
"309 -89 OFFCURVE",
"305 -112 CURVE SMOOTH",
"302 -130 OFFCURVE",
"280 -148 OFFCURVE",
"251 -148 CURVE SMOOTH",
"181 -148 LINE",
"172 -203 LINE"
);
}
);
width = 600;
},
{
components = (
{
alignment = -1;
name = T;
}
);
layerId = "EDF5EB54-295C-4C90-9A2F-67CD82979CFF";
paths = (
{
closed = 1;
nodes = (
"248 -195 LINE SMOOTH",
"308 -195 OFFCURVE",
"353 -161 OFFCURVE",
"360 -118 CURVE SMOOTH",
"369 -61 OFFCURVE",
"310 -37 OFFCURVE",
"263 -34 CURVE",
"282 0 LINE",
"254 26 LINE",
"205 -64 LINE",
"276 -64 OFFCURVE",
"319 -86 OFFCURVE",
"314 -118 CURVE SMOOTH",
"311 -140 OFFCURVE",
"286 -160 OFFCURVE",
"254 -160 CURVE SMOOTH",
"174 -160 LINE",
"168 -195 LINE"
);
}
);
width = 600;
}
);
unicode = 0162;
},
{
glyphname = U;
layers = (
{
anchors = (
{
name = bottom;
position = "{256, 0}";
},
{
name = horn;
position = "{457, 730}";
},
{
name = ogonek;
position = "{305, 0}";
},
{
name = top;
position = "{372, 730}";
},
{
name = topright;
position = "{652, 730}";
}
);
layerId = "9ADF6715-3D0F-493D-8567-18A6FBCFC567";
paths = (
{
closed = 1;
nodes = (
"402 -10 OFFCURVE",
"508 76 OFFCURVE",
"530 214 CURVE SMOOTH",
"612 730 LINE",
"462 730 LINE",
"380 215 LINE SMOOTH",
"370 154 OFFCURVE",
"331 120 OFFCURVE",
"275 120 CURVE SMOOTH",
"218 120 OFFCURVE",
"190 154 OFFCURVE",
"200 215 CURVE SMOOTH",
"282 730 LINE",
"132 730 LINE",
"50 214 LINE SMOOTH",
"28 75 OFFCURVE",
"106 -10 OFFCURVE",
"254 -10 CURVE SMOOTH"
);
}
);
width = 600;
},
{
anchors = (
{
name = bottom;
position = "{256, 0}";
},
{
name = horn;
position = "{457, 730}";
},
{
name = ogonek;
position = "{305, 0}";
},
{
name = top;
position = "{372, 730}";
},
{
name = topright;
position = "{652, 730}";
}
);
layerId = "CCC0BD40-BA8C-414E-B576-CF0B94E6C996";
paths = (
{
closed = 1;
nodes = (
"391 -10 OFFCURVE",
"477 69 OFFCURVE",
"498 200 CURVE SMOOTH",
"582 730 LINE",
"492 730 LINE",
"408 200 LINE SMOOTH",
"395 120 OFFCURVE",
"347 70 OFFCURVE",
"267 70 CURVE SMOOTH",
"186 70 OFFCURVE",
"155 120 OFFCURVE",
"168 200 CURVE SMOOTH",
"252 730 LINE",
"162 730 LINE",
"78 200 LINE SMOOTH",
"57 70 OFFCURVE",
"118 -10 OFFCURVE",
"254 -10 CURVE SMOOTH"
);
}
);
width = 600;
},
{
anchors = (
{
name = bottom;
position = "{256, 0}";
},
{
name = horn;
position = "{464, 730}";
},
{
name = ogonek;
position = "{305, 0}";
},
{
name = top;
position = "{372, 730}";
},
{
name = topright;
position = "{652, 730}";
}
);
layerId = "EDF5EB54-295C-4C90-9A2F-67CD82979CFF";
paths = (
{
closed = 1;
nodes = (
"371 -10 OFFCURVE",
"459 69 OFFCURVE",
"478 190 CURVE SMOOTH",
"564 730 LINE",
"514 730 LINE",
"428 190 LINE SMOOTH",
"413 93 OFFCURVE",
"352 35 OFFCURVE",
"263 35 CURVE SMOOTH",
"173 35 OFFCURVE",
"129 92 OFFCURVE",
"144 190 CURVE SMOOTH",
"230 730 LINE",
"180 730 LINE",
"94 190 LINE SMOOTH",
"75 69 OFFCURVE",
"138 -10 OFFCURVE",
"255 -10 CURVE SMOOTH"
);
}
);
width = 600;
}
);
unicode = 0055;
},
{
glyphname = Uhorn;
layers = (
{
anchors = (
{
name = top;
position = "{372, 730}";
}
);
components = (
{
alignment = -1;
name = U;
}
);
layerId = "9ADF6715-3D0F-493D-8567-18A6FBCFC567";
paths = (
{
closed = 1;
nodes = (
"562 630 LINE SMOOTH",
"649 630 OFFCURVE",
"715 684 OFFCURVE",
"728 765 CURVE SMOOTH",
"740 840 LINE",
"620 840 LINE",
"608 765 LINE SMOOTH",
"605 743 OFFCURVE",
"590 730 OFFCURVE",
"568 730 CURVE SMOOTH",
"518 730 LINE",
"502 630 LINE"
);
}
);
width = 600;
},
{
anchors = (
{
name = top;
position = "{372, 730}";
}
);
components = (
{
name = U;
}
);
layerId = "CCC0BD40-BA8C-414E-B576-CF0B94E6C996";
paths = (
{
closed = 1;
nodes = (
"551 665 LINE SMOOTH",
"615 665 OFFCURVE",
"662 702 OFFCURVE",
"671 760 CURVE SMOOTH",
"684 840 LINE",
"609 840 LINE",
"597 765 LINE SMOOTH",
"594 744 OFFCURVE",
"578 730 OFFCURVE",
"557 730 CURVE SMOOTH",
"507 730 LINE",
"496 665 LINE"
);
}
);
width = 600;
},
{
anchors = (
{
name = top;
position = "{360, 730}";
}
);
components = (
{
alignment = -1;
name = U;
}
);
layerId = "EDF5EB54-295C-4C90-9A2F-67CD82979CFF";
paths = (
{
closed = 1;
nodes = (
"595 695 LINE SMOOTH",
"646 695 OFFCURVE",
"685 729 OFFCURVE",
"693 780 CURVE SMOOTH",
"703 840 LINE",
"663 840 LINE",
"653 780 LINE SMOOTH",
"648 750 OFFCURVE",
"628 730 OFFCURVE",
"601 730 CURVE SMOOTH",
"516 730 LINE",
"510 695 LINE"
);
}
);
width = 600;
}
);
unicode = 01AF;
},
{
glyphname = Uogonek;
layers = (
{
anchors = (
{
name = horn;
position = "{457, 730}";
},
{
name = top;
position = "{372, 730}";
}
);
layerId = "9ADF6715-3D0F-493D-8567-18A6FBCFC567";
paths = (
{
closed = 1;
nodes = (
"382 -225 LINE",
"399 -120 LINE",
"330 -120 LINE SMOOTH",
"301 -120 OFFCURVE",
"287 -103 OFFCURVE",
"290 -82 CURVE SMOOTH",
"293 -65 OFFCURVE",
"309 -38 OFFCURVE",
"339 -17 CURVE SMOOTH",
"393 21 LINE",
"463 58 OFFCURVE",
"516 127 OFFCURVE",
"529 210 CURVE SMOOTH",
"612 730 LINE",
"462 730 LINE",
"379 210 LINE SMOOTH",
"370 152 OFFCURVE",
"335 120 OFFCURVE",
"275 120 CURVE SMOOTH",
"215 120 OFFCURVE",
"190 152 OFFCURVE",
"199 210 CURVE SMOOTH",
"282 730 LINE",
"132 730 LINE",
"49 210 LINE SMOOTH",
"28 78 OFFCURVE",
"107 -10 OFFCURVE",
"254 -10 CURVE SMOOTH",
"287 -10 OFFCURVE",
"306 11 OFFCURVE",
"307 21 CURVE",
"235 -9 OFFCURVE",
"168 -68 OFFCURVE",
"161 -115 CURVE SMOOTH",
"150 -180 OFFCURVE",
"193 -225 OFFCURVE",
"274 -225 CURVE SMOOTH"
);
}
);
width = 600;
},
{
anchors = (
{
name = horn;
position = "{457, 730}";
},
{
name = top;
position = "{372, 730}";
}
);
layerId = "CCC0BD40-BA8C-414E-B576-CF0B94E6C996";
paths = (
{
closed = 1;
nodes = (
"381 -203 LINE",
"390 -143 LINE",
"330 -143 LINE SMOOTH",
"296 -143 OFFCURVE",
"279 -122 OFFCURVE",
"283 -93 CURVE SMOOTH",
"288 -65 OFFCURVE",
"307 -36 OFFCURVE",
"357 1 CURVE SMOOTH",
"390 25 LINE",
"448 60 OFFCURVE",
"485 121 OFFCURVE",
"498 200 CURVE SMOOTH",
"582 730 LINE",
"492 730 LINE",
"408 200 LINE SMOOTH",
"395 117 OFFCURVE",
"345 71 OFFCURVE",
"267 71 CURVE SMOOTH",
"189 71 OFFCURVE",
"155 117 OFFCURVE",
"168 200 CURVE SMOOTH",
"252 730 LINE",
"162 730 LINE",
"78 200 LINE SMOOTH",
"57 69 OFFCURVE",
"123 -10 OFFCURVE",
"254 -10 CURVE SMOOTH",
"258 -10 OFFCURVE",
"263 -10 OFFCURVE",
"267 -10 CURVE",
"226 -45 OFFCURVE",
"200 -82 OFFCURVE",
"196 -110 CURVE SMOOTH",
"187 -164 OFFCURVE",
"229 -203 OFFCURVE",
"303 -203 CURVE SMOOTH"
);
}
);
width = 600;
},
{
anchors = (
{
name = horn;
position = "{464, 730}";
},
{
name = top;
position = "{372, 730}";
}
);
layerId = "EDF5EB54-295C-4C90-9A2F-67CD82979CFF";
paths = (
{
closed = 1;
nodes = (
"367 -195 LINE",
"374 -153 LINE",
"310 -153 LINE SMOOTH",
"278 -153 OFFCURVE",
"262 -134 OFFCURVE",
"267 -103 CURVE SMOOTH",
"271 -75 OFFCURVE",
"300 -33 OFFCURVE",
"344 2 CURVE SMOOTH",
"355 10 LINE",
"422 45 OFFCURVE",
"465 105 OFFCURVE",
"478 190 CURVE SMOOTH",
"564 730 LINE",
"514 730 LINE",
"428 190 LINE SMOOTH",
"412 91 OFFCURVE",
"353 34 OFFCURVE",
"261 34 CURVE SMOOTH",
"169 34 OFFCURVE",
"128 91 OFFCURVE",
"144 190 CURVE SMOOTH",
"230 730 LINE",
"180 730 LINE",
"94 190 LINE SMOOTH",
"75 68 OFFCURVE",
"136 -10 OFFCURVE",
"254 -10 CURVE SMOOTH",
"265 -10 OFFCURVE",
"284 -9 OFFCURVE",
"295 -6 CURVE",
"252 -39 OFFCURVE",
"223 -80 OFFCURVE",
"218 -115 CURVE SMOOTH",
"210 -165 OFFCURVE",
"239 -195 OFFCURVE",
"294 -195 CURVE SMOOTH"
);
}
);
width = 600;
}
);
unicode = 0172;
},
{
glyphname = V;
layers = (
{
anchors = (
{
name = top;
position = "{372, 730}";
}
);
layerId = "9ADF6715-3D0F-493D-8567-18A6FBCFC567";
paths = (
{
closed = 1;
nodes = (
"352 0 LINE",
"647 730 LINE",
"493 730 LINE",
"322 270 LINE SMOOTH",
"310 237 OFFCURVE",
"292 178 OFFCURVE",
"282 144 CURVE",
"281 178 OFFCURVE",
"279 237 OFFCURVE",
"277 269 CURVE SMOOTH",
"249 730 LINE",
"97 730 LINE",
"162 0 LINE"
);
}
);
width = 600;
},
{
anchors = (
{
name = top;
position = "{372, 730}";
}
);
layerId = "CCC0BD40-BA8C-414E-B576-CF0B94E6C996";
paths = (
{
closed = 1;
nodes = (
"317 0 LINE",
"622 730 LINE",
"529 730 LINE",
"327 234 LINE SMOOTH",
"299 165 OFFCURVE",
"277 100 OFFCURVE",
"268 70 CURVE",
"268 100 OFFCURVE",
"264 165 OFFCURVE",
"258 234 CURVE SMOOTH",
"213 730 LINE",
"122 730 LINE",
"194 0 LINE"
);
}
);
width = 600;
},
{
anchors = (
{
name = top;
position = "{372, 730}";
}
);
layerId = "EDF5EB54-295C-4C90-9A2F-67CD82979CFF";
paths = (
{
closed = 1;
nodes = (
"288 0 LINE",
"604 730 LINE",
"552 730 LINE",
"316 180 LINE SMOOTH",
"291 122 OFFCURVE",
"271 66 OFFCURVE",
"262 40 CURVE",
"261 66 OFFCURVE",
"259 122 OFFCURVE",
"252 180 CURVE SMOOTH",
"190 730 LINE",
"140 730 LINE",
"224 0 LINE"
);
}
);
width = 600;
}
);
unicode = 0056;
},
{
glyphname = W;
layers = (
{
anchors = (
{
name = bottom;
position = "{256, 0}";
},
{
name = top;
position = "{372, 730}";
}
);
layerId = "9ADF6715-3D0F-493D-8567-18A6FBCFC567";
paths = (
{
closed = 1;
nodes = (
"191 0 LINE",
"321 485 LINE SMOOTH",
"330 519 OFFCURVE",
"346 594 OFFCURVE",
"356 640 CURVE",
"352 594 OFFCURVE",
"346 519 OFFCURVE",
"344 485 CURVE SMOOTH",
"317 0 LINE",
"473 0 LINE",
"662 730 LINE",
"538 730 LINE",
"426 242 LINE SMOOTH",
"419 213 OFFCURVE",
"406 144 OFFCURVE",
"398 100 CURVE",
"400 144 OFFCURVE",
"402 213 OFFCURVE",
"404 242 CURVE SMOOTH",
"430 730 LINE",
"313 730 LINE",
"181 242 LINE SMOOTH",
"173 213 OFFCURVE",
"156 144 OFFCURVE",
"145 100 CURVE",
"151 144 OFFCURVE",
"159 213 OFFCURVE",
"161 242 CURVE SMOOTH",
"202 730 LINE",
"82 730 LINE",
"34 0 LINE"
);
}
);
width = 600;
},
{
anchors = (
{
name = bottom;
position = "{256, 0}";
},
{
name = top;
position = "{372, 730}";
}
);
layerId = "CCC0BD40-BA8C-414E-B576-CF0B94E6C996";
paths = (
{
closed = 1;
nodes = (
"178 0 LINE",
"332 550 LINE SMOOTH",
"345 595 OFFCURVE",
"357 643 OFFCURVE",
"364 667 CURVE",
"362 643 OFFCURVE",
"359 595 OFFCURVE",
"357 550 CURVE SMOOTH",
"332 0 LINE",
"445 0 LINE",
"647 730 LINE",
"565 730 LINE",
"422 190 LINE SMOOTH",
"410 146 OFFCURVE",
"398 93 OFFCURVE",
"391 65 CURVE",
"393 93 OFFCURVE",
"395 146 OFFCURVE",
"397 190 CURVE SMOOTH",
"421 730 LINE",
"326 730 LINE",
"172 190 LINE SMOOTH",
"159 146 OFFCURVE",
"147 93 OFFCURVE",
"139 65 CURVE",
"143 93 OFFCURVE",
"147 146 OFFCURVE",
"150 190 CURVE SMOOTH",
"181 730 LINE",
"97 730 LINE",
"65 0 LINE"
);
}
);
width = 600;
},
{
anchors = (
{
name = bottom;
position = "{256, 0}";
},
{
name = top;
position = "{372, 730}";
}
);
layerId = "EDF5EB54-295C-4C90-9A2F-67CD82979CFF";
paths = (
{
closed = 1;
nodes = (
"156 0 LINE",
"320 530 LINE SMOOTH",
"336 582 OFFCURVE",
"356 652 OFFCURVE",
"368 690 CURVE",
"367 651 OFFCURVE",
"365 581 OFFCURVE",
"364 530 CURVE SMOOTH",
"353 0 LINE",
"425 0 LINE",
"632 730 LINE",
"583 730 LINE",
"435 190 LINE SMOOTH",
"425 154 OFFCURVE",
"403 80 OFFCURVE",
"390 35 CURVE",
"391 80 OFFCURVE",
"392 154 OFFCURVE",
"393 190 CURVE SMOOTH",
"405 730 LINE",
"341 730 LINE",
"178 190 LINE SMOOTH",
"167 154 OFFCURVE",
"145 80 OFFCURVE",
"132 35 CURVE",
"134 80 OFFCURVE",
"137 154 OFFCURVE",
"138 190 CURVE SMOOTH",
"156 730 LINE",
"112 730 LINE",
"86 0 LINE"
);
}
);
width = 600;
}
);
unicode = 0057;
},
{
glyphname = X;
layers = (
{
anchors = (
{
name = top;
position = "{372, 730}";
}
);
layerId = "9ADF6715-3D0F-493D-8567-18A6FBCFC567";
paths = (
{
closed = 1;
nodes = (
"142 0 LINE",
"259 180 LINE SMOOTH",
"278 209 OFFCURVE",
"291 237 OFFCURVE",
"297 250 CURVE",
"300 237 OFFCURVE",
"307 209 OFFCURVE",
"317 180 CURVE SMOOTH",
"376 0 LINE",
"536 0 LINE",
"400 373 LINE",
"639 730 LINE",
"473 730 LINE",
"369 570 LINE SMOOTH",
"350 541 OFFCURVE",
"339 515 OFFCURVE",
"334 504 CURVE",
"333 515 OFFCURVE",
"324 540 OFFCURVE",
"315 570 CURVE SMOOTH",
"265 730 LINE",
"105 730 LINE",
"232 381 LINE",
"-24 0 LINE"
);
}
);
width = 600;
},
{
anchors = (
{
name = top;
position = "{372, 730}";
}
);
layerId = "CCC0BD40-BA8C-414E-B576-CF0B94E6C996";
paths = (
{
closed = 1;
nodes = (
"100 0 LINE",
"262 233 LINE SMOOTH",
"277 255 OFFCURVE",
"295 284 OFFCURVE",
"305 300 CURVE",
"309 284 OFFCURVE",
"319 255 OFFCURVE",
"328 232 CURVE SMOOTH",
"417 0 LINE",
"516 0 LINE",
"367 374 LINE",
"621 730 LINE",
"518 730 LINE",
"369 514 LINE SMOOTH",
"353 491 OFFCURVE",
"336 462 OFFCURVE",
"327 447 CURVE",
"321 462 OFFCURVE",
"310 491 OFFCURVE",
"302 514 CURVE SMOOTH",
"223 730 LINE",
"123 730 LINE",
"264 372 LINE",
"-4 0 LINE"
);
}
);
width = 600;
},
{
anchors = (
{
name = top;
position = "{372, 730}";
}
);
layerId = "EDF5EB54-295C-4C90-9A2F-67CD82979CFF";
paths = (
{
closed = 1;
nodes = (
"66 0 LINE",
"246 252 LINE SMOOTH",
"261 273 OFFCURVE",
"292 316 OFFCURVE",
"313 344 CURVE",
"324 316 OFFCURVE",
"345 273 OFFCURVE",
"353 252 CURVE SMOOTH",
"449 0 LINE",
"503 0 LINE",
"346 381 LINE",
"604 730 LINE",
"548 730 LINE",
"388 508 LINE SMOOTH",
"372 485 OFFCURVE",
"340 442 OFFCURVE",
"321 416 CURVE",
"309 443 OFFCURVE",
"289 485 OFFCURVE",
"280 508 CURVE SMOOTH",
"194 730 LINE",
"140 730 LINE",
"287 381 LINE",
"9 0 LINE"
);
}
);
width = 600;
}
);
unicode = 0058;
},
{
glyphname = Y;
layers = (
{
anchors = (
{
name = bottom;
position = "{256, 0}";
},
{
name = top;
position = "{372, 730}";
}
);
layerId = "9ADF6715-3D0F-493D-8567-18A6FBCFC567";
paths = (
{
closed = 1;
nodes = (
"331 0 LINE",
"372 260 LINE",
"657 730 LINE",
"497 730 LINE",
"373 510 LINE SMOOTH",
"348 466 OFFCURVE",
"327 410 OFFCURVE",
"316 380 CURVE",
"315 410 OFFCURVE",
"308 466 OFFCURVE",
"297 510 CURVE SMOOTH",
"240 730 LINE",
"87 730 LINE",
"222 260 LINE",
"181 0 LINE"
);
}
);
width = 600;
},
{
anchors = (
{
name = bottom;
position = "{256, 0}";
},
{
name = top;
position = "{372, 730}";
}
);
layerId = "CCC0BD40-BA8C-414E-B576-CF0B94E6C996";
paths = (
{
closed = 1;
nodes = (
"301 0 LINE",
"344 273 LINE",
"637 730 LINE",
"542 730 LINE",
"352 430 LINE SMOOTH",
"331 397 OFFCURVE",
"318 372 OFFCURVE",
"313 362 CURVE",
"312 372 OFFCURVE",
"306 397 OFFCURVE",
"295 430 CURVE SMOOTH",
"198 730 LINE",
"107 730 LINE",
"254 273 LINE",
"211 0 LINE"
);
}
);
width = 600;
},
{
anchors = (
{
name = bottom;
position = "{256, 0}";
},
{
name = top;
position = "{372, 730}";
}
);
layerId = "EDF5EB54-295C-4C90-9A2F-67CD82979CFF";
paths = (
{
closed = 1;
nodes = (
"281 0 LINE",
"325 280 LINE",
"622 730 LINE",
"568 730 LINE",
"351 400 LINE SMOOTH",
"331 370 OFFCURVE",
"315 342 OFFCURVE",
"307 330 CURVE",
"303 343 OFFCURVE",
"294 371 OFFCURVE",
"284 400 CURVE SMOOTH",
"172 730 LINE",
"122 730 LINE",
"275 280 LINE",
"231 0 LINE"
);
}
);
width = 600;
}
);
unicode = 0059;
},
{
glyphname = Z;
layers = (
{
anchors = (
{
name = top;
position = "{372, 730}";
}
);
layerId = "9ADF6715-3D0F-493D-8567-18A6FBCFC567";
paths = (
{
closed = 1;
nodes = (
"481 0 LINE",
"503 140 LINE",
"228 140 LINE",
"563 590 LINE",
"586 730 LINE",
"155 730 LINE",
"132 590 LINE",
"388 590 LINE",
"54 140 LINE",
"32 0 LINE"
);
}
);
width = 600;
},
{
anchors = (
{
name = top;
position = "{372, 730}";
}
);
layerId = "CCC0BD40-BA8C-414E-B576-CF0B94E6C996";
paths = (
{
closed = 1;
nodes = (
"471 0 LINE",
"484 82 LINE",
"148 82 LINE",
"562 640 LINE",
"577 730 LINE",
"162 730 LINE",
"149 648 LINE",
"470 648 LINE",
"55 90 LINE",
"41 0 LINE"
);
}
);
width = 600;
},
{
anchors = (
{
name = top;
position = "{372, 730}";
}
);
layerId = "EDF5EB54-295C-4C90-9A2F-67CD82979CFF";
paths = (
{
closed = 1;
nodes = (
"464 0 LINE",
"471 46 LINE",
"108 46 LINE",
"558 673 LINE",
"567 730 LINE",
"167 730 LINE",
"159 684 LINE",
"508 684 LINE",
"55 50 LINE",
"47 0 LINE"
);
}
);
width = 600;
}
);
unicode = 005A;
},
{
export = 0;
glyphname = K.ss00;
layers = (
{
anchors = (
{
name = bottom;
position = "{256, 0}";
},
{
name = top;
position = "{372, 730}";
}
);
layerId = "9ADF6715-3D0F-493D-8567-18A6FBCFC567";
paths = (
{
closed = 1;
nodes = (
"171 0 LINE",
"228 359 LINE",
"239 359 LINE",
"366 0 LINE",
"531 0 LINE",
"385 381 LINE",
"641 730 LINE",
"478 730 LINE",
"245 397 LINE",
"234 397 LINE",
"287 730 LINE",
"137 730 LINE",
"21 0 LINE"
);
}
);
width = 600;
},
{
anchors = (
{
name = bottom;
position = "{256, 0}";
},
{
name = top;
position = "{372, 730}";
}
);
layerId = "CCC0BD40-BA8C-414E-B576-CF0B94E6C996";
paths = (
{
closed = 1;
nodes = (
"138 0 LINE",
"196 366 LINE",
"213 366 LINE",
"412 0 LINE",
"516 0 LINE",
"309 370 LINE",
"622 730 LINE",
"522 730 LINE",
"220 389 LINE",
"200 389 LINE",
"254 730 LINE",
"164 730 LINE",
"48 0 LINE"
);
}
);
width = 600;
},
{
anchors = (
{
name = bottom;
position = "{256, 0}";
},
{
name = top;
position = "{372, 730}";
}
);
layerId = "EDF5EB54-295C-4C90-9A2F-67CD82979CFF";
paths = (
{
closed = 1;
nodes = (
"116 0 LINE",
"175 370 LINE",
"197 370 LINE",
"433 0 LINE",
"496 0 LINE",
"253 375 LINE",
"602 730 LINE",
"539 730 LINE",
"200 387 LINE",
"177 387 LINE",
"232 730 LINE",
"182 730 LINE",
"66 0 LINE"
);
}
);
width = 600;
}
);
},
{
glyphname = a;
layers = (
{
anchors = (
{
name = bottom;
position = "{261, 0}";
},
{
name = ogonek;
position = "{390, 0}";
},
{
name = top;
position = "{348, 550}";
}
);
layerId = "9ADF6715-3D0F-493D-8567-18A6FBCFC567";
paths = (
{
closed = 1;
nodes = (
"288 -10 OFFCURVE",
"352 45 OFFCURVE",
"367 140 CURVE",
"327 105 LINE",
"362 105 LINE",
"345 0 LINE",
"490 0 LINE",
"577 550 LINE",
"428 550 LINE",
"415 445 LINE",
"380 445 LINE",
"410 410 LINE",
"425 505 OFFCURVE",
"379 560 OFFCURVE",
"288 560 CURVE SMOOTH",
"177 560 OFFCURVE",
"93 476 OFFCURVE",
"71 345 CURVE SMOOTH",
"48 205 LINE SMOOTH",
"26 73 OFFCURVE",
"86 -10 OFFCURVE",
"197 -10 CURVE SMOOTH"
);
},
{
closed = 1;
nodes = (
"216 120 OFFCURVE",
"190 152 OFFCURVE",
"199 210 CURVE SMOOTH",
"220 340 LINE SMOOTH",
"229 397 OFFCURVE",
"265 430 OFFCURVE",
"321 430 CURVE SMOOTH",
"376 430 OFFCURVE",
"403 397 OFFCURVE",
"394 340 CURVE SMOOTH",
"373 210 LINE SMOOTH",
"364 152 OFFCURVE",
"327 120 OFFCURVE",
"272 120 CURVE SMOOTH"
);
}
);
width = 600;
},
{
anchors = (
{
name = bottom;
position = "{261, 0}";
},
{
name = ogonek;
position = "{410, 0}";
},
{
name = top;
position = "{348, 550}";
}
);
layerId = "EDF5EB54-295C-4C90-9A2F-67CD82979CFF";
paths = (
{
closed = 1;
nodes = (
"337 -10 OFFCURVE",
"414 49 OFFCURVE",
"428 140 CURVE",
"380 75 LINE",
"408 75 LINE",
"396 0 LINE",
"446 0 LINE",
"533 550 LINE",
"483 550 LINE",
"471 475 LINE",
"453 475 LINE",
"471 410 LINE",
"485 501 OFFCURVE",
"428 560 OFFCURVE",
"332 560 CURVE SMOOTH",
"222 560 OFFCURVE",
"137 480 OFFCURVE",
"118 360 CURVE SMOOTH",
"91 189 LINE SMOOTH",
"72 69 OFFCURVE",
"131 -10 OFFCURVE",
"241 -10 CURVE SMOOTH"
);
},
{
closed = 1;
nodes = (
"169 33 OFFCURVE",
"126 91 OFFCURVE",
"141 189 CURVE SMOOTH",
"168 360 LINE SMOOTH",
"183 458 OFFCURVE",
"246 517 OFFCURVE",
"335 517 CURVE SMOOTH",
"426 517 OFFCURVE",
"468 458 OFFCURVE",
"453 360 CURVE SMOOTH",
"426 189 LINE SMOOTH",
"411 91 OFFCURVE",
"348 33 OFFCURVE",
"258 33 CURVE SMOOTH"
);
}
);
width = 600;
},
{
anchors = (
{
name = bottom;
position = "{261, 0}";
},
{
name = ogonek;
position = "{420, 0}";
},
{
name = top;
position = "{348, 550}";
}
);
layerId = "CCC0BD40-BA8C-414E-B576-CF0B94E6C996";
paths = (
{
closed = 1;
nodes = (
"314 -10 OFFCURVE",
"382 42 OFFCURVE",
"395 126 CURVE",
"374 105 LINE",
"392 105 LINE",
"375 0 LINE",
"465 0 LINE",
"552 550 LINE",
"462 550 LINE",
"447 445 LINE",
"427 445 LINE",
"442 424 LINE",
"455 507 OFFCURVE",
"404 560 OFFCURVE",
"314 560 CURVE SMOOTH",
"203 560 OFFCURVE",
"121 482 OFFCURVE",
"101 355 CURVE SMOOTH",
"76 194 LINE SMOOTH",
"56 68 OFFCURVE",
"113 -10 OFFCURVE",
"223 -10 CURVE SMOOTH"
);
},
{
closed = 1;
nodes = (
"190 68 OFFCURVE",
"154 115 OFFCURVE",
"167 200 CURVE SMOOTH",
"190 350 LINE SMOOTH",
"203 435 OFFCURVE",
"255 482 OFFCURVE",
"331 482 CURVE SMOOTH",
"405 482 OFFCURVE",
"443 433 OFFCURVE",
"430 350 CURVE SMOOTH",
"407 200 LINE SMOOTH",
"394 117 OFFCURVE",
"340 68 OFFCURVE",
"266 68 CURVE SMOOTH"
);
}
);
width = 600;
}
);
unicode = 0061;
},
{
glyphname = aogonek;
layers = (
{
components = (
{
name = a;
}
);
layerId = "EDF5EB54-295C-4C90-9A2F-67CD82979CFF";
paths = (
{
closed = 1;
nodes = (
"469 -195 LINE",
"476 -153 LINE",
"412 -153 LINE SMOOTH",
"380 -153 OFFCURVE",
"364 -134 OFFCURVE",
"369 -103 CURVE SMOOTH",
"373 -75 OFFCURVE",
"402 -36 OFFCURVE",
"446 0 CURVE",
"421 10 LINE",
"365 -27 OFFCURVE",
"326 -74 OFFCURVE",
"320 -115 CURVE SMOOTH",
"312 -165 OFFCURVE",
"341 -195 OFFCURVE",
"396 -195 CURVE"
);
}
);
width = 600;
},
{
components = (
{
name = a;
}
);
layerId = "CCC0BD40-BA8C-414E-B576-CF0B94E6C996";
paths = (
{
closed = 1;
nodes = (
"483 -203 LINE",
"492 -143 LINE",
"432 -143 LINE SMOOTH",
"398 -143 OFFCURVE",
"381 -122 OFFCURVE",
"385 -93 CURVE SMOOTH",
"390 -65 OFFCURVE",
"413 -37 OFFCURVE",
"464 0 CURVE",
"402 10 LINE",
"332 -34 OFFCURVE",
"304 -72 OFFCURVE",
"298 -110 CURVE SMOOTH",
"289 -164 OFFCURVE",
"331 -203 OFFCURVE",
"405 -203 CURVE SMOOTH"
);
}
);
width = 600;
},
{
components = (
{
name = a;
}
);
layerId = "9ADF6715-3D0F-493D-8567-18A6FBCFC567";
paths = (
{
closed = 1;
nodes = (
"510 -225 LINE",
"527 -120 LINE",
"458 -120 LINE SMOOTH",
"429 -120 OFFCURVE",
"415 -103 OFFCURVE",
"418 -83 CURVE SMOOTH",
"421 -66 OFFCURVE",
"439 -42 OFFCURVE",
"492 0 CURVE",
"420 11 LINE",
"347 -19 OFFCURVE",
"296 -68 OFFCURVE",
"289 -115 CURVE SMOOTH",
"278 -180 OFFCURVE",
"321 -225 OFFCURVE",
"402 -225 CURVE SMOOTH"
);
}
);
width = 600;
}
);
unicode = 0105;
},
{
glyphname = ae;
layers = (
{
anchors = (
{
name = top;
position = "{343, 550}";
}
);
layerId = "9ADF6715-3D0F-493D-8567-18A6FBCFC567";
paths = (
{
closed = 1;
nodes = (
"207 -10 OFFCURVE",
"251 33 OFFCURVE",
"262 65 CURVE",
"270 65 LINE",
"270 33 OFFCURVE",
"297 -10 OFFCURVE",
"374 -10 CURVE SMOOTH",
"461 -10 OFFCURVE",
"529 50 OFFCURVE",
"543 140 CURVE",
"428 140 LINE",
"423 106 OFFCURVE",
"403 87 OFFCURVE",
"374 87 CURVE SMOOTH",
"345 87 OFFCURVE",
"330 107 OFFCURVE",
"335 140 CURVE SMOOTH",
"353 250 LINE",
"561 250 LINE",
"586 410 LINE SMOOTH",
"600 500 OFFCURVE",
"552 560 OFFCURVE",
"465 560 CURVE SMOOTH",
"388 560 OFFCURVE",
"347 517 OFFCURVE",
"337 485 CURVE",
"329 485 LINE",
"329 517 OFFCURVE",
"302 560 OFFCURVE",
"226 560 CURVE SMOOTH",
"138 560 OFFCURVE",
"70 496 OFFCURVE",
"54 400 CURVE",
"169 400 LINE",
"176 440 OFFCURVE",
"197 463 OFFCURVE",
"228 463 CURVE SMOOTH",
"256 463 OFFCURVE",
"269 443 OFFCURVE",
"264 410 CURVE SMOOTH",
"251 330 LINE",
"208 330 LINE SMOOTH",
"109 330 OFFCURVE",
"34 274 OFFCURVE",
"21 190 CURVE SMOOTH",
"13 140 LINE SMOOTH",
"-1 50 OFFCURVE",
"44 -10 OFFCURVE",
"126 -10 CURVE SMOOTH"
);
},
{
closed = 1;
nodes = (
"138 87 OFFCURVE",
"123 107 OFFCURVE",
"128 140 CURVE SMOOTH",
"136 190 LINE SMOOTH",
"142 228 OFFCURVE",
"165 250 OFFCURVE",
"196 250 CURVE SMOOTH",
"239 250 LINE",
"221 140 LINE SMOOTH",
"216 107 OFFCURVE",
"197 87 OFFCURVE",
"169 87 CURVE SMOOTH"
);
},
{
closed = 1;
nodes = (
"378 410 LINE SMOOTH",
"383 443 OFFCURVE",
"403 463 OFFCURVE",
"433 463 CURVE SMOOTH",
"462 463 OFFCURVE",
"477 444 OFFCURVE",
"471 410 CURVE SMOOTH",
"458 330 LINE",
"365 330 LINE"
);
}
);
width = 600;
},
{
anchors = (
{
name = top;
position = "{343, 550}";
}
);
layerId = "CCC0BD40-BA8C-414E-B576-CF0B94E6C996";
paths = (
{
closed = 1;
nodes = (
"209 -10 OFFCURVE",
"257 36 OFFCURVE",
"268 70 CURVE",
"272 70 LINE",
"272 36 OFFCURVE",
"299 -10 OFFCURVE",
"374 -10 CURVE SMOOTH",
"461 -10 OFFCURVE",
"528 46 OFFCURVE",
"542 130 CURVE",
"457 130 LINE",
"450 91 OFFCURVE",
"420 67 OFFCURVE",
"377 67 CURVE SMOOTH",
"337 67 OFFCURVE",
"315 100 OFFCURVE",
"323 150 CURVE SMOOTH",
"339 255 LINE",
"561 255 LINE",
"584 400 LINE SMOOTH",
"600 499 OFFCURVE",
"555 560 OFFCURVE",
"465 560 CURVE SMOOTH",
"391 560 OFFCURVE",
"348 514 OFFCURVE",
"337 480 CURVE",
"333 480 LINE",
"332 514 OFFCURVE",
"303 560 OFFCURVE",
"225 560 CURVE SMOOTH",
"145 560 OFFCURVE",
"83 504 OFFCURVE",
"70 420 CURVE",
"155 420 LINE",
"161 458 OFFCURVE",
"189 483 OFFCURVE",
"227 483 CURVE SMOOTH",
"273 483 OFFCURVE",
"290 457 OFFCURVE",
"281 399 CURVE SMOOTH",
"269 325 LINE",
"195 325 LINE SMOOTH",
"102 325 OFFCURVE",
"34 272 OFFCURVE",
"21 190 CURVE SMOOTH",
"12 130 LINE SMOOTH",
"-2 44 OFFCURVE",
"41 -10 OFFCURVE",
"124 -10 CURVE SMOOTH"
);
},
{
closed = 1;
nodes = (
"117 67 OFFCURVE",
"95 91 OFFCURVE",
"102 130 CURVE SMOOTH",
"111 190 LINE SMOOTH",
"117 230 OFFCURVE",
"145 255 OFFCURVE",
"186 255 CURVE SMOOTH",
"258 255 LINE",
"242 150 LINE SMOOTH",
"234 100 OFFCURVE",
"200 67 OFFCURVE",
"157 67 CURVE SMOOTH"
);
},
{
closed = 1;
nodes = (
"362 400 LINE SMOOTH",
"370 450 OFFCURVE",
"400 483 OFFCURVE",
"442 483 CURVE SMOOTH",
"486 483 OFFCURVE",
"507 450 OFFCURVE",
"499 400 CURVE SMOOTH",
"487 325 LINE",
"350 325 LINE"
);
}
);
width = 600;
},
{
anchors = (
{
name = top;
position = "{343, 550}";
}
);
layerId = "EDF5EB54-295C-4C90-9A2F-67CD82979CFF";
paths = (
{
closed = 1;
nodes = (
"209 -10 OFFCURVE",
"256 38 OFFCURVE",
"269 75 CURVE",
"272 75 LINE",
"273 38 OFFCURVE",
"303 -10 OFFCURVE",
"380 -10 CURVE SMOOTH",
"461 -10 OFFCURVE",
"517 43 OFFCURVE",
"537 125 CURVE",
"487 125 LINE",
"473 72 OFFCURVE",
"437 35 OFFCURVE",
"385 35 CURVE SMOOTH",
"328 35 OFFCURVE",
"297 79 OFFCURVE",
"306 140 CURVE SMOOTH",
"326 268 LINE",
"558 268 LINE",
"581 410 LINE SMOOTH",
"595 500 OFFCURVE",
"552 560 OFFCURVE",
"468 560 CURVE SMOOTH",
"397 560 OFFCURVE",
"350 511 OFFCURVE",
"335 474 CURVE",
"333 474 LINE",
"332 511 OFFCURVE",
"302 560 OFFCURVE",
"225 560 CURVE SMOOTH",
"144 560 OFFCURVE",
"83 507 OFFCURVE",
"63 425 CURVE",
"113 425 LINE",
"127 478 OFFCURVE",
"169 516 OFFCURVE",
"221 516 CURVE SMOOTH",
"277 516 OFFCURVE",
"309 471 OFFCURVE",
"299 410 CURVE SMOOTH",
"284 313 LINE",
"176 313 LINE SMOOTH",
"95 313 OFFCURVE",
"38 263 OFFCURVE",
"25 185 CURVE SMOOTH",
"18 139 LINE SMOOTH",
"4 50 OFFCURVE",
"45 -10 OFFCURVE",
"128 -10 CURVE SMOOTH"
);
},
{
closed = 1;
nodes = (
"88 32 OFFCURVE",
"58 77 OFFCURVE",
"68 139 CURVE SMOOTH",
"75 185 LINE SMOOTH",
"83 234 OFFCURVE",
"121 268 OFFCURVE",
"168 268 CURVE SMOOTH",
"276 268 LINE",
"256 140 LINE SMOOTH",
"246 78 OFFCURVE",
"199 32 OFFCURVE",
"144 32 CURVE SMOOTH"
);
},
{
closed = 1;
nodes = (
"349 410 LINE SMOOTH",
"358 470 OFFCURVE",
"404 516 OFFCURVE",
"458 516 CURVE SMOOTH",
"512 516 OFFCURVE",
"540 470 OFFCURVE",
"531 410 CURVE SMOOTH",
"516 313 LINE",
"334 313 LINE"
);
}
);
width = 600;
}
);
unicode = 00E6;
},
{
glyphname = b;
layers = (
{
layerId = "9ADF6715-3D0F-493D-8567-18A6FBCFC567";
paths = (
{
closed = 1;
nodes = (
"422 -10 OFFCURVE",
"508 73 OFFCURVE",
"528 205 CURVE SMOOTH",
"551 345 LINE SMOOTH",
"571 476 OFFCURVE",
"513 560 OFFCURVE",
"402 560 CURVE SMOOTH",
"311 560 OFFCURVE",
"247 505 OFFCURVE",
"232 410 CURVE",
"272 445 LINE",
"237 445 LINE",
"264 580 LINE",
"288 730 LINE",
"138 730 LINE",
"22 0 LINE",
"167 0 LINE",
"184 105 LINE",
"219 105 LINE",
"189 140 LINE",
"174 45 OFFCURVE",
"220 -10 OFFCURVE",
"311 -10 CURVE SMOOTH"
);
},
{
closed = 1;
nodes = (
"223 120 OFFCURVE",
"196 152 OFFCURVE",
"205 210 CURVE SMOOTH",
"226 340 LINE SMOOTH",
"235 397 OFFCURVE",
"272 430 OFFCURVE",
"327 430 CURVE SMOOTH",
"383 430 OFFCURVE",
"409 397 OFFCURVE",
"400 340 CURVE SMOOTH",
"379 210 LINE SMOOTH",
"370 152 OFFCURVE",
"334 120 OFFCURVE",
"278 120 CURVE SMOOTH"
);
}
);
width = 600;
},
{
layerId = "CCC0BD40-BA8C-414E-B576-CF0B94E6C996";
paths = (
{
closed = 1;
nodes = (
"396 -10 OFFCURVE",
"479 68 OFFCURVE",
"499 194 CURVE SMOOTH",
"524 355 LINE SMOOTH",
"544 482 OFFCURVE",
"488 560 OFFCURVE",
"377 560 CURVE SMOOTH",
"287 560 OFFCURVE",
"218 507 OFFCURVE",
"205 424 CURVE",
"226 445 LINE",
"206 445 LINE",
"228 570 LINE",
"254 730 LINE",
"164 730 LINE",
"48 0 LINE",
"138 0 LINE",
"155 105 LINE",
"173 105 LINE",
"158 126 LINE",
"145 42 OFFCURVE",
"195 -10 OFFCURVE",
"286 -10 CURVE SMOOTH"
);
},
{
closed = 1;
nodes = (
"195 68 OFFCURVE",
"157 117 OFFCURVE",
"170 200 CURVE SMOOTH",
"193 350 LINE SMOOTH",
"207 433 OFFCURVE",
"260 482 OFFCURVE",
"334 482 CURVE SMOOTH",
"410 482 OFFCURVE",
"447 435 OFFCURVE",
"433 350 CURVE SMOOTH",
"410 200 LINE SMOOTH",
"396 115 OFFCURVE",
"345 68 OFFCURVE",
"269 68 CURVE SMOOTH"
);
}
);
width = 600;
},
{
layerId = "EDF5EB54-295C-4C90-9A2F-67CD82979CFF";
paths = (
{
closed = 1;
nodes = (
"377 -10 OFFCURVE",
"462 69 OFFCURVE",
"481 189 CURVE SMOOTH",
"508 360 LINE SMOOTH",
"527 480 OFFCURVE",
"468 560 OFFCURVE",
"358 560 CURVE SMOOTH",
"262 560 OFFCURVE",
"185 501 OFFCURVE",
"171 410 CURVE",
"209 475 LINE",
"191 475 LINE",
"208 580 LINE",
"232 730 LINE",
"182 730 LINE",
"66 0 LINE",
"116 0 LINE",
"128 75 LINE",
"156 75 LINE",
"128 140 LINE",
"114 49 OFFCURVE",
"171 -10 OFFCURVE",
"267 -10 CURVE SMOOTH"
);
},
{
closed = 1;
nodes = (
"174 33 OFFCURVE",
"130 91 OFFCURVE",
"146 189 CURVE SMOOTH",
"173 360 LINE SMOOTH",
"189 458 OFFCURVE",
"250 517 OFFCURVE",
"341 517 CURVE SMOOTH",
"430 517 OFFCURVE",
"474 458 OFFCURVE",
"458 360 CURVE SMOOTH",
"431 189 LINE SMOOTH",
"415 91 OFFCURVE",
"353 33 OFFCURVE",
"264 33 CURVE SMOOTH"
);
}
);
width = 600;
}
);
unicode = 0062;
},
{
glyphname = c;
layers = (
{
anchors = (
{
name = bottom;
position = "{259, 0}";
},
{
name = top;
position = "{346, 550}";
}
);
layerId = "9ADF6715-3D0F-493D-8567-18A6FBCFC567";
paths = (
{
closed = 1;
nodes = (
"402 -10 OFFCURVE",
"508 68 OFFCURVE",
"533 195 CURVE",
"383 195 LINE",
"371 147 OFFCURVE",
"333 120 OFFCURVE",
"278 120 CURVE SMOOTH",
"218 120 OFFCURVE",
"190 152 OFFCURVE",
"199 210 CURVE SMOOTH",
"220 340 LINE SMOOTH",
"229 398 OFFCURVE",
"267 430 OFFCURVE",
"327 430 CURVE SMOOTH",
"381 430 OFFCURVE",
"412 402 OFFCURVE",
"408 355 CURVE",
"558 355 LINE",
"573 482 OFFCURVE",
"493 560 OFFCURVE",
"348 560 CURVE SMOOTH",
"201 560 OFFCURVE",
"91 473 OFFCURVE",
"70 340 CURVE SMOOTH",
"49 210 LINE SMOOTH",
"28 77 OFFCURVE",
"110 -10 OFFCURVE",
"257 -10 CURVE SMOOTH"
);
}
);
width = 600;
},
{
anchors = (
{
name = bottom;
position = "{260, 0}";
},
{
name = top;
position = "{347, 550}";
}
);
layerId = "CCC0BD40-BA8C-414E-B576-CF0B94E6C996";
paths = (
{
closed = 1;
nodes = (
"385 -10 OFFCURVE",
"480 63 OFFCURVE",
"503 180 CURVE",
"413 180 LINE",
"397 110 OFFCURVE",
"345 70 OFFCURVE",
"271 70 CURVE SMOOTH",
"192 70 OFFCURVE",
"153 117 OFFCURVE",
"166 200 CURVE SMOOTH",
"190 351 LINE SMOOTH",
"203 433 OFFCURVE",
"257 480 OFFCURVE",
"336 480 CURVE SMOOTH",
"410 480 OFFCURVE",
"450 440 OFFCURVE",
"443 370 CURVE",
"533 370 LINE",
"547 487 OFFCURVE",
"476 560 OFFCURVE",
"349 560 CURVE SMOOTH",
"216 560 OFFCURVE",
"120 481 OFFCURVE",
"99 350 CURVE SMOOTH",
"76 200 LINE SMOOTH",
"55 69 OFFCURVE",
"125 -10 OFFCURVE",
"258 -10 CURVE SMOOTH"
);
}
);
visible = 1;
width = 600;
},
{
anchors = (
{
name = bottom;
position = "{258, 0}";
},
{
name = top;
position = "{345, 550}";
}
);
layerId = "EDF5EB54-295C-4C90-9A2F-67CD82979CFF";
paths = (
{
closed = 1;
nodes = (
"377 -10 OFFCURVE",
"466 64 OFFCURVE",
"485 180 CURVE",
"435 180 LINE",
"420 90 OFFCURVE",
"356 36 OFFCURVE",
"264 36 CURVE SMOOTH",
"173 36 OFFCURVE",
"126 94 OFFCURVE",
"141 190 CURVE SMOOTH",
"168 360 LINE SMOOTH",
"183 457 OFFCURVE",
"248 514 OFFCURVE",
"339 514 CURVE SMOOTH",
"431 514 OFFCURVE",
"479 460 OFFCURVE",
"465 370 CURVE",
"515 370 LINE",
"533 486 OFFCURVE",
"468 560 OFFCURVE",
"347 560 CURVE SMOOTH",
"227 560 OFFCURVE",
"137 481 OFFCURVE",
"118 360 CURVE SMOOTH",
"91 190 LINE SMOOTH",
"72 68 OFFCURVE",
"135 -10 OFFCURVE",
"256 -10 CURVE SMOOTH"
);
}
);
width = 600;
}
);
unicode = 0063;
},
{
glyphname = ccedilla;
layers = (
{
anchors = (
{
name = _bottom;
position = "{258, 0}";
}
);
components = (
{
name = c;
}
);
layerId = "EDF5EB54-295C-4C90-9A2F-67CD82979CFF";
paths = (
{
closed = 1;
nodes = (
"217 -195 LINE SMOOTH",
"277 -195 OFFCURVE",
"323 -161 OFFCURVE",
"329 -118 CURVE SMOOTH",
"338 -61 OFFCURVE",
"279 -37 OFFCURVE",
"233 -34 CURVE",
"265 26 LINE",
"223 26 LINE",
"174 -64 LINE",
"245 -64 OFFCURVE",
"288 -86 OFFCURVE",
"283 -118 CURVE SMOOTH",
"280 -140 OFFCURVE",
"255 -160 OFFCURVE",
"223 -160 CURVE SMOOTH",
"143 -160 LINE",
"137 -195 LINE"
);
}
);
width = 600;
},
{
anchors = (
{
name = _bottom;
position = "{260, 0}";
}
);
components = (
{
name = c;
}
);
layerId = "CCC0BD40-BA8C-414E-B576-CF0B94E6C996";
paths = (
{
closed = 1;
nodes = (
"218 -203 LINE SMOOTH",
"290 -203 OFFCURVE",
"344 -166 OFFCURVE",
"351 -120 CURVE SMOOTH",
"359 -68 OFFCURVE",
"296 -41 OFFCURVE",
"244 -35 CURVE",
"275 26 LINE",
"218 26 LINE",
"168 -69 LINE",
"235 -69 OFFCURVE",
"270 -89 OFFCURVE",
"266 -112 CURVE SMOOTH",
"263 -130 OFFCURVE",
"241 -148 OFFCURVE",
"212 -148 CURVE SMOOTH",
"142 -148 LINE",
"133 -203 LINE"
);
}
);
width = 600;
},
{
anchors = (
{
name = _bottom;
position = "{259, 0}";
}
);
components = (
{
name = c;
}
);
layerId = "9ADF6715-3D0F-493D-8567-18A6FBCFC567";
paths = (
{
closed = 1;
nodes = (
"223 -225 LINE SMOOTH",
"307 -225 OFFCURVE",
"370 -182 OFFCURVE",
"378 -133 CURVE SMOOTH",
"388 -72 OFFCURVE",
"311 -43 OFFCURVE",
"251 -39 CURVE",
"279 16 LINE",
"206 16 LINE",
"157 -69 LINE",
"230 -69 OFFCURVE",
"270 -88 OFFCURVE",
"265 -119 CURVE SMOOTH",
"263 -135 OFFCURVE",
"237 -155 OFFCURVE",
"204 -155 CURVE SMOOTH",
"124 -155 LINE",
"113 -225 LINE"
);
}
);
width = 600;
}
);
unicode = 00E7;
},
{
glyphname = d;
layers = (
{
layerId = "9ADF6715-3D0F-493D-8567-18A6FBCFC567";
paths = (
{
closed = 1;
nodes = (
"288 -10 OFFCURVE",
"352 45 OFFCURVE",
"367 140 CURVE",
"327 105 LINE",
"362 105 LINE",
"345 0 LINE",
"490 0 LINE",
"606 730 LINE",
"456 730 LINE",
"432 580 LINE",
"415 445 LINE",
"380 445 LINE",
"410 410 LINE",
"425 505 OFFCURVE",
"379 560 OFFCURVE",
"288 560 CURVE SMOOTH",
"177 560 OFFCURVE",
"91 476 OFFCURVE",
"71 345 CURVE SMOOTH",
"48 205 LINE SMOOTH",
"28 73 OFFCURVE",
"86 -10 OFFCURVE",
"197 -10 CURVE SMOOTH"
);
},
{
closed = 1;
nodes = (
"216 120 OFFCURVE",
"190 152 OFFCURVE",
"199 210 CURVE SMOOTH",
"220 340 LINE SMOOTH",
"229 397 OFFCURVE",
"265 430 OFFCURVE",
"321 430 CURVE SMOOTH",
"376 430 OFFCURVE",
"403 397 OFFCURVE",
"394 340 CURVE SMOOTH",
"373 210 LINE SMOOTH",
"364 152 OFFCURVE",
"327 120 OFFCURVE",
"272 120 CURVE SMOOTH"
);
}
);
width = 600;
},
{
layerId = "CCC0BD40-BA8C-414E-B576-CF0B94E6C996";
paths = (
{
closed = 1;
nodes = (
"314 -10 OFFCURVE",
"382 42 OFFCURVE",
"395 126 CURVE",
"374 105 LINE",
"392 105 LINE",
"375 0 LINE",
"465 0 LINE",
"581 730 LINE",
"491 730 LINE",
"465 570 LINE",
"447 445 LINE",
"427 445 LINE",
"442 424 LINE",
"455 507 OFFCURVE",
"404 560 OFFCURVE",
"314 560 CURVE SMOOTH",
"203 560 OFFCURVE",
"121 482 OFFCURVE",
"101 355 CURVE SMOOTH",
"76 194 LINE SMOOTH",
"56 68 OFFCURVE",
"113 -10 OFFCURVE",
"223 -10 CURVE SMOOTH"
);
},
{
closed = 1;
nodes = (
"190 68 OFFCURVE",
"153 115 OFFCURVE",
"167 200 CURVE SMOOTH",
"190 350 LINE SMOOTH",
"204 435 OFFCURVE",
"255 482 OFFCURVE",
"331 482 CURVE SMOOTH",
"405 482 OFFCURVE",
"444 433 OFFCURVE",
"430 350 CURVE SMOOTH",
"407 200 LINE SMOOTH",
"394 117 OFFCURVE",
"340 68 OFFCURVE",
"266 68 CURVE SMOOTH"
);
}
);
width = 600;
},
{
layerId = "EDF5EB54-295C-4C90-9A2F-67CD82979CFF";
paths = (
{
closed = 1;
nodes = (
"337 -10 OFFCURVE",
"414 49 OFFCURVE",
"428 140 CURVE",
"380 75 LINE",
"408 75 LINE",
"396 0 LINE",
"446 0 LINE",
"562 730 LINE",
"512 730 LINE",
"488 580 LINE",
"471 475 LINE",
"453 475 LINE",
"471 410 LINE",
"485 501 OFFCURVE",
"428 560 OFFCURVE",
"332 560 CURVE SMOOTH",
"222 560 OFFCURVE",
"137 480 OFFCURVE",
"118 360 CURVE SMOOTH",
"91 189 LINE SMOOTH",
"72 69 OFFCURVE",
"131 -10 OFFCURVE",
"241 -10 CURVE SMOOTH"
);
},
{
closed = 1;
nodes = (
"169 33 OFFCURVE",
"125 91 OFFCURVE",
"141 189 CURVE SMOOTH",
"168 360 LINE SMOOTH",
"184 458 OFFCURVE",
"246 517 OFFCURVE",
"335 517 CURVE SMOOTH",
"426 517 OFFCURVE",
"469 458 OFFCURVE",
"453 360 CURVE SMOOTH",
"426 189 LINE SMOOTH",
"410 91 OFFCURVE",
"348 33 OFFCURVE",
"258 33 CURVE SMOOTH"
);
}
);
width = 600;
}
);
unicode = 0064;
},
{
glyphname = eth;
layers = (
{
layerId = "9ADF6715-3D0F-493D-8567-18A6FBCFC567";
paths = (
{
closed = 1;
nodes = (
"415 0 OFFCURVE",
"531 96 OFFCURVE",
"556 251 CURVE SMOOTH",
"569 337 OFFCURVE",
"546 429 OFFCURVE",
"480 537 CURVE SMOOTH",
"439 604 LINE",
"552 641 LINE",
"567 747 LINE",
"386 687 LINE",
"361 730 LINE",
"208 730 LINE",
"261 642 LINE",
"158 608 LINE",
"143 501 LINE",
"313 558 LINE",
"354 489 LINE SMOOTH",
"400 412 OFFCURVE",
"408 380 OFFCURVE",
"406 375 CURVE",
"400 375 LINE",
"386 410 OFFCURVE",
"340 456 OFFCURVE",
"271 456 CURVE SMOOTH",
"150 456 OFFCURVE",
"54 368 OFFCURVE",
"33 236 CURVE SMOOTH",
"11 94 OFFCURVE",
"99 0 OFFCURVE",
"256 0 CURVE SMOOTH"
);
},
{
closed = 1;
nodes = (
"209 125 OFFCURVE",
"173 168 OFFCURVE",
"183 235 CURVE SMOOTH",
"194 302 OFFCURVE",
"244 345 OFFCURVE",
"311 345 CURVE SMOOTH",
"377 345 OFFCURVE",
"414 301 OFFCURVE",
"403 235 CURVE SMOOTH",
"393 168 OFFCURVE",
"343 125 OFFCURVE",
"276 125 CURVE SMOOTH"
);
}
);
width = 600;
},
{
layerId = "CCC0BD40-BA8C-414E-B576-CF0B94E6C996";
paths = (
{
closed = 1;
nodes = (
"392 -10 OFFCURVE",
"499 83 OFFCURVE",
"521 223 CURVE SMOOTH",
"535 308 OFFCURVE",
"515 410 OFFCURVE",
"466 493 CURVE SMOOTH",
"401 604 LINE",
"521 653 LINE",
"533 735 LINE",
"366 668 LINE",
"332 730 LINE",
"237 730 LINE",
"292 633 LINE",
"164 577 LINE",
"151 496 LINE",
"327 569 LINE",
"377 480 LINE SMOOTH",
"405 430 OFFCURVE",
"421 393 OFFCURVE",
"425 380 CURVE",
"411 380 LINE",
"400 404 OFFCURVE",
"364 436 OFFCURVE",
"306 436 CURVE SMOOTH",
"179 436 OFFCURVE",
"81 348 OFFCURVE",
"60 215 CURVE SMOOTH",
"39 80 OFFCURVE",
"116 -10 OFFCURVE",
"253 -10 CURVE SMOOTH"
);
},
{
closed = 1;
nodes = (
"183 70 OFFCURVE",
"136 128 OFFCURVE",
"150 215 CURVE SMOOTH",
"164 302 OFFCURVE",
"229 360 OFFCURVE",
"312 360 CURVE SMOOTH",
"397 360 OFFCURVE",
"444 302 OFFCURVE",
"430 215 CURVE SMOOTH",
"416 128 OFFCURVE",
"351 70 OFFCURVE",
"266 70 CURVE SMOOTH"
);
}
);
width = 600;
},
{
layerId = "EDF5EB54-295C-4C90-9A2F-67CD82979CFF";
paths = (
{
closed = 1;
nodes = (
"388 -10 OFFCURVE",
"488 78 OFFCURVE",
"510 213 CURVE SMOOTH",
"524 302 OFFCURVE",
"499 403 OFFCURVE",
"433 517 CURVE SMOOTH",
"379 610 LINE",
"524 673 LINE",
"530 717 LINE",
"360 644 LINE",
"314 730 LINE",
"264 730 LINE",
"323 628 LINE",
"161 557 LINE",
"155 513 LINE",
"342 594 LINE",
"398 491 LINE SMOOTH",
"437 419 OFFCURVE",
"453 366 OFFCURVE",
"456 347 CURVE",
"453 347 LINE",
"437 385 OFFCURVE",
"388 436 OFFCURVE",
"315 436 CURVE SMOOTH",
"186 436 OFFCURVE",
"91 350 OFFCURVE",
"70 215 CURVE SMOOTH",
"49 79 OFFCURVE",
"121 -10 OFFCURVE",
"254 -10 CURVE SMOOTH"
);
},
{
closed = 1;
nodes = (
"161 40 OFFCURVE",
"108 108 OFFCURVE",
"125 215 CURVE SMOOTH",
"142 322 OFFCURVE",
"217 390 OFFCURVE",
"318 390 CURVE SMOOTH",
"413 390 OFFCURVE",
"471 318 OFFCURVE",
"455 216 CURVE SMOOTH",
"438 109 OFFCURVE",
"362 40 OFFCURVE",
"262 40 CURVE SMOOTH"
);
}
);
width = 600;
}
);
unicode = 00F0;
},
{
glyphname = dcaron;
layers = (
{
layerId = "9ADF6715-3D0F-493D-8567-18A6FBCFC567";
paths = (
{
closed = 1;
nodes = (
"648 550 LINE",
"687 730 LINE",
"577 730 LINE",
"548 550 LINE"
);
},
{
closed = 1;
nodes = (
"234 -10 OFFCURVE",
"293 48 OFFCURVE",
"307 140 CURVE",
"267 105 LINE",
"302 105 LINE",
"285 0 LINE",
"420 0 LINE",
"536 730 LINE",
"396 730 LINE",
"372 580 LINE",
"355 445 LINE",
"320 445 LINE",
"350 410 LINE",
"365 502 OFFCURVE",
"325 560 OFFCURVE",
"248 560 CURVE SMOOTH",
"148 560 OFFCURVE",
"72 479 OFFCURVE",
"52 351 CURVE SMOOTH",
"28 200 LINE SMOOTH",
"7 71 OFFCURVE",
"57 -10 OFFCURVE",
"157 -10 CURVE SMOOTH"
);
},
{
closed = 1;
nodes = (
"182 110 OFFCURVE",
"159 145 OFFCURVE",
"168 205 CURVE SMOOTH",
"191 346 LINE SMOOTH",
"200 405 OFFCURVE",
"235 440 OFFCURVE",
"283 440 CURVE SMOOTH",
"325 440 OFFCURVE",
"344 405 OFFCURVE",
"335 346 CURVE SMOOTH",
"312 205 LINE SMOOTH",
"303 145 OFFCURVE",
"272 110 OFFCURVE",
"230 110 CURVE SMOOTH"
);
}
);
width = 600;
},
{
layerId = "CCC0BD40-BA8C-414E-B576-CF0B94E6C996";
paths = (
{
closed = 1;
nodes = (
"633 550 LINE",
"672 730 LINE",
"582 730 LINE",
"553 550 LINE"
);
},
{
closed = 1;
nodes = (
"265 -10 OFFCURVE",
"326 43 OFFCURVE",
"339 126 CURVE",
"318 105 LINE",
"336 105 LINE",
"319 0 LINE",
"409 0 LINE",
"525 730 LINE",
"435 730 LINE",
"409 570 LINE",
"391 445 LINE",
"371 445 LINE",
"386 424 LINE",
"399 507 OFFCURVE",
"356 560 OFFCURVE",
"273 560 CURVE SMOOTH",
"172 560 OFFCURVE",
"95 483 OFFCURVE",
"76 360 CURVE SMOOTH",
"49 189 LINE SMOOTH",
"30 67 OFFCURVE",
"81 -10 OFFCURVE",
"182 -10 CURVE SMOOTH"
);
},
{
closed = 1;
nodes = (
"159 68 OFFCURVE",
"127 115 OFFCURVE",
"140 195 CURVE SMOOTH",
"165 355 LINE SMOOTH",
"178 435 OFFCURVE",
"224 482 OFFCURVE",
"290 482 CURVE SMOOTH",
"356 482 OFFCURVE",
"388 435 OFFCURVE",
"375 355 CURVE SMOOTH",
"350 195 LINE SMOOTH",
"337 115 OFFCURVE",
"291 68 OFFCURVE",
"225 68 CURVE SMOOTH"
);
}
);
width = 600;
},
{
layerId = "EDF5EB54-295C-4C90-9A2F-67CD82979CFF";
paths = (
{
closed = 1;
nodes = (
"598 550 LINE",
"642 730 LINE",
"592 730 LINE",
"553 550 LINE"
);
},
{
closed = 1;
nodes = (
"310 -10 OFFCURVE",
"379 48 OFFCURVE",
"393 140 CURVE",
"345 75 LINE",
"373 75 LINE",
"361 0 LINE",
"411 0 LINE",
"527 730 LINE",
"477 730 LINE",
"453 580 LINE",
"436 475 LINE",
"418 475 LINE",
"436 410 LINE",
"451 502 OFFCURVE",
"401 560 OFFCURVE",
"307 560 CURVE SMOOTH",
"202 560 OFFCURVE",
"122 483 OFFCURVE",
"103 360 CURVE SMOOTH",
"76 189 LINE SMOOTH",
"57 67 OFFCURVE",
"111 -10 OFFCURVE",
"216 -10 CURVE SMOOTH"
);
},
{
closed = 1;
nodes = (
"152 33 OFFCURVE",
"111 93 OFFCURVE",
"126 189 CURVE SMOOTH",
"153 360 LINE SMOOTH",
"168 456 OFFCURVE",
"229 517 OFFCURVE",
"310 517 CURVE SMOOTH",
"392 517 OFFCURVE",
"433 456 OFFCURVE",
"418 360 CURVE SMOOTH",
"391 189 LINE SMOOTH",
"376 93 OFFCURVE",
"315 33 OFFCURVE",
"233 33 CURVE SMOOTH"
);
}
);
width = 600;
}
);
unicode = 010F;
},
{
glyphname = dcroat;
layers = (
{
layerId = "9ADF6715-3D0F-493D-8567-18A6FBCFC567";
paths = (
{
closed = 1;
nodes = (
"28 73 OFFCURVE",
"86 -10 OFFCURVE",
"197 -10 CURVE SMOOTH",
"276 -10 OFFCURVE",
"335 32 OFFCURVE",
"359 105 CURVE",
"362 105 LINE",
"345 0 LINE",
"490 0 LINE",
"578 555 LINE",
"644 555 LINE",
"658 645 LINE",
"592 645 LINE",
"606 730 LINE",
"456 730 LINE",
"442 645 LINE",
"298 645 LINE",
"284 555 LINE",
"428 555 LINE",
"422 520 LINE",
"406 385 LINE",
"403 385 LINE",
"403 458 OFFCURVE",
"357 500 OFFCURVE",
"278 500 CURVE SMOOTH",
"167 500 OFFCURVE",
"82 416 OFFCURVE",
"61 285 CURVE SMOOTH",
"48 205 LINE SMOOTH"
);
},
{
closed = 1;
nodes = (
"210 280 LINE SMOOTH",
"219 337 OFFCURVE",
"256 370 OFFCURVE",
"312 370 CURVE SMOOTH",
"367 370 OFFCURVE",
"393 337 OFFCURVE",
"384 280 CURVE SMOOTH",
"373 210 LINE SMOOTH",
"364 152 OFFCURVE",
"327 120 OFFCURVE",
"272 120 CURVE SMOOTH",
"216 120 OFFCURVE",
"190 152 OFFCURVE",
"199 210 CURVE SMOOTH"
);
}
);
width = 600;
},
{
layerId = "CCC0BD40-BA8C-414E-B576-CF0B94E6C996";
paths = (
{
closed = 1;
nodes = (
"57 68 OFFCURVE",
"112 -10 OFFCURVE",
"222 -10 CURVE SMOOTH",
"306 -10 OFFCURVE",
"367 33 OFFCURVE",
"387 105 CURVE",
"389 105 LINE",
"372 0 LINE",
"462 0 LINE",
"552 570 LINE",
"646 570 LINE",
"658 645 LINE",
"564 645 LINE",
"578 730 LINE",
"488 730 LINE",
"474 645 LINE",
"308 645 LINE",
"296 570 LINE",
"462 570 LINE",
"453 510 LINE",
"435 385 LINE",
"432 385 LINE",
"434 456 OFFCURVE",
"385 500 OFFCURVE",
"303 500 CURVE SMOOTH",
"192 500 OFFCURVE",
"113 422 OFFCURVE",
"93 295 CURVE SMOOTH",
"77 194 LINE SMOOTH"
);
},
{
closed = 1;
nodes = (
"182 290 LINE SMOOTH",
"195 375 OFFCURVE",
"245 422 OFFCURVE",
"321 422 CURVE SMOOTH",
"395 422 OFFCURVE",
"431 373 OFFCURVE",
"418 290 CURVE SMOOTH",
"404 200 LINE SMOOTH",
"391 117 OFFCURVE",
"339 68 OFFCURVE",
"265 68 CURVE SMOOTH",
"189 68 OFFCURVE",
"154 115 OFFCURVE",
"168 200 CURVE SMOOTH"
);
}
);
width = 600;
},
{
layerId = "EDF5EB54-295C-4C90-9A2F-67CD82979CFF";
paths = (
{
closed = 1;
nodes = (
"72 69 OFFCURVE",
"131 -10 OFFCURVE",
"241 -10 CURVE SMOOTH",
"312 -10 OFFCURVE",
"372 22 OFFCURVE",
"404 75 CURVE",
"408 75 LINE",
"396 0 LINE",
"446 0 LINE",
"539 586 LINE",
"639 586 LINE",
"646 631 LINE",
"546 631 LINE",
"562 730 LINE",
"512 730 LINE",
"496 631 LINE",
"316 631 LINE",
"309 586 LINE",
"489 586 LINE",
"478 520 LINE",
"462 415 LINE",
"458 415 LINE",
"443 468 OFFCURVE",
"393 500 OFFCURVE",
"322 500 CURVE SMOOTH",
"212 500 OFFCURVE",
"128 420 OFFCURVE",
"109 300 CURVE SMOOTH",
"91 189 LINE SMOOTH"
);
},
{
closed = 1;
nodes = (
"159 300 LINE SMOOTH",
"174 398 OFFCURVE",
"236 457 OFFCURVE",
"325 457 CURVE SMOOTH",
"416 457 OFFCURVE",
"459 398 OFFCURVE",
"444 300 CURVE SMOOTH",
"426 189 LINE SMOOTH",
"410 91 OFFCURVE",
"348 33 OFFCURVE",
"258 33 CURVE SMOOTH",
"169 33 OFFCURVE",
"125 91 OFFCURVE",
"141 189 CURVE SMOOTH"
);
}
);
width = 600;
}
);
unicode = 0111;
},
{
glyphname = e;
layers = (
{
anchors = (
{
name = bottom;
position = "{256, 0}";
},
{
name = ogonek;
position = "{305, 0}";
},
{
name = top;
position = "{343, 550}";
}
);
layerId = "9ADF6715-3D0F-493D-8567-18A6FBCFC567";
paths = (
{
closed = 1;
nodes = (
"374 -10 OFFCURVE",
"476 54 OFFCURVE",
"515 150 CURVE",
"368 150 LINE",
"354 122 OFFCURVE",
"323 105 OFFCURVE",
"276 105 CURVE SMOOTH",
"209 105 OFFCURVE",
"181 141 OFFCURVE",
"192 210 CURVE SMOOTH",
"197 240 LINE",
"534 240 LINE",
"550 340 LINE SMOOTH",
"571 472 OFFCURVE",
"492 560 OFFCURVE",
"346 560 CURVE SMOOTH",
"199 560 OFFCURVE",
"91 472 OFFCURVE",
"70 340 CURVE SMOOTH",
"49 210 LINE SMOOTH",
"28 78 OFFCURVE",
"108 -10 OFFCURVE",
"255 -10 CURVE SMOOTH"
);
},
{
closed = 1;
nodes = (
"415 327 LINE",
"210 325 LINE",
"213 340 LINE SMOOTH",
"224 408 OFFCURVE",
"262 447 OFFCURVE",
"328 447 CURVE SMOOTH",
"393 447 OFFCURVE",
"418 410 OFFCURVE",
"407 342 CURVE SMOOTH",
"403 317 LINE"
);
}
);
width = 600;
},
{
anchors = (
{
name = bottom;
position = "{256, 0}";
},
{
name = ogonek;
position = "{305, 0}";
},
{
name = top;
position = "{343, 550}";
}
);
layerId = "CCC0BD40-BA8C-414E-B576-CF0B94E6C996";
paths = (
{
closed = 1;
nodes = (
"370 -10 OFFCURVE",
"462 48 OFFCURVE",
"488 140 CURVE",
"398 140 LINE",
"380 91 OFFCURVE",
"335 66 OFFCURVE",
"266 66 CURVE SMOOTH",
"184 66 OFFCURVE",
"150 113 OFFCURVE",
"164 200 CURVE SMOOTH",
"172 253 LINE",
"508 253 LINE",
"523 350 LINE SMOOTH",
"544 477 OFFCURVE",
"475 560 OFFCURVE",
"345 560 CURVE SMOOTH",
"215 560 OFFCURVE",
"120 477 OFFCURVE",
"99 350 CURVE SMOOTH",
"76 200 LINE SMOOTH",
"56 73 OFFCURVE",
"124 -10 OFFCURVE",
"254 -10 CURVE SMOOTH"
);
},
{
closed = 1;
nodes = (
"438 321 LINE",
"183 321 LINE",
"187 350 LINE SMOOTH",
"201 437 OFFCURVE",
"251 485 OFFCURVE",
"333 485 CURVE SMOOTH",
"415 485 OFFCURVE",
"449 437 OFFCURVE",
"435 350 CURVE SMOOTH",
"430 313 LINE"
);
}
);
width = 600;
},
{
anchors = (
{
name = bottom;
position = "{256, 0}";
},
{
name = ogonek;
position = "{305, 0}";
},
{
name = top;
position = "{343, 550}";
}
);
layerId = "EDF5EB54-295C-4C90-9A2F-67CD82979CFF";
paths = (
{
closed = 1;
nodes = (
"358 -10 OFFCURVE",
"437 46 OFFCURVE",
"471 135 CURVE",
"421 135 LINE",
"392 72 OFFCURVE",
"336 34 OFFCURVE",
"262 34 CURVE SMOOTH",
"169 34 OFFCURVE",
"126 94 OFFCURVE",
"141 190 CURVE SMOOTH",
"153 265 LINE",
"493 265 LINE",
"508 360 LINE SMOOTH",
"527 481 OFFCURVE",
"467 560 OFFCURVE",
"346 560 CURVE SMOOTH",
"224 560 OFFCURVE",
"137 481 OFFCURVE",
"118 360 CURVE SMOOTH",
"91 190 LINE SMOOTH",
"72 68 OFFCURVE",
"132 -10 OFFCURVE",
"255 -10 CURVE SMOOTH"
);
},
{
closed = 1;
nodes = (
"461 308 LINE",
"160 308 LINE",
"168 360 LINE SMOOTH",
"183 457 OFFCURVE",
"245 516 OFFCURVE",
"339 516 CURVE SMOOTH",
"431 516 OFFCURVE",
"474 456 OFFCURVE",
"458 360 CURVE SMOOTH",
"448 299 LINE"
);
}
);
width = 600;
}
);
unicode = 0065;
},
{
glyphname = eogonek;
layers = (
{
anchors = (
{
name = top;
position = "{343, 550}";
}
);
layerId = "9ADF6715-3D0F-493D-8567-18A6FBCFC567";
paths = (
{
closed = 1;
nodes = (
"388 -225 LINE",
"405 -120 LINE",
"336 -120 LINE SMOOTH",
"307 -120 OFFCURVE",
"293 -103 OFFCURVE",
"296 -83 CURVE SMOOTH",
"299 -66 OFFCURVE",
"317 -42 OFFCURVE",
"347 -18 CURVE SMOOTH",
"406 29 LINE",
"454 58 OFFCURVE",
"494 99 OFFCURVE",
"515 150 CURVE",
"368 150 LINE",
"354 122 OFFCURVE",
"323 105 OFFCURVE",
"276 105 CURVE SMOOTH",
"209 105 OFFCURVE",
"181 141 OFFCURVE",
"192 210 CURVE SMOOTH",
"197 240 LINE",
"534 240 LINE",
"550 340 LINE SMOOTH",
"571 472 OFFCURVE",
"492 560 OFFCURVE",
"346 560 CURVE SMOOTH",
"199 560 OFFCURVE",
"91 472 OFFCURVE",
"70 340 CURVE SMOOTH",
"49 210 LINE SMOOTH",
"28 78 OFFCURVE",
"108 -10 OFFCURVE",
"255 -10 CURVE SMOOTH",
"290 -10 OFFCURVE",
"316 9 OFFCURVE",
"320 29 CURVE",
"225 -19 OFFCURVE",
"174 -68 OFFCURVE",
"167 -115 CURVE SMOOTH",
"156 -180 OFFCURVE",
"199 -225 OFFCURVE",
"280 -225 CURVE SMOOTH"
);
},
{
closed = 1;
nodes = (
"415 327 LINE",
"210 325 LINE",
"213 340 LINE SMOOTH",
"224 408 OFFCURVE",
"262 447 OFFCURVE",
"328 447 CURVE SMOOTH",
"393 447 OFFCURVE",
"418 410 OFFCURVE",
"407 342 CURVE SMOOTH",
"403 317 LINE"
);
}
);
width = 600;
},
{
anchors = (
{
name = top;
position = "{343, 550}";
}
);
layerId = "CCC0BD40-BA8C-414E-B576-CF0B94E6C996";
paths = (
{
closed = 1;
nodes = (
"375 -203 LINE",
"384 -143 LINE",
"324 -143 LINE SMOOTH",
"290 -143 OFFCURVE",
"273 -122 OFFCURVE",
"277 -93 CURVE SMOOTH",
"282 -65 OFFCURVE",
"305 -36 OFFCURVE",
"356 1 CURVE SMOOTH",
"374 14 LINE",
"430 39 OFFCURVE",
"472 83 OFFCURVE",
"488 140 CURVE",
"398 140 LINE",
"380 91 OFFCURVE",
"335 66 OFFCURVE",
"266 66 CURVE SMOOTH",
"184 66 OFFCURVE",
"150 113 OFFCURVE",
"164 200 CURVE SMOOTH",
"172 253 LINE",
"508 253 LINE",
"523 350 LINE SMOOTH",
"544 477 OFFCURVE",
"475 560 OFFCURVE",
"345 560 CURVE SMOOTH",
"215 560 OFFCURVE",
"120 477 OFFCURVE",
"99 350 CURVE SMOOTH",
"76 200 LINE SMOOTH",
"56 73 OFFCURVE",
"124 -10 OFFCURVE",
"254 -10 CURVE SMOOTH",
"257 -10 OFFCURVE",
"261 -10 OFFCURVE",
"264 -10 CURVE",
"220 -45 OFFCURVE",
"194 -80 OFFCURVE",
"190 -110 CURVE SMOOTH",
"181 -164 OFFCURVE",
"223 -203 OFFCURVE",
"297 -203 CURVE SMOOTH"
);
},
{
closed = 1;
nodes = (
"471 321 LINE",
"183 321 LINE",
"187 350 LINE SMOOTH",
"201 437 OFFCURVE",
"251 485 OFFCURVE",
"333 485 CURVE SMOOTH",
"415 485 OFFCURVE",
"449 437 OFFCURVE",
"435 350 CURVE SMOOTH",
"425 281 LINE"
);
}
);
width = 600;
},
{
anchors = (
{
name = top;
position = "{343, 550}";
}
);
layerId = "EDF5EB54-295C-4C90-9A2F-67CD82979CFF";
paths = (
{
closed = 1;
nodes = (
"374 -195 LINE",
"381 -153 LINE",
"317 -153 LINE SMOOTH",
"285 -153 OFFCURVE",
"269 -134 OFFCURVE",
"274 -103 CURVE SMOOTH",
"278 -75 OFFCURVE",
"307 -36 OFFCURVE",
"351 0 CURVE SMOOTH",
"382 24 LINE",
"423 50 OFFCURVE",
"453 88 OFFCURVE",
"471 135 CURVE",
"421 135 LINE",
"392 72 OFFCURVE",
"336 34 OFFCURVE",
"262 34 CURVE SMOOTH",
"169 34 OFFCURVE",
"126 94 OFFCURVE",
"141 190 CURVE SMOOTH",
"153 265 LINE",
"493 265 LINE",
"508 360 LINE SMOOTH",
"527 481 OFFCURVE",
"467 560 OFFCURVE",
"346 560 CURVE SMOOTH",
"224 560 OFFCURVE",
"137 481 OFFCURVE",
"118 360 CURVE SMOOTH",
"91 190 LINE SMOOTH",
"72 68 OFFCURVE",
"132 -10 OFFCURVE",
"255 -10 CURVE SMOOTH",
"272 -10 OFFCURVE",
"290 -8 OFFCURVE",
"305 -5 CURVE",
"253 -48 OFFCURVE",
"230 -84 OFFCURVE",
"225 -115 CURVE SMOOTH",
"217 -165 OFFCURVE",
"246 -195 OFFCURVE",
"301 -195 CURVE SMOOTH"
);
},
{
closed = 1;
nodes = (
"472 308 LINE",
"160 308 LINE",
"168 360 LINE SMOOTH",
"183 457 OFFCURVE",
"245 516 OFFCURVE",
"339 516 CURVE SMOOTH",
"431 516 OFFCURVE",
"473 456 OFFCURVE",
"458 360 CURVE SMOOTH",
"446 286 LINE"
);
}
);
width = 600;
}
);
unicode = 0119;
},
{
glyphname = schwa;
layers = (
{
layerId = "9ADF6715-3D0F-493D-8567-18A6FBCFC567";
paths = (
{
closed = 1;
nodes = (
"400 -10 OFFCURVE",
"508 78 OFFCURVE",
"529 210 CURVE SMOOTH",
"550 340 LINE SMOOTH",
"571 472 OFFCURVE",
"491 560 OFFCURVE",
"344 560 CURVE SMOOTH",
"225 560 OFFCURVE",
"124 496 OFFCURVE",
"84 400 CURVE",
"231 400 LINE",
"245 428 OFFCURVE",
"276 445 OFFCURVE",
"323 445 CURVE SMOOTH",
"390 445 OFFCURVE",
"418 409 OFFCURVE",
"407 340 CURVE SMOOTH",
"402 310 LINE",
"65 310 LINE",
"49 210 LINE SMOOTH",
"28 78 OFFCURVE",
"107 -10 OFFCURVE",
"253 -10 CURVE SMOOTH"
);
},
{
closed = 1;
nodes = (
"207 105 OFFCURVE",
"181 142 OFFCURVE",
"192 210 CURVE SMOOTH",
"196 235 LINE",
"185 225 LINE",
"389 225 LINE",
"386 210 LINE SMOOTH",
"375 142 OFFCURVE",
"338 105 OFFCURVE",
"272 105 CURVE SMOOTH"
);
}
);
width = 600;
},
{
layerId = "CCC0BD40-BA8C-414E-B576-CF0B94E6C996";
paths = (
{
closed = 1;
nodes = (
"384 -10 OFFCURVE",
"478 73 OFFCURVE",
"498 200 CURVE SMOOTH",
"521 350 LINE SMOOTH",
"542 477 OFFCURVE",
"475 560 OFFCURVE",
"345 560 CURVE SMOOTH",
"229 560 OFFCURVE",
"140 502 OFFCURVE",
"113 410 CURVE",
"203 410 LINE",
"221 459 OFFCURVE",
"264 484 OFFCURVE",
"333 484 CURVE SMOOTH",
"415 484 OFFCURVE",
"447 437 OFFCURVE",
"433 350 CURVE SMOOTH",
"425 297 LINE",
"93 297 LINE",
"78 200 LINE SMOOTH",
"58 73 OFFCURVE",
"124 -10 OFFCURVE",
"254 -10 CURVE SMOOTH"
);
},
{
closed = 1;
nodes = (
"184 65 OFFCURVE",
"152 113 OFFCURVE",
"166 200 CURVE SMOOTH",
"172 237 LINE",
"163 229 LINE",
"414 229 LINE",
"410 200 LINE SMOOTH",
"396 113 OFFCURVE",
"348 65 OFFCURVE",
"266 65 CURVE SMOOTH"
);
}
);
width = 600;
},
{
layerId = "EDF5EB54-295C-4C90-9A2F-67CD82979CFF";
paths = (
{
closed = 1;
nodes = (
"375 -10 OFFCURVE",
"462 69 OFFCURVE",
"481 190 CURVE SMOOTH",
"508 360 LINE SMOOTH",
"527 482 OFFCURVE",
"467 560 OFFCURVE",
"344 560 CURVE SMOOTH",
"241 560 OFFCURVE",
"162 504 OFFCURVE",
"128 415 CURVE",
"178 415 LINE",
"207 478 OFFCURVE",
"263 516 OFFCURVE",
"337 516 CURVE SMOOTH",
"430 516 OFFCURVE",
"473 456 OFFCURVE",
"458 360 CURVE SMOOTH",
"446 285 LINE",
"106 285 LINE",
"91 190 LINE SMOOTH",
"72 69 OFFCURVE",
"132 -10 OFFCURVE",
"253 -10 CURVE SMOOTH"
);
},
{
closed = 1;
nodes = (
"168 34 OFFCURVE",
"126 94 OFFCURVE",
"141 190 CURVE SMOOTH",
"151 251 LINE",
"138 242 LINE",
"439 242 LINE",
"431 190 LINE SMOOTH",
"416 93 OFFCURVE",
"354 34 OFFCURVE",
"260 34 CURVE SMOOTH"
);
}
);
width = 600;
}
);
unicode = 0259;
},
{
glyphname = f;
layers = (
{
layerId = "CCC0BD40-BA8C-414E-B576-CF0B94E6C996";
paths = (
{
closed = 1;
nodes = (
"73 -180 LINE SMOOTH",
"181 -180 OFFCURVE",
"255 -119 OFFCURVE",
"271 -20 CURVE SMOOTH",
"342 413 LINE",
"556 413 LINE",
"569 495 LINE",
"355 495 LINE",
"367 570 LINE SMOOTH",
"375 623 OFFCURVE",
"405 648 OFFCURVE",
"461 648 CURVE SMOOTH",
"587 648 LINE",
"600 730 LINE",
"475 730 LINE SMOOTH",
"367 730 OFFCURVE",
"293 669 OFFCURVE",
"277 570 CURVE SMOOTH",
"265 495 LINE",
"94 495 LINE",
"81 413 LINE",
"252 413 LINE",
"181 -20 LINE SMOOTH",
"172 -73 OFFCURVE",
"143 -98 OFFCURVE",
"87 -98 CURVE SMOOTH",
"13 -98 LINE",
"0 -180 LINE"
);
}
);
width = 600;
},
{
layerId = "EDF5EB54-295C-4C90-9A2F-67CD82979CFF";
paths = (
{
closed = 1;
nodes = (
"98 -180 LINE SMOOTH",
"179 -180 OFFCURVE",
"235 -133 OFFCURVE",
"248 -55 CURVE SMOOTH",
"331 449 LINE",
"550 449 LINE",
"557 494 LINE",
"338 494 LINE",
"356 605 LINE SMOOTH",
"364 656 OFFCURVE",
"397 685 OFFCURVE",
"448 685 CURVE SMOOTH",
"587 685 LINE",
"595 730 LINE",
"456 730 LINE SMOOTH",
"375 730 OFFCURVE",
"319 683 OFFCURVE",
"306 605 CURVE SMOOTH",
"288 494 LINE",
"104 494 LINE",
"97 449 LINE",
"281 449 LINE",
"198 -55 LINE SMOOTH",
"190 -106 OFFCURVE",
"157 -135 OFFCURVE",
"106 -135 CURVE SMOOTH",
"8 -135 LINE",
"0 -180 LINE"
);
}
);
width = 600;
},
{
layerId = "9ADF6715-3D0F-493D-8567-18A6FBCFC567";
paths = (
{
closed = 1;
nodes = (
"48 -180 LINE SMOOTH",
"189 -180 OFFCURVE",
"289 -106 OFFCURVE",
"308 14 CURVE SMOOTH",
"362 350 LINE",
"557 350 LINE",
"579 485 LINE",
"384 485 LINE",
"395 555 LINE SMOOTH",
"399 582 OFFCURVE",
"420 600 OFFCURVE",
"447 600 CURVE SMOOTH",
"579 600 LINE",
"600 730 LINE",
"463 730 LINE SMOOTH",
"349 730 OFFCURVE",
"262 662 OFFCURVE",
"246 560 CURVE SMOOTH",
"234 485 LINE",
"82 485 LINE",
"60 350 LINE",
"212 350 LINE",
"159 19 LINE SMOOTH",
"151 -31 OFFCURVE",
"115 -60 OFFCURVE",
"62 -60 CURVE SMOOTH",
"19 -60 LINE",
"0 -180 LINE"
);
}
);
width = 600;
}
);
unicode = 0066;
},
{
glyphname = g;
layers = (
{
anchors = (
{
name = top;
position = "{340, 550}";
}
);
layerId = "CCC0BD40-BA8C-414E-B576-CF0B94E6C996";
paths = (
{
closed = 1;
nodes = (
"264 -180 LINE SMOOTH",
"372 -180 OFFCURVE",
"446 -119 OFFCURVE",
"462 -20 CURVE SMOOTH",
"552 550 LINE",
"463 550 LINE",
"446 445 LINE",
"429 445 LINE",
"444 430 LINE",
"457 510 OFFCURVE",
"407 560 OFFCURVE",
"318 560 CURVE SMOOTH",
"205 560 OFFCURVE",
"122 481 OFFCURVE",
"102 356 CURVE SMOOTH",
"84 240 LINE SMOOTH",
"64 114 OFFCURVE",
"122 35 OFFCURVE",
"235 35 CURVE SMOOTH",
"324 35 OFFCURVE",
"389 85 OFFCURVE",
"402 165 CURVE",
"383 150 LINE",
"401 150 LINE",
"383 50 LINE",
"372 -20 LINE SMOOTH",
"363 -73 OFFCURVE",
"334 -98 OFFCURVE",
"278 -98 CURVE SMOOTH",
"103 -98 LINE",
"90 -180 LINE"
);
},
{
closed = 1;
nodes = (
"198 113 OFFCURVE",
"161 160 OFFCURVE",
"175 245 CURVE SMOOTH",
"191 350 LINE SMOOTH",
"205 435 OFFCURVE",
"256 482 OFFCURVE",
"332 482 CURVE SMOOTH",
"406 482 OFFCURVE",
"445 433 OFFCURVE",
"431 350 CURVE SMOOTH",
"415 245 LINE SMOOTH",
"402 162 OFFCURVE",
"348 113 OFFCURVE",
"274 113 CURVE SMOOTH"
);
}
);
width = 600;
},
{
anchors = (
{
name = top;
position = "{340, 550}";
}
);
layerId = "EDF5EB54-295C-4C90-9A2F-67CD82979CFF";
paths = (
{
closed = 1;
nodes = (
"246 -180 LINE SMOOTH",
"358 -180 OFFCURVE",
"427 -124 OFFCURVE",
"444 -15 CURVE SMOOTH",
"533 550 LINE",
"483 550 LINE",
"468 455 LINE",
"455 455 LINE",
"468 410 LINE",
"482 501 OFFCURVE",
"428 560 OFFCURVE",
"332 560 CURVE SMOOTH",
"222 560 OFFCURVE",
"137 480 OFFCURVE",
"118 360 CURVE SMOOTH",
"99 239 LINE SMOOTH",
"80 119 OFFCURVE",
"139 40 OFFCURVE",
"249 40 CURVE SMOOTH",
"345 40 OFFCURVE",
"419 99 OFFCURVE",
"433 190 CURVE",
"401 145 LINE",
"419 145 LINE",
"401 30 LINE",
"394 -15 LINE SMOOTH",
"382 -94 OFFCURVE",
"333 -135 OFFCURVE",
"254 -135 CURVE SMOOTH",
"109 -135 LINE",
"101 -180 LINE"
);
},
{
closed = 1;
nodes = (
"177 83 OFFCURVE",
"134 141 OFFCURVE",
"149 239 CURVE SMOOTH",
"168 360 LINE SMOOTH",
"183 458 OFFCURVE",
"246 517 OFFCURVE",
"335 517 CURVE SMOOTH",
"426 517 OFFCURVE",
"468 458 OFFCURVE",
"453 360 CURVE SMOOTH",
"434 239 LINE SMOOTH",
"419 141 OFFCURVE",
"356 83 OFFCURVE",
"266 83 CURVE SMOOTH"
);
}
);
width = 600;
},
{
anchors = (
{
name = top;
position = "{340, 550}";
}
);
layerId = "9ADF6715-3D0F-493D-8567-18A6FBCFC567";
paths = (
{
closed = 1;
nodes = (
"232 -180 LINE SMOOTH",
"373 -180 OFFCURVE",
"473 -106 OFFCURVE",
"492 14 CURVE SMOOTH",
"577 550 LINE",
"427 550 LINE",
"415 445 LINE",
"380 445 LINE",
"410 410 LINE",
"425 505 OFFCURVE",
"379 560 OFFCURVE",
"288 560 CURVE SMOOTH",
"177 560 OFFCURVE",
"91 476 OFFCURVE",
"71 345 CURVE SMOOTH",
"55 245 LINE SMOOTH",
"34 113 OFFCURVE",
"93 30 OFFCURVE",
"204 30 CURVE SMOOTH",
"295 30 OFFCURVE",
"358 85 OFFCURVE",
"374 180 CURVE",
"333 145 LINE",
"368 145 LINE",
"349 40 LINE",
"346 19 LINE SMOOTH",
"338 -31 OFFCURVE",
"302 -60 OFFCURVE",
"246 -60 CURVE SMOOTH",
"91 -60 LINE",
"72 -180 LINE"
);
},
{
closed = 1;
nodes = (
"222 160 OFFCURVE",
"196 192 OFFCURVE",
"206 250 CURVE SMOOTH",
"220 340 LINE SMOOTH",
"229 397 OFFCURVE",
"265 430 OFFCURVE",
"321 430 CURVE SMOOTH",
"376 430 OFFCURVE",
"403 397 OFFCURVE",
"394 340 CURVE SMOOTH",
"380 250 LINE SMOOTH",
"370 192 OFFCURVE",
"333 160 OFFCURVE",
"278 160 CURVE SMOOTH"
);
}
);
width = 600;
}
);
unicode = 0067;
},
{
glyphname = h;
layers = (
{
layerId = "9ADF6715-3D0F-493D-8567-18A6FBCFC567";
paths = (
{
closed = 1;
nodes = (
"172 0 LINE",
"226 340 LINE SMOOTH",
"235 397 OFFCURVE",
"271 430 OFFCURVE",
"324 430 CURVE SMOOTH",
"378 430 OFFCURVE",
"405 397 OFFCURVE",
"396 340 CURVE SMOOTH",
"342 0 LINE",
"492 0 LINE",
"548 355 LINE SMOOTH",
"568 479 OFFCURVE",
"511 560 OFFCURVE",
"404 560 CURVE SMOOTH",
"313 560 OFFCURVE",
"247 503 OFFCURVE",
"232 410 CURVE",
"281 445 LINE",
"237 445 LINE",
"259 550 LINE",
"288 730 LINE",
"138 730 LINE",
"22 0 LINE"
);
}
);
width = 600;
},
{
layerId = "CCC0BD40-BA8C-414E-B576-CF0B94E6C996";
paths = (
{
closed = 1;
nodes = (
"138 0 LINE",
"193 350 LINE SMOOTH",
"207 435 OFFCURVE",
"261 484 OFFCURVE",
"336 484 CURVE SMOOTH",
"408 484 OFFCURVE",
"445 438 OFFCURVE",
"433 360 CURVE SMOOTH",
"376 0 LINE",
"466 0 LINE",
"525 370 LINE SMOOTH",
"543 487 OFFCURVE",
"484 560 OFFCURVE",
"374 560 CURVE SMOOTH",
"282 560 OFFCURVE",
"219 510 OFFCURVE",
"205 424 CURVE",
"227 445 LINE",
"208 445 LINE",
"225 550 LINE",
"254 730 LINE",
"164 730 LINE",
"48 0 LINE"
);
}
);
width = 600;
},
{
layerId = "EDF5EB54-295C-4C90-9A2F-67CD82979CFF";
paths = (
{
closed = 1;
nodes = (
"116 0 LINE",
"173 360 LINE SMOOTH",
"188 457 OFFCURVE",
"253 517 OFFCURVE",
"341 517 CURVE SMOOTH",
"427 517 OFFCURVE",
"471 459 OFFCURVE",
"455 360 CURVE SMOOTH",
"398 0 LINE",
"448 0 LINE",
"506 367 LINE SMOOTH",
"525 485 OFFCURVE",
"466 560 OFFCURVE",
"358 560 CURVE SMOOTH",
"262 560 OFFCURVE",
"188 501 OFFCURVE",
"174 410 CURVE",
"213 470 LINE",
"190 470 LINE",
"208 580 LINE",
"232 730 LINE",
"182 730 LINE",
"66 0 LINE"
);
}
);
width = 600;
}
);
unicode = 0068;
},
{
glyphname = idotless;
layers = (
{
anchors = (
{
name = bottom;
position = "{276, 0}";
},
{
name = ogonek;
position = "{290, 0}";
},
{
name = top;
position = "{363, 550}";
}
);
layerId = "9ADF6715-3D0F-493D-8567-18A6FBCFC567";
paths = (
{
closed = 1;
nodes = (
"516 0 LINE",
"538 136 LINE",
"378 136 LINE",
"443 550 LINE",
"138 550 LINE",
"117 415 LINE",
"282 415 LINE",
"238 136 LINE",
"48 136 LINE",
"26 0 LINE"
);
}
);
width = 600;
},
{
anchors = (
{
name = bottom;
position = "{271, 0}";
},
{
name = ogonek;
position = "{290, 0}";
},
{
name = top;
position = "{358, 550}";
}
);
layerId = "CCC0BD40-BA8C-414E-B576-CF0B94E6C996";
paths = (
{
closed = 1;
nodes = (
"506 0 LINE",
"519 82 LINE",
"334 82 LINE",
"408 550 LINE",
"148 550 LINE",
"135 468 LINE",
"305 468 LINE",
"244 82 LINE",
"49 82 LINE",
"36 0 LINE"
);
}
);
width = 600;
},
{
anchors = (
{
name = bottom;
position = "{271, 0}";
},
{
name = ogonek;
position = "{290, 0}";
},
{
name = top;
position = "{358, 550}";
}
);
layerId = "EDF5EB54-295C-4C90-9A2F-67CD82979CFF";
paths = (
{
closed = 1;
nodes = (
"491 0 LINE",
"498 45 LINE",
"309 45 LINE",
"389 550 LINE",
"163 550 LINE",
"156 505 LINE",
"332 505 LINE",
"259 45 LINE",
"58 45 LINE",
"51 0 LINE"
);
}
);
width = 600;
}
);
unicode = 0131;
},
{
glyphname = iogonek;
layers = (
{
components = (
{
name = idotless;
},
{
name = dotaccentcomb;
transform = "{1, 0, 0, 1, 614, 0}";
}
);
layerId = "EDF5EB54-295C-4C90-9A2F-67CD82979CFF";
paths = (
{
closed = 1;
nodes = (
"315 -195 LINE",
"322 -153 LINE",
"258 -153 LINE SMOOTH",
"226 -153 OFFCURVE",
"210 -134 OFFCURVE",
"215 -103 CURVE SMOOTH",
"219 -75 OFFCURVE",
"248 -36 OFFCURVE",
"292 0 CURVE SMOOTH",
"305 10 LINE",
"268 10 LINE",
"211 -27 OFFCURVE",
"172 -74 OFFCURVE",
"166 -115 CURVE SMOOTH",
"158 -165 OFFCURVE",
"187 -195 OFFCURVE",
"242 -195 CURVE"
);
}
);
width = 600;
},
{
components = (
{
name = idotless;
},
{
name = dotaccentcomb;
transform = "{1, 0, 0, 1, 615, 0}";
}
);
layerId = "CCC0BD40-BA8C-414E-B576-CF0B94E6C996";
paths = (
{
closed = 1;
nodes = (
"324 -203 LINE",
"333 -143 LINE",
"273 -143 LINE SMOOTH",
"239 -143 OFFCURVE",
"222 -122 OFFCURVE",
"226 -93 CURVE SMOOTH",
"231 -65 OFFCURVE",
"254 -36 OFFCURVE",
"305 1 CURVE",
"318 10 LINE",
"243 10 LINE",
"173 -34 OFFCURVE",
"145 -72 OFFCURVE",
"139 -110 CURVE SMOOTH",
"130 -164 OFFCURVE",
"172 -203 OFFCURVE",
"246 -203 CURVE SMOOTH"
);
}
);
width = 600;
},
{
components = (
{
name = idotless;
},
{
name = dotaccentcomb;
transform = "{1, 0, 0, 1, 620, 0}";
}
);
layerId = "9ADF6715-3D0F-493D-8567-18A6FBCFC567";
paths = (
{
closed = 1;
nodes = (
"344 -225 LINE",
"361 -120 LINE",
"292 -120 LINE SMOOTH",
"263 -120 OFFCURVE",
"249 -103 OFFCURVE",
"252 -83 CURVE SMOOTH",
"255 -66 OFFCURVE",
"273 -42 OFFCURVE",
"303 -18 CURVE SMOOTH",
"340 11 LINE",
"254 11 LINE",
"181 -19 OFFCURVE",
"130 -68 OFFCURVE",
"123 -115 CURVE SMOOTH",
"112 -180 OFFCURVE",
"155 -225 OFFCURVE",
"236 -225 CURVE SMOOTH"
);
}
);
width = 600;
}
);
unicode = 012F;
},
{
glyphname = jdotless;
layers = (
{
anchors = (
{
name = top;
position = "{438, 550}";
}
);
layerId = "9ADF6715-3D0F-493D-8567-18A6FBCFC567";
paths = (
{
closed = 1;
nodes = (
"178 -180 LINE SMOOTH",
"316 -180 OFFCURVE",
"416 -96 OFFCURVE",
"437 40 CURVE SMOOTH",
"518 550 LINE",
"153 550 LINE",
"131 410 LINE",
"346 410 LINE",
"288 45 LINE SMOOTH",
"280 -9 OFFCURVE",
"244 -40 OFFCURVE",
"190 -40 CURVE SMOOTH",
"30 -40 LINE",
"7 -180 LINE"
);
}
);
width = 600;
},
{
anchors = (
{
name = top;
position = "{428, 550}";
}
);
layerId = "CCC0BD40-BA8C-414E-B576-CF0B94E6C996";
paths = (
{
closed = 1;
nodes = (
"141 -180 LINE SMOOTH",
"276 -180 OFFCURVE",
"375 -98 OFFCURVE",
"396 31 CURVE SMOOTH",
"478 550 LINE",
"158 550 LINE",
"145 468 LINE",
"375 468 LINE",
"306 31 LINE SMOOTH",
"293 -51 OFFCURVE",
"238 -97 OFFCURVE",
"155 -97 CURVE SMOOTH",
"26 -97 LINE",
"12 -180 LINE"
);
}
);
width = 600;
},
{
anchors = (
{
name = top;
position = "{437, 550}";
}
);
layerId = "EDF5EB54-295C-4C90-9A2F-67CD82979CFF";
paths = (
{
closed = 1;
nodes = (
"157 -180 LINE SMOOTH",
"279 -180 OFFCURVE",
"363 -109 OFFCURVE",
"382 10 CURVE SMOOTH",
"467 550 LINE",
"167 550 LINE",
"160 505 LINE",
"410 505 LINE",
"332 10 LINE SMOOTH",
"317 -84 OFFCURVE",
"259 -135 OFFCURVE",
"165 -135 CURVE SMOOTH",
"30 -135 LINE",
"22 -180 LINE"
);
}
);
width = 600;
}
);
unicode = 0237;
},
{
glyphname = k;
layers = (
{
anchors = (
{
name = bottom;
position = "{256, 0}";
},
{
name = top;
position = "{372, 730}";
}
);
layerId = "CCC0BD40-BA8C-414E-B576-CF0B94E6C996";
paths = (
{
closed = 1;
nodes = (
"141 0 LINE",
"180 245 LINE",
"279 245 LINE",
"400 0 LINE",
"503 0 LINE",
"361 285 LINE",
"587 550 LINE",
"482 550 LINE",
"286 323 LINE",
"192 323 LINE",
"257 730 LINE",
"167 730 LINE",
"51 0 LINE"
);
}
);
width = 600;
},
{
anchors = (
{
name = bottom;
position = "{256, 0}";
},
{
name = top;
position = "{372, 730}";
}
);
layerId = "EDF5EB54-295C-4C90-9A2F-67CD82979CFF";
paths = (
{
closed = 1;
nodes = (
"119 0 LINE",
"161 264 LINE",
"294 264 LINE",
"429 0 LINE",
"487 0 LINE",
"339 283 LINE",
"570 550 LINE",
"509 550 LINE",
"299 309 LINE",
"168 309 LINE",
"235 730 LINE",
"185 730 LINE",
"69 0 LINE"
);
}
);
width = 600;
},
{
anchors = (
{
name = bottom;
position = "{256, 0}";
},
{
name = top;
position = "{372, 730}";
}
);
layerId = "9ADF6715-3D0F-493D-8567-18A6FBCFC567";
paths = (
{
closed = 1;
nodes = (
"175 0 LINE",
"209 216 LINE",
"287 216 LINE",
"371 0 LINE",
"534 0 LINE",
"420 274 LINE",
"618 550 LINE",
"448 550 LINE",
"300 342 LINE",
"229 342 LINE",
"291 730 LINE",
"141 730 LINE",
"25 0 LINE"
);
}
);
width = 600;
}
);
unicode = 006B;
},
{
glyphname = l;
layers = (
{
anchors = (
{
name = bottom;
position = "{280, 0}";
},
{
name = top;
position = "{342, 730}";
}
);
layerId = "9ADF6715-3D0F-493D-8567-18A6FBCFC567";
paths = (
{
closed = 1;
nodes = (
"521 0 LINE",
"542 135 LINE",
"382 135 LINE SMOOTH",
"346 135 OFFCURVE",
"326 159 OFFCURVE",
"332 195 CURVE SMOOTH",
"417 730 LINE",
"97 730 LINE",
"75 595 LINE",
"245 595 LINE",
"182 195 LINE SMOOTH",
"164 78 OFFCURVE",
"229 0 OFFCURVE",
"346 0 CURVE SMOOTH"
);
}
);
width = 600;
},
{
anchors = (
{
name = bottom;
position = "{240, 0}";
},
{
name = top;
position = "{312, 730}";
}
);
layerId = "CCC0BD40-BA8C-414E-B576-CF0B94E6C996";
paths = (
{
closed = 1;
nodes = (
"506 0 LINE",
"519 82 LINE",
"334 82 LINE SMOOTH",
"291 82 OFFCURVE",
"269 110 OFFCURVE",
"276 155 CURVE SMOOTH",
"367 730 LINE",
"112 730 LINE",
"99 648 LINE",
"264 648 LINE",
"186 155 LINE SMOOTH",
"171 61 OFFCURVE",
"224 0 OFFCURVE",
"321 0 CURVE SMOOTH"
);
}
);
width = 600;
},
{
anchors = (
{
name = bottom;
position = "{240, 0}";
},
{
name = top;
position = "{312, 730}";
}
);
layerId = "EDF5EB54-295C-4C90-9A2F-67CD82979CFF";
paths = (
{
closed = 1;
nodes = (
"496 0 LINE",
"503 45 LINE",
"328 45 LINE SMOOTH",
"269 45 OFFCURVE",
"243 76 OFFCURVE",
"252 135 CURVE SMOOTH",
"347 730 LINE",
"122 730 LINE",
"114 685 LINE",
"289 685 LINE",
"202 135 LINE SMOOTH",
"188 48 OFFCURVE",
"231 0 OFFCURVE",
"321 0 CURVE SMOOTH"
);
}
);
width = 600;
}
);
unicode = 006C;
},
{
glyphname = lambdastroke;
layers = (
{
components = (
{
name = lambda;
}
);
layerId = "EDF5EB54-295C-4C90-9A2F-67CD82979CFF";
paths = (
{
closed = 1;
nodes = (
"534 692 LINE",
"542 740 LINE",
"132 550 LINE",
"124 502 LINE"
);
}
);
width = 600;
},
{
components = (
{
name = lambda;
}
);
layerId = "CCC0BD40-BA8C-414E-B576-CF0B94E6C996";
paths = (
{
closed = 1;
nodes = (
"529 660 LINE",
"542 740 LINE",
"132 550 LINE",
"119 470 LINE"
);
}
);
width = 600;
},
{
components = (
{
name = lambda;
}
);
layerId = "9ADF6715-3D0F-493D-8567-18A6FBCFC567";
paths = (
{
closed = 1;
nodes = (
"525 635 LINE",
"542 740 LINE",
"132 550 LINE",
"115 445 LINE"
);
}
);
width = 600;
}
);
unicode = 019B;
},
{
glyphname = lslash;
layers = (
{
components = (
{
alignment = -1;
name = l;
}
);
layerId = "9ADF6715-3D0F-493D-8567-18A6FBCFC567";
paths = (
{
closed = 1;
nodes = (
"480 420 LINE",
"480 560 LINE",
"100 370 LINE",
"100 230 LINE"
);
}
);
width = 600;
},
{
components = (
{
alignment = -1;
name = l;
}
);
layerId = "CCC0BD40-BA8C-414E-B576-CF0B94E6C996";
paths = (
{
closed = 1;
nodes = (
"470 480 LINE",
"470 560 LINE",
"100 310 LINE",
"100 230 LINE"
);
}
);
width = 600;
},
{
components = (
{
alignment = -1;
name = l;
}
);
layerId = "EDF5EB54-295C-4C90-9A2F-67CD82979CFF";
paths = (
{
closed = 1;
nodes = (
"470 495 LINE",
"470 550 LINE",
"100 295 LINE",
"100 240 LINE"
);
}
);
width = 600;
}
);
unicode = 0142;
},
{
glyphname = m;
layers = (
{
layerId = "9ADF6715-3D0F-493D-8567-18A6FBCFC567";
paths = (
{
closed = 1;
nodes = (
"127 0 LINE",
"190 403 LINE SMOOTH",
"195 434 OFFCURVE",
"212 451 OFFCURVE",
"237 451 CURVE SMOOTH",
"262 451 OFFCURVE",
"273 434 OFFCURVE",
"268 403 CURVE SMOOTH",
"205 0 LINE",
"308 0 LINE",
"371 403 LINE SMOOTH",
"376 434 OFFCURVE",
"393 451 OFFCURVE",
"418 451 CURVE SMOOTH",
"443 451 OFFCURVE",
"454 434 OFFCURVE",
"449 403 CURVE SMOOTH",
"386 0 LINE",
"515 0 LINE",
"581 420 LINE SMOOTH",
"594 502 OFFCURVE",
"556 560 OFFCURVE",
"491 560 CURVE SMOOTH",
"435 560 OFFCURVE",
"389 517 OFFCURVE",
"379 456 CURVE",
"390 470 LINE",
"362 470 LINE",
"375 440 LINE",
"386 510 OFFCURVE",
"355 560 OFFCURVE",
"299 560 CURVE SMOOTH",
"246 560 OFFCURVE",
"203 517 OFFCURVE",
"193 456 CURVE",
"214 470 LINE",
"190 470 LINE",
"203 550 LINE",
"85 550 LINE",
"-2 0 LINE"
);
}
);
width = 600;
},
{
layerId = "CCC0BD40-BA8C-414E-B576-CF0B94E6C996";
paths = (
{
closed = 1;
nodes = (
"105 0 LINE",
"171 420 LINE SMOOTH",
"178 465 OFFCURVE",
"201 491 OFFCURVE",
"238 491 CURVE SMOOTH",
"275 491 OFFCURVE",
"293 465 OFFCURVE",
"286 419 CURVE SMOOTH",
"220 0 LINE",
"292 0 LINE",
"358 420 LINE SMOOTH",
"365 465 OFFCURVE",
"391 491 OFFCURVE",
"427 491 CURVE SMOOTH",
"464 491 OFFCURVE",
"480 464 OFFCURVE",
"473 419 CURVE SMOOTH",
"407 0 LINE",
"490 0 LINE",
"556 418 LINE SMOOTH",
"569 503 OFFCURVE",
"538 560 OFFCURVE",
"469 560 CURVE SMOOTH",
"413 560 OFFCURVE",
"370 521 OFFCURVE",
"361 460 CURVE",
"383 484 LINE",
"341 484 LINE",
"360 430 LINE",
"373 513 OFFCURVE",
"345 560 OFFCURVE",
"284 560 CURVE SMOOTH",
"228 560 OFFCURVE",
"187 521 OFFCURVE",
"178 460 CURVE",
"195 484 LINE",
"177 484 LINE",
"188 550 LINE",
"109 550 LINE",
"22 0 LINE"
);
}
);
width = 600;
},
{
layerId = "EDF5EB54-295C-4C90-9A2F-67CD82979CFF";
paths = (
{
closed = 1;
nodes = (
"84 0 LINE",
"151 425 LINE SMOOTH",
"163 482 OFFCURVE",
"199 518 OFFCURVE",
"243 518 CURVE SMOOTH",
"287 518 OFFCURVE",
"308 482 OFFCURVE",
"299 425 CURVE SMOOTH",
"232 0 LINE",
"280 0 LINE",
"347 425 LINE SMOOTH",
"356 481 OFFCURVE",
"392 518 OFFCURVE",
"439 518 CURVE SMOOTH",
"483 518 OFFCURVE",
"504 482 OFFCURVE",
"495 425 CURVE SMOOTH",
"428 0 LINE",
"477 0 LINE",
"545 431 LINE SMOOTH",
"558 511 OFFCURVE",
"527 560 OFFCURVE",
"461 560 CURVE SMOOTH",
"402 560 OFFCURVE",
"361 521 OFFCURVE",
"353 461 CURVE",
"357 475 LINE",
"349 475 LINE",
"351 461 LINE",
"353 524 OFFCURVE",
"322 560 OFFCURVE",
"265 560 CURVE SMOOTH",
"206 560 OFFCURVE",
"164 521 OFFCURVE",
"156 461 CURVE",
"160 475 LINE",
"154 475 LINE",
"166 550 LINE",
"122 550 LINE",
"35 0 LINE"
);
}
);
width = 600;
}
);
unicode = 006D;
},
{
glyphname = n;
layers = (
{
anchors = (
{
name = bottom;
position = "{256, 0}";
},
{
name = top;
position = "{344, 550}";
}
);
layerId = "9ADF6715-3D0F-493D-8567-18A6FBCFC567";
paths = (
{
closed = 1;
nodes = (
"172 0 LINE",
"226 340 LINE SMOOTH",
"235 397 OFFCURVE",
"271 430 OFFCURVE",
"324 430 CURVE SMOOTH",
"378 430 OFFCURVE",
"405 397 OFFCURVE",
"396 340 CURVE SMOOTH",
"342 0 LINE",
"492 0 LINE",
"548 355 LINE SMOOTH",
"568 479 OFFCURVE",
"511 560 OFFCURVE",
"404 560 CURVE SMOOTH",
"313 560 OFFCURVE",
"247 503 OFFCURVE",
"232 410 CURVE",
"281 445 LINE",
"237 445 LINE",
"254 550 LINE",
"109 550 LINE",
"22 0 LINE"
);
}
);
width = 600;
},
{
anchors = (
{
name = bottom;
position = "{256, 0}";
},
{
name = top;
position = "{344, 550}";
}
);
layerId = "EDF5EB54-295C-4C90-9A2F-67CD82979CFF";
paths = (
{
closed = 1;
nodes = (
"116 0 LINE",
"173 360 LINE SMOOTH",
"188 457 OFFCURVE",
"253 517 OFFCURVE",
"341 517 CURVE SMOOTH",
"427 517 OFFCURVE",
"471 459 OFFCURVE",
"455 360 CURVE SMOOTH",
"398 0 LINE",
"448 0 LINE",
"506 367 LINE SMOOTH",
"525 485 OFFCURVE",
"466 560 OFFCURVE",
"358 560 CURVE SMOOTH",
"260 560 OFFCURVE",
"188 499 OFFCURVE",
"173 404 CURVE",
"211 455 LINE",
"188 455 LINE",
"203 550 LINE",
"153 550 LINE",
"66 0 LINE"
);
}
);
width = 600;
},
{
anchors = (
{
name = bottom;
position = "{256, 0}";
},
{
name = top;
position = "{344, 550}";
}
);
layerId = "CCC0BD40-BA8C-414E-B576-CF0B94E6C996";
paths = (
{
closed = 1;
nodes = (
"138 0 LINE",
"193 350 LINE SMOOTH",
"207 435 OFFCURVE",
"261 484 OFFCURVE",
"336 484 CURVE SMOOTH",
"408 484 OFFCURVE",
"445 438 OFFCURVE",
"433 360 CURVE SMOOTH",
"376 0 LINE",
"466 0 LINE",
"525 370 LINE SMOOTH",
"543 487 OFFCURVE",
"484 560 OFFCURVE",
"374 560 CURVE SMOOTH",
"282 560 OFFCURVE",
"219 510 OFFCURVE",
"205 424 CURVE",
"227 445 LINE",
"208 445 LINE",
"225 550 LINE",
"135 550 LINE",
"48 0 LINE"
);
}
);
width = 600;
}
);
unicode = 006E;
},
{
glyphname = eng;
layers = (
{
layerId = "9ADF6715-3D0F-493D-8567-18A6FBCFC567";
paths = (
{
closed = 1;
nodes = (
"223 -180 LINE SMOOTH",
"364 -180 OFFCURVE",
"477 -96 OFFCURVE",
"496 25 CURVE SMOOTH",
"548 355 LINE SMOOTH",
"568 479 OFFCURVE",
"511 560 OFFCURVE",
"404 560 CURVE SMOOTH",
"313 560 OFFCURVE",
"247 503 OFFCURVE",
"232 410 CURVE",
"281 445 LINE",
"237 445 LINE",
"254 550 LINE",
"109 550 LINE",
"22 0 LINE",
"172 0 LINE",
"226 340 LINE SMOOTH",
"235 397 OFFCURVE",
"271 430 OFFCURVE",
"324 430 CURVE SMOOTH",
"378 430 OFFCURVE",
"405 397 OFFCURVE",
"396 340 CURVE SMOOTH",
"348 41 LINE SMOOTH",
"341 -7 OFFCURVE",
"307 -35 OFFCURVE",
"256 -35 CURVE SMOOTH",
"196 -35 LINE",
"173 -180 LINE"
);
}
);
width = 600;
},
{
layerId = "CCC0BD40-BA8C-414E-B576-CF0B94E6C996";
paths = (
{
closed = 1;
nodes = (
"230 -180 LINE SMOOTH",
"354 -180 OFFCURVE",
"448 -103 OFFCURVE",
"466 15 CURVE SMOOTH",
"523 370 LINE SMOOTH",
"541 487 OFFCURVE",
"484 560 OFFCURVE",
"374 560 CURVE SMOOTH",
"282 560 OFFCURVE",
"221 510 OFFCURVE",
"207 424 CURVE",
"229 445 LINE",
"210 445 LINE",
"227 550 LINE",
"137 550 LINE",
"50 0 LINE",
"140 0 LINE",
"195 350 LINE SMOOTH",
"209 435 OFFCURVE",
"261 484 OFFCURVE",
"336 484 CURVE SMOOTH",
"408 484 OFFCURVE",
"443 438 OFFCURVE",
"431 360 CURVE SMOOTH",
"376 15 LINE SMOOTH",
"365 -55 OFFCURVE",
"314 -98 OFFCURVE",
"243 -98 CURVE SMOOTH",
"180 -98 LINE",
"167 -180 LINE"
);
}
);
width = 600;
},
{
layerId = "EDF5EB54-295C-4C90-9A2F-67CD82979CFF";
paths = (
{
closed = 1;
nodes = (
"213 -180 LINE SMOOTH",
"338 -180 OFFCURVE",
"432 -104 OFFCURVE",
"450 15 CURVE SMOOTH",
"506 367 LINE SMOOTH",
"525 485 OFFCURVE",
"466 560 OFFCURVE",
"358 560 CURVE SMOOTH",
"260 560 OFFCURVE",
"188 499 OFFCURVE",
"173 404 CURVE",
"211 455 LINE",
"188 455 LINE",
"203 550 LINE",
"153 550 LINE",
"66 0 LINE",
"116 0 LINE",
"173 360 LINE SMOOTH",
"188 457 OFFCURVE",
"253 517 OFFCURVE",
"341 517 CURVE SMOOTH",
"427 517 OFFCURVE",
"471 459 OFFCURVE",
"455 360 CURVE SMOOTH",
"400 15 LINE SMOOTH",
"386 -78 OFFCURVE",
"317 -135 OFFCURVE",
"221 -135 CURVE SMOOTH",
"180 -135 LINE",
"172 -180 LINE"
);
}
);
width = 600;
}
);
unicode = 014B;
},
{
glyphname = o;
layers = (
{
anchors = (
{
name = bottom;
position = "{256, 0}";
},
{
name = center;
position = "{300, 275}";
},
{
name = horn;
position = "{363, 550}";
},
{
name = ogonek;
position = "{305, 0}";
},
{
name = top;
position = "{343, 550}";
},
{
name = topright;
position = "{624, 550}";
}
);
layerId = "9ADF6715-3D0F-493D-8567-18A6FBCFC567";
paths = (
{
closed = 1;
nodes = (
"401 -10 OFFCURVE",
"508 78 OFFCURVE",
"529 210 CURVE SMOOTH",
"550 340 LINE SMOOTH",
"571 472 OFFCURVE",
"492 560 OFFCURVE",
"345 560 CURVE SMOOTH",
"198 560 OFFCURVE",
"91 472 OFFCURVE",
"70 340 CURVE SMOOTH",
"49 210 LINE SMOOTH",
"28 78 OFFCURVE",
"107 -10 OFFCURVE",
"254 -10 CURVE SMOOTH"
);
},
{
closed = 1;
nodes = (
"217 120 OFFCURVE",
"190 152 OFFCURVE",
"199 210 CURVE SMOOTH",
"220 340 LINE SMOOTH",
"229 398 OFFCURVE",
"266 430 OFFCURVE",
"324 430 CURVE SMOOTH",
"382 430 OFFCURVE",
"409 398 OFFCURVE",
"400 340 CURVE SMOOTH",
"379 210 LINE SMOOTH",
"370 152 OFFCURVE",
"333 120 OFFCURVE",
"275 120 CURVE SMOOTH"
);
}
);
width = 600;
},
{
anchors = (
{
name = bottom;
position = "{256, 0}";
},
{
name = center;
position = "{300, 275}";
},
{
name = horn;
position = "{375, 550}";
},
{
name = ogonek;
position = "{305, 0}";
},
{
name = top;
position = "{343, 550}";
},
{
name = topright;
position = "{624, 550}";
}
);
layerId = "CCC0BD40-BA8C-414E-B576-CF0B94E6C996";
paths = (
{
closed = 1;
nodes = (
"385 -10 OFFCURVE",
"479 69 OFFCURVE",
"500 200 CURVE SMOOTH",
"524 351 LINE SMOOTH",
"544 481 OFFCURVE",
"476 560 OFFCURVE",
"345 560 CURVE SMOOTH",
"214 560 OFFCURVE",
"120 481 OFFCURVE",
"99 350 CURVE SMOOTH",
"76 200 LINE SMOOTH",
"55 69 OFFCURVE",
"123 -10 OFFCURVE",
"254 -10 CURVE SMOOTH"
);
},
{
closed = 1;
nodes = (
"189 70 OFFCURVE",
"152 115 OFFCURVE",
"166 200 CURVE SMOOTH",
"189 350 LINE SMOOTH",
"203 435 OFFCURVE",
"254 480 OFFCURVE",
"332 480 CURVE SMOOTH",
"410 480 OFFCURVE",
"447 435 OFFCURVE",
"433 350 CURVE SMOOTH",
"410 200 LINE SMOOTH",
"396 115 OFFCURVE",
"345 70 OFFCURVE",
"267 70 CURVE SMOOTH"
);
}
);
visible = 1;
width = 600;
},
{
anchors = (
{
name = bottom;
position = "{256, 0}";
},
{
name = center;
position = "{300, 275}";
},
{
name = horn;
position = "{363, 550}";
},
{
name = ogonek;
position = "{305, 0}";
},
{
name = top;
position = "{343, 550}";
},
{
name = topright;
position = "{624, 550}";
}
);
layerId = "EDF5EB54-295C-4C90-9A2F-67CD82979CFF";
paths = (
{
closed = 1;
nodes = (
"373 -10 OFFCURVE",
"462 68 OFFCURVE",
"481 190 CURVE SMOOTH",
"508 360 LINE SMOOTH",
"527 481 OFFCURVE",
"463 560 OFFCURVE",
"345 560 CURVE SMOOTH",
"227 560 OFFCURVE",
"137 481 OFFCURVE",
"118 360 CURVE SMOOTH",
"91 190 LINE SMOOTH",
"72 68 OFFCURVE",
"136 -10 OFFCURVE",
"254 -10 CURVE SMOOTH"
);
},
{
closed = 1;
nodes = (
"169 34 OFFCURVE",
"125 91 OFFCURVE",
"141 190 CURVE SMOOTH",
"168 360 LINE SMOOTH",
"184 458 OFFCURVE",
"247 516 OFFCURVE",
"338 516 CURVE SMOOTH",
"429 516 OFFCURVE",
"474 458 OFFCURVE",
"458 360 CURVE SMOOTH",
"431 190 LINE SMOOTH",
"415 91 OFFCURVE",
"353 34 OFFCURVE",
"261 34 CURVE SMOOTH"
);
}
);
width = 600;
}
);
unicode = 006F;
},
{
glyphname = ohorn;
layers = (
{
anchors = (
{
name = top;
position = "{340, 550}";
}
);
components = (
{
name = o;
}
);
layerId = "EDF5EB54-295C-4C90-9A2F-67CD82979CFF";
paths = (
{
closed = 1;
nodes = (
"475 495 LINE SMOOTH",
"526 495 OFFCURVE",
"565 529 OFFCURVE",
"573 580 CURVE SMOOTH",
"583 640 LINE",
"543 640 LINE",
"533 580 LINE SMOOTH",
"528 550 OFFCURVE",
"508 530 OFFCURVE",
"481 530 CURVE SMOOTH",
"446 530 LINE",
"440 495 LINE"
);
}
);
width = 600;
},
{
anchors = (
{
name = top;
position = "{333, 550}";
}
);
components = (
{
name = o;
}
);
layerId = "CCC0BD40-BA8C-414E-B576-CF0B94E6C996";
paths = (
{
closed = 1;
nodes = (
"465 465 LINE SMOOTH",
"528 465 OFFCURVE",
"576 503 OFFCURVE",
"585 560 CURVE SMOOTH",
"597 640 LINE",
"522 640 LINE",
"510 565 LINE SMOOTH",
"507 542 OFFCURVE",
"493 530 OFFCURVE",
"470 530 CURVE SMOOTH",
"436 530 LINE",
"426 465 LINE"
);
}
);
width = 600;
},
{
anchors = (
{
name = top;
position = "{333, 550}";
}
);
components = (
{
name = o;
}
);
layerId = "9ADF6715-3D0F-493D-8567-18A6FBCFC567";
paths = (
{
closed = 1;
nodes = (
"459 430 LINE SMOOTH",
"546 430 OFFCURVE",
"613 484 OFFCURVE",
"625 565 CURVE SMOOTH",
"637 640 LINE",
"517 640 LINE",
"505 565 LINE SMOOTH",
"502 543 OFFCURVE",
"487 530 OFFCURVE",
"465 530 CURVE SMOOTH",
"405 530 LINE",
"389 430 LINE"
);
}
);
width = 600;
}
);
unicode = 01A1;
},
{
glyphname = oogonek;
layers = (
{
anchors = (
{
name = horn;
position = "{363, 550}";
},
{
name = top;
position = "{343, 550}";
}
);
layerId = "9ADF6715-3D0F-493D-8567-18A6FBCFC567";
paths = (
{
closed = 1;
nodes = (
"387 -225 LINE",
"404 -120 LINE",
"335 -120 LINE SMOOTH",
"306 -120 OFFCURVE",
"292 -103 OFFCURVE",
"295 -83 CURVE SMOOTH",
"298 -66 OFFCURVE",
"316 -41 OFFCURVE",
"346 -18 CURVE SMOOTH",
"410 31 LINE",
"470 70 OFFCURVE",
"517 135 OFFCURVE",
"529 210 CURVE SMOOTH",
"550 340 LINE SMOOTH",
"571 472 OFFCURVE",
"492 560 OFFCURVE",
"345 560 CURVE SMOOTH",
"198 560 OFFCURVE",
"91 472 OFFCURVE",
"70 340 CURVE SMOOTH",
"49 210 LINE SMOOTH",
"28 78 OFFCURVE",
"107 -10 OFFCURVE",
"254 -10 CURVE SMOOTH",
"275 -10 OFFCURVE",
"321 12 OFFCURVE",
"324 31 CURVE",
"224 -19 OFFCURVE",
"173 -68 OFFCURVE",
"166 -115 CURVE SMOOTH",
"155 -180 OFFCURVE",
"198 -225 OFFCURVE",
"279 -225 CURVE SMOOTH"
);
},
{
closed = 1;
nodes = (
"217 120 OFFCURVE",
"190 152 OFFCURVE",
"199 210 CURVE SMOOTH",
"220 340 LINE SMOOTH",
"229 398 OFFCURVE",
"266 430 OFFCURVE",
"324 430 CURVE SMOOTH",
"382 430 OFFCURVE",
"409 398 OFFCURVE",
"400 340 CURVE SMOOTH",
"379 210 LINE SMOOTH",
"370 152 OFFCURVE",
"333 120 OFFCURVE",
"275 120 CURVE SMOOTH"
);
}
);
width = 600;
},
{
anchors = (
{
name = horn;
position = "{375, 550}";
},
{
name = top;
position = "{343, 550}";
}
);
layerId = "CCC0BD40-BA8C-414E-B576-CF0B94E6C996";
paths = (
{
closed = 1;
nodes = (
"374 -203 LINE",
"383 -143 LINE",
"323 -143 LINE SMOOTH",
"289 -143 OFFCURVE",
"272 -122 OFFCURVE",
"276 -93 CURVE SMOOTH",
"281 -65 OFFCURVE",
"304 -36 OFFCURVE",
"355 1 CURVE SMOOTH",
"382 21 LINE",
"445 55 OFFCURVE",
"487 117 OFFCURVE",
"500 200 CURVE SMOOTH",
"524 351 LINE SMOOTH",
"544 481 OFFCURVE",
"476 560 OFFCURVE",
"345 560 CURVE SMOOTH",
"214 560 OFFCURVE",
"120 481 OFFCURVE",
"99 350 CURVE SMOOTH",
"76 200 LINE SMOOTH",
"55 69 OFFCURVE",
"123 -10 OFFCURVE",
"254 -10 CURVE SMOOTH",
"257 -10 OFFCURVE",
"260 -10 OFFCURVE",
"263 -10 CURVE",
"211 -51 OFFCURVE",
"193 -81 OFFCURVE",
"189 -110 CURVE SMOOTH",
"180 -164 OFFCURVE",
"222 -203 OFFCURVE",
"296 -203 CURVE SMOOTH"
);
},
{
closed = 1;
nodes = (
"189 70 OFFCURVE",
"152 115 OFFCURVE",
"166 200 CURVE SMOOTH",
"189 350 LINE SMOOTH",
"203 435 OFFCURVE",
"254 480 OFFCURVE",
"332 480 CURVE SMOOTH",
"410 480 OFFCURVE",
"447 435 OFFCURVE",
"433 350 CURVE SMOOTH",
"410 200 LINE SMOOTH",
"396 115 OFFCURVE",
"345 70 OFFCURVE",
"267 70 CURVE SMOOTH"
);
}
);
width = 600;
},
{
anchors = (
{
name = horn;
position = "{363, 550}";
},
{
name = top;
position = "{343, 550}";
}
);
layerId = "EDF5EB54-295C-4C90-9A2F-67CD82979CFF";
paths = (
{
closed = 1;
nodes = (
"371 -195 LINE",
"378 -153 LINE",
"314 -153 LINE SMOOTH",
"282 -153 OFFCURVE",
"266 -134 OFFCURVE",
"271 -103 CURVE SMOOTH",
"275 -75 OFFCURVE",
"304 -36 OFFCURVE",
"348 0 CURVE SMOOTH",
"379 25 LINE",
"432 59 OFFCURVE",
"469 116 OFFCURVE",
"481 190 CURVE SMOOTH",
"508 360 LINE SMOOTH",
"527 481 OFFCURVE",
"463 560 OFFCURVE",
"345 560 CURVE SMOOTH",
"227 560 OFFCURVE",
"137 481 OFFCURVE",
"118 360 CURVE SMOOTH",
"91 190 LINE SMOOTH",
"72 68 OFFCURVE",
"136 -10 OFFCURVE",
"254 -10 CURVE SMOOTH",
"270 -10 OFFCURVE",
"287 -9 OFFCURVE",
"301 -6 CURVE",
"252 -47 OFFCURVE",
"227 -83 OFFCURVE",
"222 -115 CURVE SMOOTH",
"214 -165 OFFCURVE",
"243 -195 OFFCURVE",
"298 -195 CURVE SMOOTH"
);
},
{
closed = 1;
nodes = (
"169 34 OFFCURVE",
"125 91 OFFCURVE",
"141 190 CURVE SMOOTH",
"168 360 LINE SMOOTH",
"184 458 OFFCURVE",
"247 516 OFFCURVE",
"338 516 CURVE SMOOTH",
"429 516 OFFCURVE",
"474 458 OFFCURVE",
"458 360 CURVE SMOOTH",
"431 190 LINE SMOOTH",
"415 91 OFFCURVE",
"353 34 OFFCURVE",
"261 34 CURVE SMOOTH"
);
}
);
width = 600;
}
);
unicode = 01EB;
},
{
glyphname = oslash;
layers = (
{
anchors = (
{
name = bottom;
position = "{256, 0}";
},
{
name = horn;
position = "{363, 550}";
},
{
name = top;
position = "{343, 550}";
}
);
layerId = "9ADF6715-3D0F-493D-8567-18A6FBCFC567";
paths = (
{
closed = 1;
nodes = (
"91 -30 LINE",
"624 590 LINE",
"509 590 LINE",
"-24 -30 LINE"
);
},
{
closed = 1;
nodes = (
"401 -10 OFFCURVE",
"508 78 OFFCURVE",
"529 210 CURVE SMOOTH",
"550 340 LINE SMOOTH",
"571 472 OFFCURVE",
"492 560 OFFCURVE",
"345 560 CURVE SMOOTH",
"198 560 OFFCURVE",
"91 472 OFFCURVE",
"70 340 CURVE SMOOTH",
"49 210 LINE SMOOTH",
"28 78 OFFCURVE",
"107 -10 OFFCURVE",
"254 -10 CURVE SMOOTH"
);
},
{
closed = 1;
nodes = (
"212 120 OFFCURVE",
"180 154 OFFCURVE",
"189 210 CURVE SMOOTH",
"210 340 LINE SMOOTH",
"219 396 OFFCURVE",
"261 430 OFFCURVE",
"324 430 CURVE SMOOTH",
"387 430 OFFCURVE",
"419 396 OFFCURVE",
"410 340 CURVE SMOOTH",
"389 210 LINE SMOOTH",
"380 154 OFFCURVE",
"338 120 OFFCURVE",
"275 120 CURVE SMOOTH"
);
}
);
width = 600;
},
{
anchors = (
{
name = bottom;
position = "{256, 0}";
},
{
name = horn;
position = "{375, 550}";
},
{
name = top;
position = "{343, 550}";
}
);
layerId = "CCC0BD40-BA8C-414E-B576-CF0B94E6C996";
paths = (
{
closed = 1;
nodes = (
"78 -30 LINE",
"614 590 LINE",
"521 590 LINE",
"-14 -30 LINE"
);
},
{
closed = 1;
nodes = (
"385 -10 OFFCURVE",
"479 69 OFFCURVE",
"500 200 CURVE SMOOTH",
"524 351 LINE SMOOTH",
"545 481 OFFCURVE",
"476 560 OFFCURVE",
"345 560 CURVE SMOOTH",
"214 560 OFFCURVE",
"119 481 OFFCURVE",
"99 350 CURVE SMOOTH",
"76 200 LINE SMOOTH",
"56 69 OFFCURVE",
"123 -10 OFFCURVE",
"254 -10 CURVE SMOOTH"
);
},
{
closed = 1;
nodes = (
"187 70 OFFCURVE",
"148 118 OFFCURVE",
"161 200 CURVE SMOOTH",
"184 350 LINE SMOOTH",
"197 432 OFFCURVE",
"252 480 OFFCURVE",
"332 480 CURVE SMOOTH",
"412 480 OFFCURVE",
"451 432 OFFCURVE",
"438 350 CURVE SMOOTH",
"415 200 LINE SMOOTH",
"402 118 OFFCURVE",
"347 70 OFFCURVE",
"267 70 CURVE SMOOTH"
);
}
);
width = 600;
},
{
anchors = (
{
name = bottom;
position = "{256, 0}";
},
{
name = horn;
position = "{363, 550}";
},
{
name = top;
position = "{343, 550}";
}
);
layerId = "EDF5EB54-295C-4C90-9A2F-67CD82979CFF";
paths = (
{
closed = 1;
nodes = (
"61 -30 LINE",
"590 590 LINE",
"539 590 LINE",
"10 -30 LINE"
);
},
{
closed = 1;
nodes = (
"373 -10 OFFCURVE",
"462 68 OFFCURVE",
"481 190 CURVE SMOOTH",
"508 360 LINE SMOOTH",
"527 481 OFFCURVE",
"463 560 OFFCURVE",
"345 560 CURVE SMOOTH",
"227 560 OFFCURVE",
"137 481 OFFCURVE",
"118 360 CURVE SMOOTH",
"91 190 LINE SMOOTH",
"72 68 OFFCURVE",
"136 -10 OFFCURVE",
"254 -10 CURVE SMOOTH"
);
},
{
closed = 1;
nodes = (
"169 34 OFFCURVE",
"125 91 OFFCURVE",
"141 190 CURVE SMOOTH",
"168 360 LINE SMOOTH",
"184 458 OFFCURVE",
"247 516 OFFCURVE",
"338 516 CURVE SMOOTH",
"429 516 OFFCURVE",
"474 458 OFFCURVE",
"458 360 CURVE SMOOTH",
"431 190 LINE SMOOTH",
"415 91 OFFCURVE",
"353 34 OFFCURVE",
"261 34 CURVE SMOOTH"
);
}
);
width = 600;
}
);
unicode = 00F8;
},
{
glyphname = oe;
layers = (
{
layerId = "9ADF6715-3D0F-493D-8567-18A6FBCFC567";
paths = (
{
closed = 1;
nodes = (
"208 -10 OFFCURVE",
"251 33 OFFCURVE",
"262 65 CURVE",
"270 65 LINE",
"270 33 OFFCURVE",
"297 -10 OFFCURVE",
"374 -10 CURVE SMOOTH",
"461 -10 OFFCURVE",
"529 50 OFFCURVE",
"543 140 CURVE",
"428 140 LINE",
"423 106 OFFCURVE",
"403 87 OFFCURVE",
"374 87 CURVE SMOOTH",
"345 87 OFFCURVE",
"330 107 OFFCURVE",
"335 140 CURVE SMOOTH",
"353 250 LINE",
"561 250 LINE",
"586 410 LINE SMOOTH",
"600 500 OFFCURVE",
"552 560 OFFCURVE",
"465 560 CURVE SMOOTH",
"388 560 OFFCURVE",
"347 517 OFFCURVE",
"337 485 CURVE",
"329 485 LINE",
"328 517 OFFCURVE",
"299 560 OFFCURVE",
"225 560 CURVE SMOOTH",
"138 560 OFFCURVE",
"70 500 OFFCURVE",
"56 410 CURVE SMOOTH",
"13 140 LINE SMOOTH",
"-1 50 OFFCURVE",
"47 -10 OFFCURVE",
"134 -10 CURVE SMOOTH"
);
},
{
closed = 1;
nodes = (
"138 87 OFFCURVE",
"123 107 OFFCURVE",
"128 140 CURVE SMOOTH",
"171 410 LINE SMOOTH",
"176 443 OFFCURVE",
"197 463 OFFCURVE",
"226 463 CURVE SMOOTH",
"255 463 OFFCURVE",
"269 444 OFFCURVE",
"264 410 CURVE SMOOTH",
"221 140 LINE SMOOTH",
"216 106 OFFCURVE",
"196 87 OFFCURVE",
"167 87 CURVE SMOOTH"
);
},
{
closed = 1;
nodes = (
"378 410 LINE SMOOTH",
"383 443 OFFCURVE",
"403 463 OFFCURVE",
"433 463 CURVE SMOOTH",
"462 463 OFFCURVE",
"476 444 OFFCURVE",
"471 410 CURVE SMOOTH",
"458 330 LINE",
"365 330 LINE"
);
}
);
width = 600;
},
{
layerId = "CCC0BD40-BA8C-414E-B576-CF0B94E6C996";
paths = (
{
closed = 1;
nodes = (
"214 -10 OFFCURVE",
"257 36 OFFCURVE",
"265 70 CURVE",
"269 70 LINE",
"267 36 OFFCURVE",
"294 -10 OFFCURVE",
"374 -10 CURVE SMOOTH",
"448 -10 OFFCURVE",
"512 42 OFFCURVE",
"538 125 CURVE",
"453 125 LINE",
"441 90 OFFCURVE",
"411 67 OFFCURVE",
"377 67 CURVE SMOOTH",
"336 67 OFFCURVE",
"315 99 OFFCURVE",
"323 150 CURVE SMOOTH",
"339 250 LINE",
"561 250 LINE",
"584 400 LINE SMOOTH",
"600 498 OFFCURVE",
"554 560 OFFCURVE",
"465 560 CURVE SMOOTH",
"385 560 OFFCURVE",
"342 514 OFFCURVE",
"334 480 CURVE",
"330 480 LINE",
"332 514 OFFCURVE",
"305 560 OFFCURVE",
"225 560 CURVE SMOOTH",
"136 560 OFFCURVE",
"70 498 OFFCURVE",
"54 400 CURVE SMOOTH",
"15 150 LINE SMOOTH",
"-1 52 OFFCURVE",
"45 -10 OFFCURVE",
"134 -10 CURVE SMOOTH"
);
},
{
closed = 1;
nodes = (
"114 67 OFFCURVE",
"92 99 OFFCURVE",
"100 150 CURVE SMOOTH",
"139 400 LINE SMOOTH",
"147 451 OFFCURVE",
"179 483 OFFCURVE",
"222 483 CURVE SMOOTH",
"263 483 OFFCURVE",
"284 451 OFFCURVE",
"276 400 CURVE SMOOTH",
"237 150 LINE SMOOTH",
"229 99 OFFCURVE",
"198 67 OFFCURVE",
"157 67 CURVE SMOOTH"
);
},
{
closed = 1;
nodes = (
"362 400 LINE SMOOTH",
"370 451 OFFCURVE",
"401 483 OFFCURVE",
"442 483 CURVE SMOOTH",
"485 483 OFFCURVE",
"507 451 OFFCURVE",
"499 400 CURVE SMOOTH",
"487 323 LINE",
"350 323 LINE"
);
}
);
width = 600;
},
{
layerId = "EDF5EB54-295C-4C90-9A2F-67CD82979CFF";
paths = (
{
closed = 1;
nodes = (
"209 -10 OFFCURVE",
"256 38 OFFCURVE",
"269 75 CURVE",
"272 75 LINE",
"273 38 OFFCURVE",
"303 -10 OFFCURVE",
"380 -10 CURVE SMOOTH",
"461 -10 OFFCURVE",
"527 43 OFFCURVE",
"547 125 CURVE",
"497 125 LINE",
"483 71 OFFCURVE",
"438 34 OFFCURVE",
"384 34 CURVE SMOOTH",
"327 34 OFFCURVE",
"295 77 OFFCURVE",
"305 140 CURVE SMOOTH",
"324 260 LINE",
"562 260 LINE",
"586 410 LINE SMOOTH",
"600 501 OFFCURVE",
"555 560 OFFCURVE",
"468 560 CURVE SMOOTH",
"397 560 OFFCURVE",
"350 511 OFFCURVE",
"335 474 CURVE",
"333 474 LINE",
"332 511 OFFCURVE",
"302 560 OFFCURVE",
"225 560 CURVE SMOOTH",
"137 560 OFFCURVE",
"70 500 OFFCURVE",
"56 408 CURVE SMOOTH",
"13 139 LINE SMOOTH",
"-1 48 OFFCURVE",
"43 -10 OFFCURVE",
"128 -10 CURVE SMOOTH"
);
},
{
closed = 1;
nodes = (
"86 34 OFFCURVE",
"54 76 OFFCURVE",
"64 139 CURVE SMOOTH",
"107 408 LINE SMOOTH",
"117 473 OFFCURVE",
"163 516 OFFCURVE",
"221 516 CURVE SMOOTH",
"278 516 OFFCURVE",
"309 473 OFFCURVE",
"299 410 CURVE SMOOTH",
"256 140 LINE SMOOTH",
"246 77 OFFCURVE",
"201 34 OFFCURVE",
"144 34 CURVE SMOOTH"
);
},
{
closed = 1;
nodes = (
"348 410 LINE SMOOTH",
"358 473 OFFCURVE",
"402 516 OFFCURVE",
"458 516 CURVE SMOOTH",
"515 516 OFFCURVE",
"546 473 OFFCURVE",
"536 410 CURVE SMOOTH",
"520 310 LINE",
"332 310 LINE"
);
}
);
width = 600;
}
);
unicode = 0153;
},
{
glyphname = p;
layers = (
{
layerId = "9ADF6715-3D0F-493D-8567-18A6FBCFC567";
paths = (
{
closed = 1;
nodes = (
"143 -180 LINE",
"167 -30 LINE",
"184 105 LINE",
"219 105 LINE",
"189 140 LINE",
"174 45 OFFCURVE",
"220 -10 OFFCURVE",
"311 -10 CURVE SMOOTH",
"422 -10 OFFCURVE",
"508 74 OFFCURVE",
"528 205 CURVE SMOOTH",
"551 345 LINE SMOOTH",
"571 476 OFFCURVE",
"513 560 OFFCURVE",
"402 560 CURVE SMOOTH",
"311 560 OFFCURVE",
"247 505 OFFCURVE",
"232 410 CURVE",
"272 445 LINE",
"237 445 LINE",
"254 550 LINE",
"109 550 LINE",
"-7 -180 LINE"
);
},
{
closed = 1;
nodes = (
"223 120 OFFCURVE",
"196 153 OFFCURVE",
"205 210 CURVE SMOOTH",
"226 340 LINE SMOOTH",
"235 397 OFFCURVE",
"272 430 OFFCURVE",
"327 430 CURVE SMOOTH",
"383 430 OFFCURVE",
"409 398 OFFCURVE",
"400 340 CURVE SMOOTH",
"379 210 LINE SMOOTH",
"370 152 OFFCURVE",
"334 120 OFFCURVE",
"278 120 CURVE SMOOTH"
);
}
);
width = 600;
},
{
layerId = "EDF5EB54-295C-4C90-9A2F-67CD82979CFF";
paths = (
{
closed = 1;
nodes = (
"87 -180 LINE",
"116 0 LINE",
"128 75 LINE",
"146 75 LINE",
"128 140 LINE",
"114 50 OFFCURVE",
"170 -10 OFFCURVE",
"267 -10 CURVE SMOOTH",
"376 -10 OFFCURVE",
"462 70 OFFCURVE",
"481 190 CURVE SMOOTH",
"508 361 LINE SMOOTH",
"527 481 OFFCURVE",
"468 560 OFFCURVE",
"358 560 CURVE SMOOTH",
"260 560 OFFCURVE",
"185 500 OFFCURVE",
"171 410 CURVE",
"219 475 LINE",
"191 475 LINE",
"203 550 LINE",
"153 550 LINE",
"37 -180 LINE"
);
},
{
closed = 1;
nodes = (
"174 33 OFFCURVE",
"130 91 OFFCURVE",
"146 190 CURVE SMOOTH",
"173 361 LINE SMOOTH",
"189 459 OFFCURVE",
"251 517 OFFCURVE",
"341 517 CURVE SMOOTH",
"430 517 OFFCURVE",
"474 459 OFFCURVE",
"458 361 CURVE SMOOTH",
"431 190 LINE SMOOTH",
"415 91 OFFCURVE",
"353 33 OFFCURVE",
"264 33 CURVE SMOOTH"
);
}
);
width = 600;
},
{
layerId = "CCC0BD40-BA8C-414E-B576-CF0B94E6C996";
paths = (
{
closed = 1;
nodes = (
"109 -180 LINE",
"135 -20 LINE",
"153 105 LINE",
"173 105 LINE",
"158 126 LINE",
"145 43 OFFCURVE",
"197 -10 OFFCURVE",
"287 -10 CURVE SMOOTH",
"398 -10 OFFCURVE",
"479 68 OFFCURVE",
"499 195 CURVE SMOOTH",
"524 356 LINE SMOOTH",
"544 482 OFFCURVE",
"488 560 OFFCURVE",
"378 560 CURVE SMOOTH",
"287 560 OFFCURVE",
"218 508 OFFCURVE",
"205 424 CURVE",
"226 445 LINE",
"208 445 LINE",
"225 550 LINE",
"135 550 LINE",
"19 -180 LINE"
);
},
{
closed = 1;
nodes = (
"196 68 OFFCURVE",
"157 117 OFFCURVE",
"170 200 CURVE SMOOTH",
"193 350 LINE SMOOTH",
"207 433 OFFCURVE",
"261 482 OFFCURVE",
"335 482 CURVE SMOOTH",
"411 482 OFFCURVE",
"447 435 OFFCURVE",
"433 350 CURVE SMOOTH",
"410 200 LINE SMOOTH",
"396 115 OFFCURVE",
"346 68 OFFCURVE",
"270 68 CURVE SMOOTH"
);
}
);
width = 600;
}
);
unicode = 0070;
},
{
glyphname = thorn;
layers = (
{
components = (
{
alignment = -1;
name = b;
}
);
layerId = "9ADF6715-3D0F-493D-8567-18A6FBCFC567";
paths = (
{
closed = 1;
nodes = (
"138 -180 LINE",
"175 50 LINE",
"30 50 LINE",
"-7 -180 LINE"
);
}
);
width = 600;
},
{
components = (
{
alignment = -1;
name = b;
transform = "{1, 0, 0, 1, -5, 0}";
}
);
layerId = "CCC0BD40-BA8C-414E-B576-CF0B94E6C996";
paths = (
{
closed = 1;
nodes = (
"104 -180 LINE",
"142 59 LINE",
"52 59 LINE",
"14 -180 LINE"
);
}
);
width = 600;
},
{
components = (
{
alignment = -1;
name = b;
}
);
layerId = "EDF5EB54-295C-4C90-9A2F-67CD82979CFF";
paths = (
{
closed = 1;
nodes = (
"88 -180 LINE",
"126 59 LINE",
"76 59 LINE",
"38 -180 LINE"
);
}
);
width = 600;
}
);
unicode = 00FE;
},
{
glyphname = q;
layers = (
{
layerId = "9ADF6715-3D0F-493D-8567-18A6FBCFC567";
paths = (
{
closed = 1;
nodes = (
"461 -180 LINE",
"577 550 LINE",
"432 550 LINE",
"415 445 LINE",
"380 445 LINE",
"408 410 LINE",
"423 505 OFFCURVE",
"379 560 OFFCURVE",
"288 560 CURVE SMOOTH",
"177 560 OFFCURVE",
"91 476 OFFCURVE",
"71 345 CURVE SMOOTH",
"48 205 LINE SMOOTH",
"28 74 OFFCURVE",
"86 -10 OFFCURVE",
"197 -10 CURVE SMOOTH",
"288 -10 OFFCURVE",
"350 45 OFFCURVE",
"365 140 CURVE",
"327 105 LINE",
"362 105 LINE",
"335 -30 LINE",
"311 -180 LINE"
);
},
{
closed = 1;
nodes = (
"216 120 OFFCURVE",
"190 152 OFFCURVE",
"199 210 CURVE SMOOTH",
"220 340 LINE SMOOTH",
"229 398 OFFCURVE",
"265 430 OFFCURVE",
"321 430 CURVE SMOOTH",
"376 430 OFFCURVE",
"403 397 OFFCURVE",
"394 340 CURVE SMOOTH",
"373 210 LINE SMOOTH",
"364 153 OFFCURVE",
"327 120 OFFCURVE",
"272 120 CURVE SMOOTH"
);
}
);
width = 600;
},
{
layerId = "CCC0BD40-BA8C-414E-B576-CF0B94E6C996";
paths = (
{
closed = 1;
nodes = (
"435 -180 LINE",
"551 550 LINE",
"461 550 LINE",
"444 445 LINE",
"426 445 LINE",
"441 424 LINE",
"454 508 OFFCURVE",
"404 560 OFFCURVE",
"313 560 CURVE SMOOTH",
"203 560 OFFCURVE",
"120 482 OFFCURVE",
"100 356 CURVE SMOOTH",
"75 195 LINE SMOOTH",
"55 68 OFFCURVE",
"111 -10 OFFCURVE",
"222 -10 CURVE SMOOTH",
"312 -10 OFFCURVE",
"381 43 OFFCURVE",
"394 126 CURVE",
"373 105 LINE",
"393 105 LINE",
"371 -20 LINE",
"345 -180 LINE"
);
},
{
closed = 1;
nodes = (
"189 68 OFFCURVE",
"152 115 OFFCURVE",
"166 200 CURVE SMOOTH",
"189 350 LINE SMOOTH",
"203 435 OFFCURVE",
"254 482 OFFCURVE",
"330 482 CURVE SMOOTH",
"404 482 OFFCURVE",
"443 433 OFFCURVE",
"429 350 CURVE SMOOTH",
"406 200 LINE SMOOTH",
"393 117 OFFCURVE",
"339 68 OFFCURVE",
"265 68 CURVE SMOOTH"
);
}
);
width = 600;
},
{
layerId = "EDF5EB54-295C-4C90-9A2F-67CD82979CFF";
paths = (
{
closed = 1;
nodes = (
"417 -180 LINE",
"533 550 LINE",
"483 550 LINE",
"471 475 LINE",
"443 475 LINE",
"471 410 LINE",
"485 501 OFFCURVE",
"428 560 OFFCURVE",
"332 560 CURVE SMOOTH",
"222 560 OFFCURVE",
"137 481 OFFCURVE",
"118 361 CURVE SMOOTH",
"91 190 LINE SMOOTH",
"72 70 OFFCURVE",
"131 -10 OFFCURVE",
"241 -10 CURVE SMOOTH",
"337 -10 OFFCURVE",
"414 49 OFFCURVE",
"428 140 CURVE",
"390 75 LINE",
"408 75 LINE",
"391 -30 LINE",
"367 -180 LINE"
);
},
{
closed = 1;
nodes = (
"169 33 OFFCURVE",
"126 92 OFFCURVE",
"141 190 CURVE SMOOTH",
"168 361 LINE SMOOTH",
"184 459 OFFCURVE",
"246 517 OFFCURVE",
"335 517 CURVE SMOOTH",
"425 517 OFFCURVE",
"469 459 OFFCURVE",
"453 361 CURVE SMOOTH",
"426 190 LINE SMOOTH",
"411 92 OFFCURVE",
"349 33 OFFCURVE",
"258 33 CURVE SMOOTH"
);
}
);
width = 600;
}
);
unicode = 0071;
},
{
glyphname = r;
layers = (
{
anchors = (
{
name = bottom;
position = "{91, 0}";
},
{
name = top;
position = "{363, 550}";
}
);
layerId = "CCC0BD40-BA8C-414E-B576-CF0B94E6C996";
paths = (
{
closed = 1;
nodes = (
"157 0 LINE",
"212 350 LINE SMOOTH",
"226 435 OFFCURVE",
"280 484 OFFCURVE",
"356 484 CURVE SMOOTH",
"433 484 OFFCURVE",
"469 436 OFFCURVE",
"455 350 CURVE SMOOTH",
"451 325 LINE",
"541 325 LINE",
"547 358 LINE SMOOTH",
"566 482 OFFCURVE",
"505 560 OFFCURVE",
"389 560 CURVE SMOOTH",
"288 560 OFFCURVE",
"226 499 OFFCURVE",
"207 380 CURVE",
"246 445 LINE",
"225 445 LINE",
"242 550 LINE",
"154 550 LINE",
"67 0 LINE"
);
}
);
width = 600;
},
{
anchors = (
{
name = bottom;
position = "{91, 0}";
},
{
name = top;
position = "{363, 550}";
}
);
layerId = "EDF5EB54-295C-4C90-9A2F-67CD82979CFF";
paths = (
{
closed = 1;
nodes = (
"133 0 LINE",
"190 360 LINE SMOOTH",
"206 459 OFFCURVE",
"268 517 OFFCURVE",
"358 517 CURVE SMOOTH",
"448 517 OFFCURVE",
"492 459 OFFCURVE",
"476 360 CURVE SMOOTH",
"471 330 LINE",
"526 330 LINE",
"531 360 LINE SMOOTH",
"550 483 OFFCURVE",
"490 560 OFFCURVE",
"373 560 CURVE SMOOTH",
"274 560 OFFCURVE",
"206 504 OFFCURVE",
"191 410 CURVE",
"230 475 LINE",
"208 475 LINE",
"220 550 LINE",
"170 550 LINE",
"83 0 LINE"
);
}
);
width = 600;
},
{
anchors = (
{
name = bottom;
position = "{91, 0}";
},
{
name = top;
position = "{363, 550}";
}
);
layerId = "9ADF6715-3D0F-493D-8567-18A6FBCFC567";
paths = (
{
closed = 1;
nodes = (
"188 0 LINE",
"242 340 LINE SMOOTH",
"251 400 OFFCURVE",
"288 435 OFFCURVE",
"345 435 CURVE SMOOTH",
"400 435 OFFCURVE",
"429 400 OFFCURVE",
"420 340 CURVE SMOOTH",
"414 305 LINE",
"574 305 LINE",
"581 350 LINE SMOOTH",
"602 483 OFFCURVE",
"544 560 OFFCURVE",
"423 560 CURVE SMOOTH",
"318 560 OFFCURVE",
"252 499 OFFCURVE",
"233 381 CURVE",
"286 445 LINE",
"248 445 LINE",
"265 550 LINE",
"125 550 LINE",
"38 0 LINE"
);
}
);
width = 600;
}
);
unicode = 0072;
},
{
glyphname = s;
layers = (
{
anchors = (
{
name = bottom;
position = "{255, 0}";
},
{
name = top;
position = "{345, 550}";
}
);
layerId = "9ADF6715-3D0F-493D-8567-18A6FBCFC567";
paths = (
{
closed = 1;
nodes = (
"275 -10 LINE SMOOTH",
"425 -10 OFFCURVE",
"514 52 OFFCURVE",
"532 164 CURVE SMOOTH",
"548 267 OFFCURVE",
"488 311 OFFCURVE",
"352 329 CURVE SMOOTH",
"284 338 LINE SMOOTH",
"239 344 OFFCURVE",
"224 362 OFFCURVE",
"229 393 CURVE SMOOTH",
"234 426 OFFCURVE",
"258 443 OFFCURVE",
"308 443 CURVE SMOOTH",
"346 443 LINE SMOOTH",
"389 443 OFFCURVE",
"414 425 OFFCURVE",
"410 398 CURVE",
"560 398 LINE",
"576 496 OFFCURVE",
"499 560 OFFCURVE",
"365 560 CURVE SMOOTH",
"327 560 LINE SMOOTH",
"186 560 OFFCURVE",
"101 499 OFFCURVE",
"84 392 CURVE SMOOTH",
"68 290 OFFCURVE",
"123 249 OFFCURVE",
"257 232 CURVE SMOOTH",
"320 224 LINE SMOOTH",
"372 217 OFFCURVE",
"392 197 OFFCURVE",
"387 164 CURVE SMOOTH",
"381 128 OFFCURVE",
"349 107 OFFCURVE",
"294 107 CURVE SMOOTH",
"250 107 LINE SMOOTH",
"204 107 OFFCURVE",
"176 128 OFFCURVE",
"181 160 CURVE",
"31 160 LINE",
"15 58 OFFCURVE",
"95 -10 OFFCURVE",
"231 -10 CURVE SMOOTH"
);
}
);
width = 600;
},
{
anchors = (
{
name = bottom;
position = "{257, 0}";
},
{
name = top;
position = "{344, 550}";
}
);
layerId = "CCC0BD40-BA8C-414E-B576-CF0B94E6C996";
paths = (
{
closed = 1;
nodes = (
"274 -10 LINE SMOOTH",
"404 -10 OFFCURVE",
"479 53 OFFCURVE",
"496 155 CURVE SMOOTH",
"511 251 OFFCURVE",
"465 296 OFFCURVE",
"350 315 CURVE SMOOTH",
"278 327 LINE SMOOTH",
"222 336 OFFCURVE",
"201 357 OFFCURVE",
"208 402 CURVE SMOOTH",
"216 452 OFFCURVE",
"250 480 OFFCURVE",
"318 480 CURVE SMOOTH",
"356 480 LINE SMOOTH",
"410 480 OFFCURVE",
"439 456 OFFCURVE",
"442 421 CURVE",
"532 421 LINE",
"532 505 OFFCURVE",
"474 560 OFFCURVE",
"369 560 CURVE SMOOTH",
"331 560 LINE SMOOTH",
"206 560 OFFCURVE",
"133 501 OFFCURVE",
"118 403 CURVE SMOOTH",
"103 310 OFFCURVE",
"149 265 OFFCURVE",
"254 248 CURVE SMOOTH",
"326 236 LINE SMOOTH",
"385 226 OFFCURVE",
"412 198 OFFCURVE",
"405 151 CURVE SMOOTH",
"397 103 OFFCURVE",
"358 70 OFFCURVE",
"287 70 CURVE SMOOTH",
"245 70 LINE SMOOTH",
"186 70 OFFCURVE",
"154 96 OFFCURVE",
"152 135 CURVE",
"62 135 LINE",
"58 47 OFFCURVE",
"119 -10 OFFCURVE",
"232 -10 CURVE SMOOTH"
);
}
);
width = 600;
},
{
anchors = (
{
name = bottom;
position = "{261, 0}";
},
{
name = top;
position = "{347, 550}";
}
);
layerId = "EDF5EB54-295C-4C90-9A2F-67CD82979CFF";
paths = (
{
closed = 1;
nodes = (
"293 -10 LINE SMOOTH",
"397 -10 OFFCURVE",
"472 48 OFFCURVE",
"487 140 CURVE SMOOTH",
"500 224 OFFCURVE",
"456 285 OFFCURVE",
"372 297 CURVE SMOOTH",
"270 312 LINE SMOOTH",
"201 322 OFFCURVE",
"172 355 OFFCURVE",
"180 412 CURVE SMOOTH",
"189 475 OFFCURVE",
"245 515 OFFCURVE",
"320 515 CURVE SMOOTH",
"362 515 LINE SMOOTH",
"432 515 OFFCURVE",
"475 477 OFFCURVE",
"474 425 CURVE",
"524 425 LINE",
"527 506 OFFCURVE",
"469 560 OFFCURVE",
"369 560 CURVE SMOOTH",
"327 560 LINE SMOOTH",
"221 560 OFFCURVE",
"144 502 OFFCURVE",
"129 411 CURVE SMOOTH",
"116 330 OFFCURVE",
"163 278 OFFCURVE",
"254 265 CURVE SMOOTH",
"358 250 LINE SMOOTH",
"415 242 OFFCURVE",
"445 197 OFFCURVE",
"436 140 CURVE SMOOTH",
"426 76 OFFCURVE",
"374 35 OFFCURVE",
"301 35 CURVE SMOOTH",
"234 35 LINE SMOOTH",
"165 35 OFFCURVE",
"121 77 OFFCURVE",
"120 135 CURVE",
"70 135 LINE",
"66 50 OFFCURVE",
"126 -10 OFFCURVE",
"226 -10 CURVE SMOOTH"
);
}
);
width = 600;
}
);
unicode = 0073;
},
{
glyphname = scedilla;
layers = (
{
components = (
{
name = s;
}
);
layerId = "EDF5EB54-295C-4C90-9A2F-67CD82979CFF";
paths = (
{
closed = 1;
nodes = (
"265 -195 LINE SMOOTH",
"325 -195 OFFCURVE",
"370 -161 OFFCURVE",
"377 -118 CURVE SMOOTH",
"386 -61 OFFCURVE",
"327 -37 OFFCURVE",
"280 -34 CURVE",
"313 26 LINE",
"271 26 LINE",
"222 -64 LINE",
"293 -64 OFFCURVE",
"336 -86 OFFCURVE",
"331 -118 CURVE SMOOTH",
"328 -140 OFFCURVE",
"303 -160 OFFCURVE",
"271 -160 CURVE SMOOTH",
"191 -160 LINE",
"185 -195 LINE"
);
}
);
width = 600;
},
{
components = (
{
name = s;
}
);
layerId = "CCC0BD40-BA8C-414E-B576-CF0B94E6C996";
paths = (
{
closed = 1;
nodes = (
"300 -203 LINE SMOOTH",
"372 -203 OFFCURVE",
"420 -166 OFFCURVE",
"420 -120 CURVE SMOOTH",
"420 -68 OFFCURVE",
"352 -41 OFFCURVE",
"300 -35 CURVE",
"321 26 LINE",
"264 26 LINE",
"229 -69 LINE",
"296 -69 OFFCURVE",
"334 -89 OFFCURVE",
"334 -112 CURVE SMOOTH",
"334 -130 OFFCURVE",
"314 -148 OFFCURVE",
"285 -148 CURVE SMOOTH",
"215 -148 LINE",
"215 -203 LINE"
);
}
);
width = 600;
},
{
components = (
{
name = s;
}
);
layerId = "9ADF6715-3D0F-493D-8567-18A6FBCFC567";
paths = (
{
closed = 1;
nodes = (
"310 -225 LINE SMOOTH",
"394 -225 OFFCURVE",
"450 -182 OFFCURVE",
"450 -133 CURVE SMOOTH",
"450 -72 OFFCURVE",
"369 -43 OFFCURVE",
"308 -39 CURVE",
"327 16 LINE",
"254 16 LINE",
"219 -69 LINE",
"292 -69 OFFCURVE",
"335 -88 OFFCURVE",
"335 -119 CURVE SMOOTH",
"335 -135 OFFCURVE",
"313 -155 OFFCURVE",
"280 -155 CURVE SMOOTH",
"200 -155 LINE",
"200 -225 LINE"
);
}
);
width = 600;
}
);
unicode = 015F;
},
{
glyphname = germandbls;
layers = (
{
layerId = "9ADF6715-3D0F-493D-8567-18A6FBCFC567";
paths = (
{
closed = 1;
nodes = (
"-107 -180 LINE SMOOTH",
"34 -180 OFFCURVE",
"134 -106 OFFCURVE",
"153 14 CURVE SMOOTH",
"233 516 LINE SMOOTH",
"243 577 OFFCURVE",
"287 615 OFFCURVE",
"348 615 CURVE SMOOTH",
"410 615 OFFCURVE",
"443 577 OFFCURVE",
"434 517 CURVE SMOOTH",
"425 462 OFFCURVE",
"385 428 OFFCURVE",
"329 428 CURVE SMOOTH",
"284 428 LINE",
"266 318 LINE",
"313 318 LINE SMOOTH",
"376 318 OFFCURVE",
"410 281 OFFCURVE",
"400 221 CURVE SMOOTH",
"390 161 OFFCURVE",
"347 125 OFFCURVE",
"283 125 CURVE SMOOTH",
"236 125 LINE",
"216 0 LINE",
"268 0 LINE SMOOTH",
"417 0 OFFCURVE",
"529 84 OFFCURVE",
"549 209 CURVE SMOOTH",
"567 322 OFFCURVE",
"494 397 OFFCURVE",
"369 395 CURVE",
"366 380 LINE",
"491 380 OFFCURVE",
"573 440 OFFCURVE",
"589 545 CURVE SMOOTH",
"608 662 OFFCURVE",
"520 740 OFFCURVE",
"381 740 CURVE SMOOTH",
"227 740 OFFCURVE",
"119 650 OFFCURVE",
"98 516 CURVE SMOOTH",
"19 19 LINE SMOOTH",
"11 -29 OFFCURVE",
"-32 -60 OFFCURVE",
"-93 -60 CURVE SMOOTH",
"-113 -60 LINE",
"-132 -180 LINE"
);
}
);
width = 600;
},
{
layerId = "CCC0BD40-BA8C-414E-B576-CF0B94E6C996";
paths = (
{
closed = 1;
nodes = (
"-63 -180 LINE SMOOTH",
"45 -180 OFFCURVE",
"119 -119 OFFCURVE",
"135 -20 CURVE SMOOTH",
"223 534 LINE SMOOTH",
"235 611 OFFCURVE",
"289 658 OFFCURVE",
"363 658 CURVE SMOOTH",
"436 658 OFFCURVE",
"475 613 OFFCURVE",
"463 536 CURVE SMOOTH",
"452 465 OFFCURVE",
"398 413 OFFCURVE",
"324 413 CURVE SMOOTH",
"282 413 LINE",
"270 335 LINE",
"314 335 LINE SMOOTH",
"395 335 OFFCURVE",
"437 288 OFFCURVE",
"424 211 CURVE SMOOTH",
"412 134 OFFCURVE",
"354 82 OFFCURVE",
"274 82 CURVE SMOOTH",
"218 82 LINE",
"205 0 LINE",
"271 0 LINE SMOOTH",
"400 0 OFFCURVE",
"500 86 OFFCURVE",
"519 208 CURVE SMOOTH",
"537 325 OFFCURVE",
"474 400 OFFCURVE",
"359 398 CURVE",
"357 383 LINE",
"463 381 OFFCURVE",
"544 453 OFFCURVE",
"560 554 CURVE SMOOTH",
"579 674 OFFCURVE",
"504 740 OFFCURVE",
"376 740 CURVE SMOOTH",
"248 740 OFFCURVE",
"153 658 OFFCURVE",
"133 534 CURVE SMOOTH",
"45 -20 LINE SMOOTH",
"37 -73 OFFCURVE",
"7 -98 OFFCURVE",
"-49 -98 CURVE SMOOTH",
"-119 -98 LINE",
"-132 -180 LINE"
);
}
);
width = 600;
},
{
layerId = "EDF5EB54-295C-4C90-9A2F-67CD82979CFF";
paths = (
{
closed = 1;
nodes = (
"-43 -180 LINE SMOOTH",
"38 -180 OFFCURVE",
"95 -133 OFFCURVE",
"107 -55 CURVE SMOOTH",
"202 543 LINE SMOOTH",
"217 635 OFFCURVE",
"283 695 OFFCURVE",
"371 695 CURVE SMOOTH",
"463 695 OFFCURVE",
"507 637 OFFCURVE",
"492 545 CURVE SMOOTH",
"478 457 OFFCURVE",
"413 397 OFFCURVE",
"324 397 CURVE SMOOTH",
"284 397 LINE",
"277 352 LINE",
"317 352 LINE SMOOTH",
"422 352 OFFCURVE",
"468 297 OFFCURVE",
"453 200 CURVE SMOOTH",
"437 102 OFFCURVE",
"373 45 OFFCURVE",
"268 45 CURVE SMOOTH",
"206 45 LINE",
"199 0 LINE",
"261 0 LINE SMOOTH",
"393 0 OFFCURVE",
"484 80 OFFCURVE",
"504 208 CURVE SMOOTH",
"521 314 OFFCURVE",
"464 380 OFFCURVE",
"356 380 CURVE",
"355 370 LINE",
"449 370 OFFCURVE",
"526 444 OFFCURVE",
"543 550 CURVE SMOOTH",
"561 666 OFFCURVE",
"500 740 OFFCURVE",
"378 740 CURVE SMOOTH",
"261 740 OFFCURVE",
"171 661 OFFCURVE",
"152 543 CURVE SMOOTH",
"57 -55 LINE SMOOTH",
"49 -106 OFFCURVE",
"16 -135 OFFCURVE",
"-35 -135 CURVE SMOOTH",
"-124 -135 LINE",
"-132 -180 LINE"
);
}
);
width = 600;
}
);
unicode = 00DF;
},
{
glyphname = longs;
layers = (
{
layerId = "9ADF6715-3D0F-493D-8567-18A6FBCFC567";
paths = (
{
closed = 1;
nodes = (
"43 -180 LINE SMOOTH",
"184 -180 OFFCURVE",
"284 -106 OFFCURVE",
"303 14 CURVE",
"389 555 LINE",
"393 582 OFFCURVE",
"414 600 OFFCURVE",
"441 600 CURVE SMOOTH",
"597 600 LINE",
"618 730 LINE",
"457 730 LINE SMOOTH",
"343 730 OFFCURVE",
"256 662 OFFCURVE",
"240 560 CURVE",
"154 19 LINE",
"146 -31 OFFCURVE",
"110 -60 OFFCURVE",
"57 -60 CURVE SMOOTH",
"-41 -60 LINE",
"-60 -180 LINE"
);
}
);
width = 600;
},
{
layerId = "CCC0BD40-BA8C-414E-B576-CF0B94E6C996";
paths = (
{
closed = 1;
nodes = (
"65 -180 LINE SMOOTH",
"173 -180 OFFCURVE",
"248 -119 OFFCURVE",
"263 -20 CURVE",
"356 570 LINE",
"364 623 OFFCURVE",
"394 648 OFFCURVE",
"450 648 CURVE SMOOTH",
"625 648 LINE",
"638 730 LINE",
"464 730 LINE SMOOTH",
"356 730 OFFCURVE",
"281 669 OFFCURVE",
"266 570 CURVE",
"173 -20 LINE",
"165 -73 OFFCURVE",
"135 -98 OFFCURVE",
"79 -98 CURVE SMOOTH",
"-34 -98 LINE",
"-47 -180 LINE"
);
}
);
width = 600;
},
{
layerId = "EDF5EB54-295C-4C90-9A2F-67CD82979CFF";
paths = (
{
closed = 1;
nodes = (
"87 -180 LINE SMOOTH",
"168 -180 OFFCURVE",
"225 -133 OFFCURVE",
"237 -55 CURVE",
"342 605 LINE",
"350 656 OFFCURVE",
"383 685 OFFCURVE",
"434 685 CURVE SMOOTH",
"587 685 LINE",
"595 730 LINE",
"442 730 LINE SMOOTH",
"361 730 OFFCURVE",
"305 683 OFFCURVE",
"292 605 CURVE",
"187 -55 LINE",
"179 -106 OFFCURVE",
"146 -135 OFFCURVE",
"95 -135 CURVE SMOOTH",
"-18 -135 LINE",
"-26 -180 LINE"
);
}
);
width = 600;
}
);
unicode = 017F;
},
{
glyphname = t;
layers = (
{
anchors = (
{
name = bottom;
position = "{316, 0}";
}
);
layerId = "9ADF6715-3D0F-493D-8567-18A6FBCFC567";
paths = (
{
closed = 1;
nodes = (
"481 0 LINE",
"502 135 LINE",
"352 135 LINE SMOOTH",
"323 135 OFFCURVE",
"310 151 OFFCURVE",
"315 180 CURVE SMOOTH",
"352 415 LINE",
"557 415 LINE",
"578 550 LINE",
"373 550 LINE",
"397 700 LINE",
"247 700 LINE",
"223 550 LINE",
"78 550 LINE",
"57 415 LINE",
"202 415 LINE",
"165 180 LINE SMOOTH",
"147 68 OFFCURVE",
"204 0 OFFCURVE",
"316 0 CURVE SMOOTH"
);
}
);
width = 600;
},
{
anchors = (
{
name = bottom;
position = "{316, 0}";
}
);
layerId = "CCC0BD40-BA8C-414E-B576-CF0B94E6C996";
paths = (
{
closed = 1;
nodes = (
"466 0 LINE",
"479 82 LINE",
"329 82 LINE SMOOTH",
"288 82 OFFCURVE",
"272 102 OFFCURVE",
"279 145 CURVE SMOOTH",
"330 468 LINE",
"550 468 LINE",
"563 550 LINE",
"343 550 LINE",
"367 700 LINE",
"277 700 LINE",
"253 550 LINE",
"98 550 LINE",
"85 468 LINE",
"240 468 LINE",
"189 145 LINE SMOOTH",
"174 53 OFFCURVE",
"221 0 OFFCURVE",
"316 0 CURVE SMOOTH"
);
}
);
width = 600;
},
{
anchors = (
{
name = bottom;
position = "{316, 0}";
}
);
layerId = "EDF5EB54-295C-4C90-9A2F-67CD82979CFF";
paths = (
{
closed = 1;
nodes = (
"451 0 LINE",
"458 45 LINE",
"323 45 LINE SMOOTH",
"271 45 OFFCURVE",
"248 73 OFFCURVE",
"256 125 CURVE SMOOTH",
"316 505 LINE",
"541 505 LINE",
"548 550 LINE",
"323 550 LINE",
"347 700 LINE",
"297 700 LINE",
"273 550 LINE",
"113 550 LINE",
"106 505 LINE",
"266 505 LINE",
"206 125 LINE SMOOTH",
"193 44 OFFCURVE",
"232 0 OFFCURVE",
"316 0 CURVE SMOOTH"
);
}
);
width = 600;
}
);
unicode = 0074;
},
{
glyphname = tbar;
layers = (
{
components = (
{
alignment = -1;
name = t;
}
);
layerId = "9ADF6715-3D0F-493D-8567-18A6FBCFC567";
paths = (
{
closed = 1;
nodes = (
"481 220 LINE",
"499 335 LINE",
"79 335 LINE",
"61 220 LINE"
);
}
);
width = 600;
},
{
components = (
{
alignment = -1;
name = t;
}
);
layerId = "CCC0BD40-BA8C-414E-B576-CF0B94E6C996";
paths = (
{
closed = 1;
nodes = (
"469 239 LINE",
"481 314 LINE",
"91 314 LINE",
"79 239 LINE"
);
}
);
width = 600;
},
{
components = (
{
name = t;
}
);
layerId = "EDF5EB54-295C-4C90-9A2F-67CD82979CFF";
paths = (
{
closed = 1;
nodes = (
"462 261 LINE",
"469 304 LINE",
"98 304 LINE",
"91 261 LINE"
);
}
);
width = 600;
}
);
unicode = 0167;
},
{
glyphname = tcaron;
layers = (
{
components = (
{
alignment = -1;
name = t;
}
);
layerId = "9ADF6715-3D0F-493D-8567-18A6FBCFC567";
paths = (
{
closed = 1;
nodes = (
"548 620 LINE",
"663 775 LINE",
"535 775 LINE",
"430 620 LINE"
);
}
);
width = 600;
},
{
components = (
{
alignment = -1;
name = t;
}
);
layerId = "CCC0BD40-BA8C-414E-B576-CF0B94E6C996";
paths = (
{
closed = 1;
nodes = (
"509 620 LINE",
"634 776 LINE",
"538 776 LINE",
"423 620 LINE"
);
}
);
width = 600;
},
{
components = (
{
alignment = -1;
name = t;
}
);
layerId = "EDF5EB54-295C-4C90-9A2F-67CD82979CFF";
paths = (
{
closed = 1;
nodes = (
"491 620 LINE",
"616 776 LINE",
"547 776 LINE",
"442 620 LINE"
);
}
);
width = 600;
}
);
unicode = 0165;
},
{
glyphname = tcedilla;
layers = (
{
anchors = (
{
name = _bottom;
position = "{360, 0}";
}
);
components = (
{
name = t;
}
);
layerId = "EDF5EB54-295C-4C90-9A2F-67CD82979CFF";
paths = (
{
closed = 1;
nodes = (
"350 -195 LINE SMOOTH",
"410 -195 OFFCURVE",
"450 -161 OFFCURVE",
"450 -118 CURVE SMOOTH",
"450 -61 OFFCURVE",
"387 -37 OFFCURVE",
"340 -34 CURVE",
"363 26 LINE",
"321 26 LINE",
"286 -64 LINE",
"357 -64 OFFCURVE",
"404 -86 OFFCURVE",
"404 -118 CURVE SMOOTH",
"404 -140 OFFCURVE",
"382 -160 OFFCURVE",
"350 -160 CURVE SMOOTH",
"270 -160 LINE",
"270 -195 LINE"
);
}
);
width = 600;
},
{
anchors = (
{
name = _bottom;
position = "{360, 0}";
}
);
components = (
{
name = t;
}
);
layerId = "CCC0BD40-BA8C-414E-B576-CF0B94E6C996";
paths = (
{
closed = 1;
nodes = (
"350 -203 LINE SMOOTH",
"422 -203 OFFCURVE",
"470 -166 OFFCURVE",
"470 -120 CURVE SMOOTH",
"470 -68 OFFCURVE",
"402 -41 OFFCURVE",
"350 -35 CURVE",
"371 26 LINE",
"314 26 LINE",
"279 -69 LINE",
"346 -69 OFFCURVE",
"384 -89 OFFCURVE",
"384 -112 CURVE SMOOTH",
"384 -130 OFFCURVE",
"364 -148 OFFCURVE",
"335 -148 CURVE SMOOTH",
"265 -148 LINE",
"265 -203 LINE"
);
}
);
width = 600;
},
{
anchors = (
{
name = _bottom;
position = "{360, 0}";
}
);
components = (
{
name = t;
}
);
layerId = "9ADF6715-3D0F-493D-8567-18A6FBCFC567";
paths = (
{
closed = 1;
nodes = (
"360 -225 LINE SMOOTH",
"444 -225 OFFCURVE",
"500 -182 OFFCURVE",
"500 -133 CURVE SMOOTH",
"500 -72 OFFCURVE",
"419 -43 OFFCURVE",
"358 -39 CURVE",
"377 16 LINE",
"304 16 LINE",
"269 -69 LINE",
"342 -69 OFFCURVE",
"385 -88 OFFCURVE",
"385 -119 CURVE SMOOTH",
"385 -135 OFFCURVE",
"363 -155 OFFCURVE",
"330 -155 CURVE SMOOTH",
"250 -155 LINE",
"250 -225 LINE"
);
}
);
width = 600;
}
);
unicode = 0163;
},
{
glyphname = u;
layers = (
{
anchors = (
{
name = bottom;
position = "{256, 0}";
},
{
name = horn;
position = "{453, 550}";
},
{
name = ogonek;
position = "{305, 0}";
},
{
name = top;
position = "{343, 550}";
},
{
name = topright;
position = "{624, 550}";
}
);
layerId = "EDF5EB54-295C-4C90-9A2F-67CD82979CFF";
paths = (
{
closed = 1;
nodes = (
"373 -10 OFFCURVE",
"459 68 OFFCURVE",
"479 194 CURVE SMOOTH",
"535 550 LINE",
"485 550 LINE",
"429 194 LINE SMOOTH",
"413 94 OFFCURVE",
"350 35 OFFCURVE",
"261 35 CURVE SMOOTH",
"173 35 OFFCURVE",
"129 94 OFFCURVE",
"145 194 CURVE SMOOTH",
"201 550 LINE",
"151 550 LINE",
"95 194 LINE SMOOTH",
"75 67 OFFCURVE",
"134 -10 OFFCURVE",
"253 -10 CURVE SMOOTH"
);
}
);
width = 600;
},
{
anchors = (
{
name = bottom;
position = "{256, 0}";
},
{
name = horn;
position = "{453, 550}";
},
{
name = ogonek;
position = "{305, 0}";
},
{
name = top;
position = "{343, 550}";
},
{
name = topright;
position = "{624, 550}";
}
);
layerId = "9ADF6715-3D0F-493D-8567-18A6FBCFC567";
paths = (
{
closed = 1;
nodes = (
"400 -10 OFFCURVE",
"504 74 OFFCURVE",
"526 214 CURVE SMOOTH",
"579 550 LINE",
"429 550 LINE",
"376 215 LINE SMOOTH",
"366 153 OFFCURVE",
"330 120 OFFCURVE",
"275 120 CURVE SMOOTH",
"219 120 OFFCURVE",
"194 153 OFFCURVE",
"204 215 CURVE SMOOTH",
"257 550 LINE",
"107 550 LINE",
"54 214 LINE SMOOTH",
"32 75 OFFCURVE",
"106 -10 OFFCURVE",
"254 -10 CURVE SMOOTH"
);
}
);
width = 600;
},
{
anchors = (
{
name = bottom;
position = "{256, 0}";
},
{
name = horn;
position = "{463, 550}";
},
{
name = ogonek;
position = "{305, 0}";
},
{
name = top;
position = "{343, 550}";
},
{
name = topright;
position = "{624, 550}";
}
);
layerId = "CCC0BD40-BA8C-414E-B576-CF0B94E6C996";
paths = (
{
closed = 1;
nodes = (
"380 -10 OFFCURVE",
"478 71 OFFCURVE",
"498 200 CURVE SMOOTH",
"553 550 LINE",
"463 550 LINE",
"408 200 LINE SMOOTH",
"395 117 OFFCURVE",
"341 69 OFFCURVE",
"266 69 CURVE SMOOTH",
"192 69 OFFCURVE",
"155 117 OFFCURVE",
"168 200 CURVE SMOOTH",
"223 550 LINE",
"133 550 LINE",
"78 200 LINE SMOOTH",
"58 71 OFFCURVE",
"126 -10 OFFCURVE",
"253 -10 CURVE SMOOTH"
);
}
);
width = 600;
}
);
unicode = 0075;
},
{
glyphname = uhorn;
layers = (
{
anchors = (
{
name = bottom;
position = "{236, 0}";
},
{
name = top;
position = "{323, 550}";
}
);
layerId = "9ADF6715-3D0F-493D-8567-18A6FBCFC567";
paths = (
{
closed = 1;
nodes = (
"31 72 OFFCURVE",
"99 -10 OFFCURVE",
"234 -10 CURVE SMOOTH",
"369 -10 OFFCURVE",
"463 72 OFFCURVE",
"485 209 CURVE SMOOTH",
"523 450 LINE",
"610 450 OFFCURVE",
"671 504 OFFCURVE",
"684 585 CURVE SMOOTH",
"696 660 LINE",
"576 660 LINE",
"564 585 LINE SMOOTH",
"560 563 OFFCURVE",
"545 550 OFFCURVE",
"523 550 CURVE SMOOTH",
"389 550 LINE",
"335 206 LINE SMOOTH",
"326 150 OFFCURVE",
"298 120 OFFCURVE",
"255 120 CURVE SMOOTH",
"212 120 OFFCURVE",
"194 150 OFFCURVE",
"203 206 CURVE SMOOTH",
"257 550 LINE",
"107 550 LINE",
"53 209 LINE SMOOTH"
);
}
);
width = 600;
},
{
anchors = (
{
name = bottom;
position = "{255, 0}";
},
{
name = top;
position = "{343, 550}";
}
);
layerId = "CCC0BD40-BA8C-414E-B576-CF0B94E6C996";
paths = (
{
closed = 1;
nodes = (
"57 71 OFFCURVE",
"126 -10 OFFCURVE",
"253 -10 CURVE SMOOTH",
"380 -10 OFFCURVE",
"477 71 OFFCURVE",
"498 200 CURVE SMOOTH",
"543 485 LINE",
"606 485 OFFCURVE",
"639 523 OFFCURVE",
"648 580 CURVE SMOOTH",
"661 660 LINE",
"586 660 LINE",
"574 585 LINE SMOOTH",
"570 562 OFFCURVE",
"556 550 OFFCURVE",
"533 550 CURVE SMOOTH",
"463 550 LINE",
"408 200 LINE SMOOTH",
"395 117 OFFCURVE",
"341 69 OFFCURVE",
"266 69 CURVE SMOOTH",
"192 69 OFFCURVE",
"155 117 OFFCURVE",
"168 200 CURVE SMOOTH",
"223 550 LINE",
"133 550 LINE",
"78 200 LINE SMOOTH"
);
}
);
width = 600;
},
{
anchors = (
{
name = bottom;
position = "{255, 0}";
},
{
name = top;
position = "{343, 550}";
}
);
layerId = "EDF5EB54-295C-4C90-9A2F-67CD82979CFF";
paths = (
{
closed = 1;
nodes = (
"75 67 OFFCURVE",
"134 -10 OFFCURVE",
"253 -10 CURVE SMOOTH",
"373 -10 OFFCURVE",
"459 68 OFFCURVE",
"479 194 CURVE SMOOTH",
"530 515 LINE",
"580 515 OFFCURVE",
"619 549 OFFCURVE",
"627 600 CURVE SMOOTH",
"637 660 LINE",
"597 660 LINE",
"587 600 LINE SMOOTH",
"582 570 OFFCURVE",
"561 550 OFFCURVE",
"534 550 CURVE SMOOTH",
"485 550 LINE",
"429 194 LINE SMOOTH",
"413 94 OFFCURVE",
"350 35 OFFCURVE",
"261 35 CURVE SMOOTH",
"173 35 OFFCURVE",
"129 94 OFFCURVE",
"145 194 CURVE SMOOTH",
"201 550 LINE",
"151 550 LINE",
"95 194 LINE SMOOTH"
);
}
);
width = 600;
}
);
unicode = 01B0;
},
{
glyphname = uogonek;
layers = (
{
anchors = (
{
name = horn;
position = "{453, 550}";
},
{
name = top;
position = "{343, 550}";
}
);
layerId = "EDF5EB54-295C-4C90-9A2F-67CD82979CFF";
paths = (
{
closed = 1;
nodes = (
"371 -195 LINE",
"378 -153 LINE",
"314 -153 LINE SMOOTH",
"282 -153 OFFCURVE",
"266 -134 OFFCURVE",
"271 -103 CURVE SMOOTH",
"275 -75 OFFCURVE",
"304 -36 OFFCURVE",
"348 0 CURVE SMOOTH",
"379 25 LINE",
"432 59 OFFCURVE",
"466 116 OFFCURVE",
"478 190 CURVE SMOOTH",
"535 550 LINE",
"485 550 LINE",
"428 190 LINE SMOOTH",
"412 91 OFFCURVE",
"353 34 OFFCURVE",
"261 34 CURVE SMOOTH",
"169 34 OFFCURVE",
"128 91 OFFCURVE",
"144 190 CURVE SMOOTH",
"201 550 LINE",
"151 550 LINE",
"94 190 LINE SMOOTH",
"75 68 OFFCURVE",
"136 -10 OFFCURVE",
"254 -10 CURVE SMOOTH",
"270 -10 OFFCURVE",
"287 -9 OFFCURVE",
"301 -6 CURVE",
"252 -47 OFFCURVE",
"227 -83 OFFCURVE",
"222 -115 CURVE SMOOTH",
"214 -165 OFFCURVE",
"243 -195 OFFCURVE",
"298 -195 CURVE SMOOTH"
);
}
);
width = 600;
},
{
anchors = (
{
name = horn;
position = "{463, 550}";
},
{
name = top;
position = "{343, 550}";
}
);
layerId = "CCC0BD40-BA8C-414E-B576-CF0B94E6C996";
paths = (
{
closed = 1;
nodes = (
"374 -203 LINE",
"383 -143 LINE",
"323 -143 LINE SMOOTH",
"289 -143 OFFCURVE",
"272 -122 OFFCURVE",
"276 -93 CURVE SMOOTH",
"281 -65 OFFCURVE",
"304 -36 OFFCURVE",
"355 1 CURVE SMOOTH",
"382 21 LINE",
"445 55 OFFCURVE",
"485 117 OFFCURVE",
"498 200 CURVE SMOOTH",
"553 550 LINE",
"463 550 LINE",
"408 200 LINE SMOOTH",
"394 115 OFFCURVE",
"345 70 OFFCURVE",
"267 70 CURVE SMOOTH",
"189 70 OFFCURVE",
"154 115 OFFCURVE",
"168 200 CURVE SMOOTH",
"223 550 LINE",
"133 550 LINE",
"78 200 LINE SMOOTH",
"57 69 OFFCURVE",
"123 -10 OFFCURVE",
"254 -10 CURVE SMOOTH",
"257 -10 OFFCURVE",
"260 -10 OFFCURVE",
"263 -10 CURVE",
"211 -51 OFFCURVE",
"193 -81 OFFCURVE",
"189 -110 CURVE SMOOTH",
"180 -164 OFFCURVE",
"222 -203 OFFCURVE",
"296 -203 CURVE SMOOTH"
);
}
);
width = 600;
},
{
anchors = (
{
name = horn;
position = "{453, 550}";
},
{
name = top;
position = "{343, 550}";
}
);
layerId = "9ADF6715-3D0F-493D-8567-18A6FBCFC567";
paths = (
{
closed = 1;
nodes = (
"387 -225 LINE",
"404 -120 LINE",
"335 -120 LINE SMOOTH",
"306 -120 OFFCURVE",
"292 -103 OFFCURVE",
"295 -83 CURVE SMOOTH",
"298 -66 OFFCURVE",
"316 -41 OFFCURVE",
"346 -18 CURVE SMOOTH",
"410 31 LINE",
"470 70 OFFCURVE",
"513 135 OFFCURVE",
"525 210 CURVE SMOOTH",
"579 550 LINE",
"429 550 LINE",
"375 210 LINE SMOOTH",
"366 152 OFFCURVE",
"333 120 OFFCURVE",
"275 120 CURVE SMOOTH",
"217 120 OFFCURVE",
"194 152 OFFCURVE",
"203 210 CURVE SMOOTH",
"257 550 LINE",
"107 550 LINE",
"53 210 LINE SMOOTH",
"32 78 OFFCURVE",
"107 -10 OFFCURVE",
"254 -10 CURVE SMOOTH",
"275 -10 OFFCURVE",
"321 12 OFFCURVE",
"324 31 CURVE",
"224 -19 OFFCURVE",
"173 -68 OFFCURVE",
"166 -115 CURVE SMOOTH",
"155 -180 OFFCURVE",
"198 -225 OFFCURVE",
"279 -225 CURVE SMOOTH"
);
}
);
width = 600;
}
);
unicode = 0173;
},
{
glyphname = v;
layers = (
{
layerId = "9ADF6715-3D0F-493D-8567-18A6FBCFC567";
paths = (
{
closed = 1;
nodes = (
"351 0 LINE",
"616 550 LINE",
"460 550 LINE",
"320 240 LINE SMOOTH",
"304 204 OFFCURVE",
"287 154 OFFCURVE",
"277 127 CURVE",
"275 154 OFFCURVE",
"270 204 OFFCURVE",
"265 241 CURVE SMOOTH",
"222 550 LINE",
"70 550 LINE",
"163 0 LINE"
);
}
);
width = 600;
},
{
layerId = "CCC0BD40-BA8C-414E-B576-CF0B94E6C996";
paths = (
{
closed = 1;
nodes = (
"317 0 LINE",
"583 550 LINE",
"489 550 LINE",
"317 180 LINE SMOOTH",
"296 136 OFFCURVE",
"275 91 OFFCURVE",
"266 69 CURVE",
"263 91 OFFCURVE",
"258 136 OFFCURVE",
"251 180 CURVE SMOOTH",
"192 550 LINE",
"103 550 LINE",
"195 0 LINE"
);
}
);
width = 600;
},
{
layerId = "EDF5EB54-295C-4C90-9A2F-67CD82979CFF";
paths = (
{
closed = 1;
nodes = (
"287 0 LINE",
"567 550 LINE",
"513 550 LINE",
"309 140 LINE SMOOTH",
"290 104 OFFCURVE",
"270 60 OFFCURVE",
"260 37 CURVE",
"257 60 OFFCURVE",
"249 104 OFFCURVE",
"243 140 CURVE SMOOTH",
"168 550 LINE",
"119 550 LINE",
"225 0 LINE"
);
}
);
width = 600;
}
);
unicode = 0076;
},
{
glyphname = w;
layers = (
{
anchors = (
{
name = top;
position = "{343, 550}";
}
);
layerId = "9ADF6715-3D0F-493D-8567-18A6FBCFC567";
paths = (
{
closed = 1;
nodes = (
"197 0 LINE",
"286 310 LINE SMOOTH",
"297 347 OFFCURVE",
"313 407 OFFCURVE",
"324 442 CURVE",
"322 407 OFFCURVE",
"322 347 OFFCURVE",
"321 310 CURVE SMOOTH",
"315 0 LINE",
"465 0 LINE",
"633 550 LINE",
"516 550 LINE",
"427 250 LINE SMOOTH",
"414 207 OFFCURVE",
"397 142 OFFCURVE",
"389 105 CURVE",
"390 141 OFFCURVE",
"393 205 OFFCURVE",
"393 250 CURVE SMOOTH",
"396 550 LINE",
"290 550 LINE",
"197 250 LINE SMOOTH",
"183 205 OFFCURVE",
"166 142 OFFCURVE",
"157 106 CURVE",
"159 142 OFFCURVE",
"163 206 OFFCURVE",
"164 250 CURVE SMOOTH",
"171 550 LINE",
"53 550 LINE",
"46 0 LINE"
);
}
);
width = 600;
},
{
anchors = (
{
name = top;
position = "{343, 550}";
}
);
layerId = "CCC0BD40-BA8C-414E-B576-CF0B94E6C996";
paths = (
{
closed = 1;
nodes = (
"178 0 LINE",
"300 380 LINE SMOOTH",
"312 417 OFFCURVE",
"325 459 OFFCURVE",
"331 480 CURVE",
"331 459 OFFCURVE",
"331 417 OFFCURVE",
"331 380 CURVE SMOOTH",
"330 0 LINE",
"429 0 LINE",
"608 550 LINE",
"532 550 LINE",
"413 160 LINE SMOOTH",
"404 131 OFFCURVE",
"392 92 OFFCURVE",
"385 70 CURVE",
"386 92 OFFCURVE",
"385 131 OFFCURVE",
"385 160 CURVE SMOOTH",
"386 550 LINE",
"298 550 LINE",
"174 160 LINE SMOOTH",
"165 131 OFFCURVE",
"153 92 OFFCURVE",
"146 70 CURVE",
"147 92 OFFCURVE",
"147 131 OFFCURVE",
"148 160 CURVE SMOOTH",
"155 550 LINE",
"78 550 LINE",
"79 0 LINE"
);
}
);
width = 600;
},
{
anchors = (
{
name = top;
position = "{343, 550}";
}
);
layerId = "EDF5EB54-295C-4C90-9A2F-67CD82979CFF";
paths = (
{
closed = 1;
nodes = (
"165 0 LINE",
"299 391 LINE SMOOTH",
"311 427 OFFCURVE",
"328 478 OFFCURVE",
"337 507 CURVE",
"338 478 OFFCURVE",
"338 427 OFFCURVE",
"339 391 CURVE SMOOTH",
"346 0 LINE",
"412 0 LINE",
"593 550 LINE",
"545 550 LINE",
"412 141 LINE SMOOTH",
"402 111 OFFCURVE",
"390 63 OFFCURVE",
"383 35 CURVE",
"384 63 OFFCURVE",
"384 111 OFFCURVE",
"383 140 CURVE SMOOTH",
"368 550 LINE",
"317 550 LINE",
"172 140 LINE SMOOTH",
"162 111 OFFCURVE",
"147 63 OFFCURVE",
"140 35 CURVE",
"141 63 OFFCURVE",
"142 111 OFFCURVE",
"142 141 CURVE SMOOTH",
"139 550 LINE",
"93 550 LINE",
"99 0 LINE"
);
}
);
width = 600;
}
);
unicode = 0077;
},
{
glyphname = x;
layers = (
{
layerId = "9ADF6715-3D0F-493D-8567-18A6FBCFC567";
paths = (
{
closed = 1;
nodes = (
"153 0 LINE",
"255 130 LINE SMOOTH",
"269 147 OFFCURVE",
"281 172 OFFCURVE",
"288 185 CURVE",
"291 172 OFFCURVE",
"300 148 OFFCURVE",
"308 130 CURVE SMOOTH",
"367 0 LINE",
"530 0 LINE",
"386 282 LINE",
"604 550 LINE",
"433 550 LINE",
"348 440 LINE SMOOTH",
"334 422 OFFCURVE",
"321 398 OFFCURVE",
"314 385 CURVE",
"311 398 OFFCURVE",
"304 422 OFFCURVE",
"296 440 CURVE SMOOTH",
"245 550 LINE",
"82 550 LINE",
"217 288 LINE",
"-18 0 LINE"
);
}
);
width = 600;
},
{
layerId = "CCC0BD40-BA8C-414E-B576-CF0B94E6C996";
paths = (
{
closed = 1;
nodes = (
"118 0 LINE",
"260 180 LINE SMOOTH",
"272 195 OFFCURVE",
"285 217 OFFCURVE",
"293 229 CURVE",
"297 217 OFFCURVE",
"305 195 OFFCURVE",
"312 180 CURVE SMOOTH",
"397 0 LINE",
"501 0 LINE",
"357 279 LINE",
"577 550 LINE",
"470 550 LINE",
"339 380 LINE SMOOTH",
"328 365 OFFCURVE",
"316 346 OFFCURVE",
"310 335 CURVE",
"307 346 OFFCURVE",
"299 365 OFFCURVE",
"292 380 CURVE SMOOTH",
"214 550 LINE",
"110 550 LINE",
"246 286 LINE",
"11 0 LINE"
);
}
);
width = 600;
},
{
layerId = "EDF5EB54-295C-4C90-9A2F-67CD82979CFF";
paths = (
{
closed = 1;
nodes = (
"91 0 LINE",
"265 210 LINE SMOOTH",
"275 222 OFFCURVE",
"289 239 OFFCURVE",
"296 248 CURVE",
"301 239 OFFCURVE",
"311 222 OFFCURVE",
"317 210 CURVE SMOOTH",
"426 0 LINE",
"481 0 LINE",
"330 281 LINE",
"557 550 LINE",
"496 550 LINE",
"333 350 LINE SMOOTH",
"325 340 OFFCURVE",
"313 324 OFFCURVE",
"306 315 CURVE",
"301 324 OFFCURVE",
"294 339 OFFCURVE",
"288 350 CURVE SMOOTH",
"186 550 LINE",
"130 550 LINE",
"273 283 LINE",
"31 0 LINE"
);
}
);
width = 600;
}
);
unicode = 0078;
},
